<?xml version="1.0" encoding="UTF-8" standalone="no"?>
<!DOCTYPE svg PUBLIC "-//W3C//DTD SVG 1.1//EN"
 "http://www.w3.org/Graphics/SVG/1.1/DTD/svg11.dtd">
<!-- Generated by graphviz version 2.40.1 (20161225.0304)
 -->
<!-- Title: ml Pages: 1 -->
<svg width="2878pt" height="989pt"
 viewBox="0.00 0.00 2877.50 989.00" xmlns="http://www.w3.org/2000/svg" xmlns:xlink="http://www.w3.org/1999/xlink">
<g id="graph0" class="graph" transform="scale(1 1) rotate(0) translate(4 985)">
<title>ml</title>
<polygon fill="#ffffff" stroke="transparent" points="-4,4 -4,-985 2873.5,-985 2873.5,4 -4,4"/>
<!-- ndPwmMotor -->
<g id="node1" class="node">
<title>ndPwmMotor</title>
<polygon fill="none" stroke="#000000" points="0,-490 0,-634 398,-634 398,-490 0,-490"/>
<text text-anchor="middle" x="199" y="-618.8" font-family="Times,serif" font-size="14.00" fill="#000000">&lt;&lt;&lt;Structure&gt;&gt;&gt;</text>
<text text-anchor="middle" x="199" y="-603.8" font-family="Times,serif" font-size="14.00" fill="#000000">PwmMotor</text>
<polyline fill="none" stroke="#000000" points="0,-596 398,-596 "/>
<text text-anchor="middle" x="199" y="-580.8" font-family="Times,serif" font-size="14.00" fill="#000000">&#45; is_inverted: bool</text>
<text text-anchor="middle" x="199" y="-565.8" font-family="Times,serif" font-size="14.00" fill="#000000">&#45; id: MotorID</text>
<text text-anchor="middle" x="199" y="-550.8" font-family="Times,serif" font-size="14.00" fill="#000000">&#45; pwm: Pwm</text>
<text text-anchor="middle" x="199" y="-535.8" font-family="Times,serif" font-size="14.00" fill="#000000">&#45; direction: Pin</text>
<text text-anchor="middle" x="199" y="-520.8" font-family="Times,serif" font-size="14.00" fill="#000000">&#45; state: MotorState</text>
<polyline fill="none" stroke="#000000" points="0,-513 398,-513 "/>
<text text-anchor="middle" x="199" y="-497.8" font-family="Times,serif" font-size="14.00" fill="#000000">+ create(pwm: Pwm, direction: Pin, id: MotorID) &#45;&gt; Result&lt;Self, ()&gt;</text>
</g>
<!-- ndTestMotorGroup -->
<g id="node2" class="node">
<title>ndTestMotorGroup</title>
<polygon fill="none" stroke="#000000" points="693,-268 693,-359 897,-359 897,-268 693,-268"/>
<text text-anchor="middle" x="795" y="-343.8" font-family="Times,serif" font-size="14.00" fill="#000000">&lt;&lt;&lt;Structure&gt;&gt;&gt;</text>
<text text-anchor="middle" x="795" y="-328.8" font-family="Times,serif" font-size="14.00" fill="#000000">TestMotorGroup</text>
<polyline fill="none" stroke="#000000" points="693,-321 897,-321 "/>
<text text-anchor="middle" x="795" y="-305.8" font-family="Times,serif" font-size="14.00" fill="#000000">+ inverted: Arc&lt;RwLock&lt;bool&gt;&gt;</text>
<text text-anchor="middle" x="795" y="-290.8" font-family="Times,serif" font-size="14.00" fill="#000000">+ speed: Arc&lt;RwLock&lt;f32&gt;&gt;</text>
<text text-anchor="middle" x="795" y="-275.8" font-family="Times,serif" font-size="14.00" fill="#000000">+ motor_group: MotorGroup</text>
</g>
<!-- ndMotorGroup -->
<g id="node3" class="node">
<title>ndMotorGroup</title>
<polygon fill="none" stroke="#000000" points="637.5,-467.5 637.5,-656.5 952.5,-656.5 952.5,-467.5 637.5,-467.5"/>
<text text-anchor="middle" x="795" y="-641.3" font-family="Times,serif" font-size="14.00" fill="#000000">&lt;&lt;&lt;Structure&gt;&gt;&gt;</text>
<text text-anchor="middle" x="795" y="-626.3" font-family="Times,serif" font-size="14.00" fill="#000000">MotorGroup</text>
<polyline fill="none" stroke="#000000" points="637.5,-618.5 952.5,-618.5 "/>
<text text-anchor="middle" x="795" y="-603.3" font-family="Times,serif" font-size="14.00" fill="#000000">&#45; motors: Vec&lt;Box&lt;MotorController&gt;&gt;</text>
<text text-anchor="middle" x="795" y="-588.3" font-family="Times,serif" font-size="14.00" fill="#000000">&#45; old_speed: f32</text>
<polyline fill="none" stroke="#000000" points="637.5,-580.5 952.5,-580.5 "/>
<text text-anchor="middle" x="795" y="-565.3" font-family="Times,serif" font-size="14.00" fill="#000000">+ new(motors: Vec&lt;Box&lt;MotorController&gt;&gt;) &#45;&gt; Self</text>
<text text-anchor="middle" x="795" y="-550.3" font-family="Times,serif" font-size="14.00" fill="#000000">+ set_speed(&amp;mut self, new_speed: f32)</text>
<text text-anchor="middle" x="795" y="-535.3" font-family="Times,serif" font-size="14.00" fill="#000000">+ stop(&amp;mut self)</text>
<text text-anchor="middle" x="795" y="-520.3" font-family="Times,serif" font-size="14.00" fill="#000000">+ invert(&amp;mut self)</text>
<text text-anchor="middle" x="795" y="-505.3" font-family="Times,serif" font-size="14.00" fill="#000000">+ maintain_last(&amp;mut self)</text>
<text text-anchor="middle" x="795" y="-490.3" font-family="Times,serif" font-size="14.00" fill="#000000">+ get_states(&amp;self) &#45;&gt; Vec&lt;MotorState&gt;</text>
<text text-anchor="middle" x="795" y="-475.3" font-family="Times,serif" font-size="14.00" fill="#000000">&#45; run_operation(&amp;mut self, operation: T)</text>
</g>
<!-- ndMotorGroup&#45;&gt;ndTestMotorGroup -->
<g id="edge1" class="edge">
<title>ndMotorGroup&#45;&gt;ndTestMotorGroup</title>
<path fill="none" stroke="#000000" d="M795,-467.3439C795,-435.0845 795,-399.9991 795,-371.4914"/>
<polygon fill="#000000" stroke="#000000" points="795.0001,-371.2981 791,-365.2982 795,-359.2981 799,-365.2981 795.0001,-371.2981"/>
</g>
<!-- ndDriveTrain -->
<g id="node17" class="node">
<title>ndDriveTrain</title>
<polygon fill="none" stroke="#000000" points="949,-196.5 949,-430.5 1563,-430.5 1563,-196.5 949,-196.5"/>
<text text-anchor="middle" x="1256" y="-415.3" font-family="Times,serif" font-size="14.00" fill="#000000">&lt;&lt;&lt;Structure&gt;&gt;&gt;</text>
<text text-anchor="middle" x="1256" y="-400.3" font-family="Times,serif" font-size="14.00" fill="#000000">DriveTrain</text>
<polyline fill="none" stroke="#000000" points="949,-392.5 1563,-392.5 "/>
<text text-anchor="middle" x="1256" y="-377.3" font-family="Times,serif" font-size="14.00" fill="#000000">&#45; is_enabled: bool</text>
<text text-anchor="middle" x="1256" y="-362.3" font-family="Times,serif" font-size="14.00" fill="#000000">&#45; left: MotorGroup</text>
<text text-anchor="middle" x="1256" y="-347.3" font-family="Times,serif" font-size="14.00" fill="#000000">&#45; right: MotorGroup</text>
<text text-anchor="middle" x="1256" y="-332.3" font-family="Times,serif" font-size="14.00" fill="#000000">&#45; robot_status: Arc&lt;RwLock&lt;RobotLifeStatus&gt;&gt;</text>
<polyline fill="none" stroke="#000000" points="949,-324.5 1563,-324.5 "/>
<text text-anchor="middle" x="1256" y="-309.3" font-family="Times,serif" font-size="14.00" fill="#000000">+ new(left: MotorGroup, right: MotorGroup, robot_status: Arc&lt;RwLock&lt;RobotLifeStatus&gt;&gt;) &#45;&gt; DriveTrain</text>
<text text-anchor="middle" x="1256" y="-294.3" font-family="Times,serif" font-size="14.00" fill="#000000">+ run_cycle(&amp;mut self)</text>
<text text-anchor="middle" x="1256" y="-279.3" font-family="Times,serif" font-size="14.00" fill="#000000">+ drive(&amp;mut self, left_speed: f32, right_speed: f32)</text>
<text text-anchor="middle" x="1256" y="-264.3" font-family="Times,serif" font-size="14.00" fill="#000000">+ brake(&amp;mut self)</text>
<text text-anchor="middle" x="1256" y="-249.3" font-family="Times,serif" font-size="14.00" fill="#000000">+ enable(&amp;mut self)</text>
<text text-anchor="middle" x="1256" y="-234.3" font-family="Times,serif" font-size="14.00" fill="#000000">+ disable(&amp;mut self)</text>
<text text-anchor="middle" x="1256" y="-219.3" font-family="Times,serif" font-size="14.00" fill="#000000">+ get_motor_states(&amp;self) &#45;&gt; Vec&lt;MotorState&gt;</text>
<text text-anchor="middle" x="1256" y="-204.3" font-family="Times,serif" font-size="14.00" fill="#000000">&#45; maintain_last(&amp;mut self)</text>
</g>
<!-- ndMotorGroup&#45;&gt;ndDriveTrain -->
<g id="edge2" class="edge">
<title>ndMotorGroup&#45;&gt;ndDriveTrain</title>
<path fill="none" stroke="#000000" stroke-dasharray="5,2" d="M952.6303,-471.5877C955.4396,-470.0421 958.2314,-468.5118 961,-467 979.4913,-456.9032 998.7052,-446.5658 1018.0599,-436.2617"/>
<polygon fill="#000000" stroke="#000000" points="1018.2264,-436.1732 1021.6479,-429.8255 1028.8233,-430.5423 1025.4018,-436.8901 1018.2264,-436.1732"/>
</g>
<!-- ndTestMotor -->
<g id="node4" class="node">
<title>ndTestMotor</title>
<polygon fill="none" stroke="#000000" points="970.5,-497.5 970.5,-626.5 1447.5,-626.5 1447.5,-497.5 970.5,-497.5"/>
<text text-anchor="middle" x="1209" y="-611.3" font-family="Times,serif" font-size="14.00" fill="#000000">&lt;&lt;&lt;Structure&gt;&gt;&gt;</text>
<text text-anchor="middle" x="1209" y="-596.3" font-family="Times,serif" font-size="14.00" fill="#000000">TestMotor</text>
<polyline fill="none" stroke="#000000" points="970.5,-588.5 1447.5,-588.5 "/>
<text text-anchor="middle" x="1209" y="-573.3" font-family="Times,serif" font-size="14.00" fill="#000000">&#45; inverted: Arc&lt;RwLock&lt;bool&gt;&gt;</text>
<text text-anchor="middle" x="1209" y="-558.3" font-family="Times,serif" font-size="14.00" fill="#000000">&#45; speed: Arc&lt;RwLock&lt;f32&gt;&gt;</text>
<text text-anchor="middle" x="1209" y="-543.3" font-family="Times,serif" font-size="14.00" fill="#000000">&#45; state: MotorState</text>
<polyline fill="none" stroke="#000000" points="970.5,-535.5 1447.5,-535.5 "/>
<text text-anchor="middle" x="1209" y="-520.3" font-family="Times,serif" font-size="14.00" fill="#000000">+ new(inverted: Arc&lt;RwLock&lt;bool&gt;&gt;, speed: Arc&lt;RwLock&lt;f32&gt;&gt;) &#45;&gt; TestMotor</text>
<text text-anchor="middle" x="1209" y="-505.3" font-family="Times,serif" font-size="14.00" fill="#000000">&#45; set_motor_state(&amp;mut self, new_state: MotorState)</text>
</g>
<!-- ndPrintMotor -->
<g id="node5" class="node">
<title>ndPrintMotor</title>
<polygon fill="none" stroke="#000000" points="416.5,-497.5 416.5,-626.5 619.5,-626.5 619.5,-497.5 416.5,-497.5"/>
<text text-anchor="middle" x="518" y="-611.3" font-family="Times,serif" font-size="14.00" fill="#000000">&lt;&lt;&lt;Structure&gt;&gt;&gt;</text>
<text text-anchor="middle" x="518" y="-596.3" font-family="Times,serif" font-size="14.00" fill="#000000">PrintMotor</text>
<polyline fill="none" stroke="#000000" points="416.5,-588.5 619.5,-588.5 "/>
<text text-anchor="middle" x="518" y="-573.3" font-family="Times,serif" font-size="14.00" fill="#000000">&#45; name: String</text>
<text text-anchor="middle" x="518" y="-558.3" font-family="Times,serif" font-size="14.00" fill="#000000">&#45; inverted: bool</text>
<text text-anchor="middle" x="518" y="-543.3" font-family="Times,serif" font-size="14.00" fill="#000000">&#45; last: f32</text>
<text text-anchor="middle" x="518" y="-528.3" font-family="Times,serif" font-size="14.00" fill="#000000">&#45; is_stopped: bool</text>
<polyline fill="none" stroke="#000000" points="416.5,-520.5 619.5,-520.5 "/>
<text text-anchor="middle" x="518" y="-505.3" font-family="Times,serif" font-size="14.00" fill="#000000">+ new(name: &amp;str) &#45;&gt; PrintMotor</text>
</g>
<!-- ndMotorStateKind -->
<g id="node6" class="node">
<title>ndMotorStateKind</title>
<polygon fill="none" stroke="#000000" points="741.5,-874.5 741.5,-965.5 878.5,-965.5 878.5,-874.5 741.5,-874.5"/>
<text text-anchor="middle" x="810" y="-950.3" font-family="Times,serif" font-size="14.00" fill="#000000">&lt;&lt;&lt;Enumeration&gt;&gt;&gt;</text>
<text text-anchor="middle" x="810" y="-935.3" font-family="Times,serif" font-size="14.00" fill="#000000">MotorStateKind</text>
<polyline fill="none" stroke="#000000" points="741.5,-927.5 878.5,-927.5 "/>
<text text-anchor="middle" x="810" y="-912.3" font-family="Times,serif" font-size="14.00" fill="#000000">Unknown</text>
<text text-anchor="middle" x="810" y="-897.3" font-family="Times,serif" font-size="14.00" fill="#000000">Unexported</text>
<text text-anchor="middle" x="810" y="-882.3" font-family="Times,serif" font-size="14.00" fill="#000000">Ok</text>
</g>
<!-- ndMotorState -->
<g id="node8" class="node">
<title>ndMotorState</title>
<polygon fill="none" stroke="#000000" points="650.5,-693.5 650.5,-822.5 969.5,-822.5 969.5,-693.5 650.5,-693.5"/>
<text text-anchor="middle" x="810" y="-807.3" font-family="Times,serif" font-size="14.00" fill="#000000">&lt;&lt;&lt;Structure&gt;&gt;&gt;</text>
<text text-anchor="middle" x="810" y="-792.3" font-family="Times,serif" font-size="14.00" fill="#000000">MotorState</text>
<polyline fill="none" stroke="#000000" points="650.5,-784.5 969.5,-784.5 "/>
<text text-anchor="middle" x="810" y="-769.3" font-family="Times,serif" font-size="14.00" fill="#000000">&#45; motor: MotorID</text>
<text text-anchor="middle" x="810" y="-754.3" font-family="Times,serif" font-size="14.00" fill="#000000">&#45; kind: MotorStateKind</text>
<polyline fill="none" stroke="#000000" points="650.5,-746.5 969.5,-746.5 "/>
<text text-anchor="middle" x="810" y="-731.3" font-family="Times,serif" font-size="14.00" fill="#000000">+ new(motor: MotorID, kind: MotorStateKind) &#45;&gt; Self</text>
<text text-anchor="middle" x="810" y="-716.3" font-family="Times,serif" font-size="14.00" fill="#000000">+ get_motor(&amp;self) &#45;&gt; MotorID</text>
<text text-anchor="middle" x="810" y="-701.3" font-family="Times,serif" font-size="14.00" fill="#000000">+ get_kind(&amp;self) &#45;&gt; MotorStateKind</text>
</g>
<!-- ndMotorStateKind&#45;&gt;ndMotorState -->
<g id="edge3" class="edge">
<title>ndMotorStateKind&#45;&gt;ndMotorState</title>
<path fill="none" stroke="#000000" stroke-dasharray="5,2" d="M810,-874.4429C810,-862.1189 810,-848.4314 810,-834.897"/>
<polygon fill="#000000" stroke="#000000" points="810.0001,-834.554 806,-828.5541 810,-822.554 814,-828.554 810.0001,-834.554"/>
</g>
<!-- ndMotorController -->
<g id="node7" class="node">
<title>ndMotorController</title>
<polygon fill="none" stroke="#000000" points="404,-727.5 404,-788.5 632,-788.5 632,-727.5 404,-727.5"/>
<text text-anchor="middle" x="518" y="-773.3" font-family="Times,serif" font-size="14.00" fill="#000000">&lt;&lt;&lt;Trait&gt;&gt;&gt;</text>
<text text-anchor="middle" x="518" y="-758.3" font-family="Times,serif" font-size="14.00" fill="#000000">MotorController</text>
<polyline fill="none" stroke="#000000" points="404,-750.5 632,-750.5 "/>
<text text-anchor="middle" x="518" y="-735.3" font-family="Times,serif" font-size="14.00" fill="#000000">get_motor_state(&amp;Self) &#45;&gt; MotorState</text>
</g>
<!-- ndMotorController&#45;&gt;ndPwmMotor -->
<g id="edge4" class="edge">
<title>ndMotorController&#45;&gt;ndPwmMotor</title>
<path fill="none" stroke="#000000" stroke-dasharray="5,2" d="M468.1563,-727.375C429.8085,-703.8134 375.0701,-670.181 324.9583,-639.3913"/>
<polygon fill="none" stroke="#000000" points="326.6642,-636.3316 316.3117,-634.0787 322.9997,-642.2958 326.6642,-636.3316"/>
</g>
<!-- ndMotorController&#45;&gt;ndMotorGroup -->
<g id="edge5" class="edge">
<title>ndMotorController&#45;&gt;ndMotorGroup</title>
<path fill="none" stroke="#000000" d="M561.2813,-727.375C585.8956,-709.9583 618.2868,-687.0389 651.0837,-663.8325"/>
<polygon fill="#000000" stroke="#000000" points="651.4711,-663.5584 654.0585,-656.8275 661.2669,-656.6271 658.6794,-663.358 651.4711,-663.5584"/>
</g>
<!-- ndMotorController&#45;&gt;ndTestMotor -->
<g id="edge6" class="edge">
<title>ndMotorController&#45;&gt;ndTestMotor</title>
<path fill="none" stroke="#000000" stroke-dasharray="5,2" d="M565.8474,-727.341C587.8977,-714.6487 614.9193,-701.0417 641,-693 777.7656,-650.8297 821.9462,-690.8705 961,-657 989.9778,-649.9416 1020.1459,-640.3846 1049.0525,-630.0424"/>
<polygon fill="none" stroke="#000000" points="1050.5952,-633.206 1058.8037,-626.5074 1048.2095,-626.6251 1050.5952,-633.206"/>
</g>
<!-- ndMotorController&#45;&gt;ndPrintMotor -->
<g id="edge7" class="edge">
<title>ndMotorController&#45;&gt;ndPrintMotor</title>
<path fill="none" stroke="#000000" stroke-dasharray="5,2" d="M518,-727.375C518,-703.1842 518,-668.3777 518,-636.9311"/>
<polygon fill="none" stroke="#000000" points="521.5001,-636.8569 518,-626.8569 514.5001,-636.8569 521.5001,-636.8569"/>
</g>
<!-- ndMotorState&#45;&gt;ndPwmMotor -->
<g id="edge8" class="edge">
<title>ndMotorState&#45;&gt;ndPwmMotor</title>
<path fill="none" stroke="#000000" d="M650.1693,-695.5278C647.0965,-694.6518 644.038,-693.8079 641,-693 539.3106,-665.9581 507.8135,-687.1437 407,-657 389.7615,-651.8456 372.1074,-645.5387 354.7252,-638.6489"/>
<polygon fill="#000000" stroke="#000000" points="354.4721,-638.5464 347.4095,-640.0026 343.349,-634.0433 350.4115,-632.5872 354.4721,-638.5464"/>
</g>
<!-- ndMotorState&#45;&gt;ndMotorGroup -->
<g id="edge9" class="edge">
<title>ndMotorState&#45;&gt;ndMotorGroup</title>
<path fill="none" stroke="#000000" d="M805.0469,-693.2791C804.3959,-684.7725 803.7158,-675.8863 803.0298,-666.9224"/>
<polygon fill="#000000" stroke="#000000" points="802.254,-656.7851 807.504,-666.4125 802.6355,-661.7705 803.0171,-666.756 803.0171,-666.756 803.0171,-666.756 802.6355,-661.7705 798.5302,-667.0994 802.254,-656.7851 802.254,-656.7851"/>
</g>
<!-- ndMotorState&#45;&gt;ndTestMotor -->
<g id="edge10" class="edge">
<title>ndMotorState&#45;&gt;ndTestMotor</title>
<path fill="none" stroke="#000000" stroke-dasharray="5,2" d="M941.4767,-693.415C981.6009,-673.7048 1025.8954,-651.9461 1066.7021,-631.9007"/>
<polygon fill="#000000" stroke="#000000" points="1066.7821,-631.8615 1070.4038,-625.6258 1077.5528,-626.5706 1073.9311,-632.8062 1066.7821,-631.8615"/>
</g>
<!-- ndMotorState&#45;&gt;ndPrintMotor -->
<g id="edge11" class="edge">
<title>ndMotorState&#45;&gt;ndPrintMotor</title>
<path fill="none" stroke="#000000" d="M685.5368,-693.4356C665.8684,-681.9585 646.0741,-669.6188 628,-657 617.4482,-649.6331 606.7349,-641.431 596.3433,-633.019"/>
<polygon fill="#000000" stroke="#000000" points="588.4675,-626.5557 599.0525,-629.4209 592.3326,-629.7276 596.1977,-632.8996 596.1977,-632.8996 596.1977,-632.8996 592.3326,-629.7276 593.343,-636.3782 588.4675,-626.5557 588.4675,-626.5557"/>
</g>
<!-- ndMotorState&#45;&gt;ndDriveTrain -->
<g id="edge12" class="edge">
<title>ndMotorState&#45;&gt;ndDriveTrain</title>
<path fill="none" stroke="#000000" d="M969.508,-743.834C1150.4556,-726.1179 1424.6546,-693.6269 1456,-657 1510.9061,-592.8425 1493.3447,-542.738 1456,-467 1451.1094,-457.0814 1445.236,-447.6255 1438.6215,-438.6375"/>
<polygon fill="#000000" stroke="#000000" points="1432.3455,-430.5149 1442.0206,-435.6767 1435.4026,-434.4715 1438.4597,-438.428 1438.4597,-438.428 1438.4597,-438.428 1435.4026,-434.4715 1434.8988,-441.1794 1432.3455,-430.5149 1432.3455,-430.5149"/>
</g>
<!-- ndSensor -->
<g id="node9" class="node">
<title>ndSensor</title>
<polygon fill="none" stroke="#000000" points="1769,-889.5 1769,-950.5 1861,-950.5 1861,-889.5 1769,-889.5"/>
<text text-anchor="middle" x="1815" y="-935.3" font-family="Times,serif" font-size="14.00" fill="#000000">&lt;&lt;&lt;Trait&gt;&gt;&gt;</text>
<text text-anchor="middle" x="1815" y="-920.3" font-family="Times,serif" font-size="14.00" fill="#000000">Sensor</text>
<polyline fill="none" stroke="#000000" points="1769,-912.5 1861,-912.5 "/>
<text text-anchor="middle" x="1815" y="-897.3" font-family="Times,serif" font-size="14.00" fill="#000000"> </text>
</g>
<!-- ndTestEnvironment -->
<g id="node10" class="node">
<title>ndTestEnvironment</title>
<polygon fill="none" stroke="#000000" points="1619.5,-260.5 1619.5,-366.5 1906.5,-366.5 1906.5,-260.5 1619.5,-260.5"/>
<text text-anchor="middle" x="1763" y="-351.3" font-family="Times,serif" font-size="14.00" fill="#000000">&lt;&lt;&lt;Structure&gt;&gt;&gt;</text>
<text text-anchor="middle" x="1763" y="-336.3" font-family="Times,serif" font-size="14.00" fill="#000000">TestEnvironment</text>
<polyline fill="none" stroke="#000000" points="1619.5,-328.5 1906.5,-328.5 "/>
<text text-anchor="middle" x="1763" y="-313.3" font-family="Times,serif" font-size="14.00" fill="#000000">&#45; receiver: Receiver&lt;RobotControllerCommand&gt;</text>
<text text-anchor="middle" x="1763" y="-298.3" font-family="Times,serif" font-size="14.00" fill="#000000">&#45; sender: ServerSender</text>
<text text-anchor="middle" x="1763" y="-283.3" font-family="Times,serif" font-size="14.00" fill="#000000">&#45; client: Client</text>
<text text-anchor="middle" x="1763" y="-268.3" font-family="Times,serif" font-size="14.00" fill="#000000">&#45; status: Arc&lt;RwLock&lt;RobotLifeStatus&gt;&gt;</text>
</g>
<!-- ndSendableMessage -->
<g id="node11" class="node">
<title>ndSendableMessage</title>
<polygon fill="none" stroke="#000000" points="1601,-889.5 1601,-950.5 1751,-950.5 1751,-889.5 1601,-889.5"/>
<text text-anchor="middle" x="1676" y="-935.3" font-family="Times,serif" font-size="14.00" fill="#000000">&lt;&lt;&lt;Trait&gt;&gt;&gt;</text>
<text text-anchor="middle" x="1676" y="-920.3" font-family="Times,serif" font-size="14.00" fill="#000000">SendableMessage</text>
<polyline fill="none" stroke="#000000" points="1601,-912.5 1751,-912.5 "/>
<text text-anchor="middle" x="1676" y="-897.3" font-family="Times,serif" font-size="14.00" fill="#000000">encode(&amp;Self) &#45;&gt; String</text>
</g>
<!-- ndSendableMessage&#45;&gt;ndMotorState -->
<g id="edge13" class="edge">
<title>ndSendableMessage&#45;&gt;ndMotorState</title>
<path fill="none" stroke="#000000" stroke-dasharray="5,2" d="M1600.6631,-905.907C1463.0074,-880.1561 1167.7199,-824.9176 979.538,-789.715"/>
<polygon fill="none" stroke="#000000" points="980.0143,-786.2434 969.5412,-787.8449 978.7271,-793.1241 980.0143,-786.2434"/>
</g>
<!-- ndServerSender -->
<g id="node12" class="node">
<title>ndServerSender</title>
<polygon fill="none" stroke="#000000" points="1504,-512.5 1504,-611.5 1848,-611.5 1848,-512.5 1504,-512.5"/>
<text text-anchor="middle" x="1676" y="-596.3" font-family="Times,serif" font-size="14.00" fill="#000000">&lt;&lt;&lt;Structure&gt;&gt;&gt;</text>
<text text-anchor="middle" x="1676" y="-581.3" font-family="Times,serif" font-size="14.00" fill="#000000">ServerSender</text>
<polyline fill="none" stroke="#000000" points="1504,-573.5 1848,-573.5 "/>
<text text-anchor="middle" x="1676" y="-558.3" font-family="Times,serif" font-size="14.00" fill="#000000">&#45; channel: Sender&lt;Box&lt;SendableMessage&gt;&gt;</text>
<polyline fill="none" stroke="#000000" points="1504,-550.5 1848,-550.5 "/>
<text text-anchor="middle" x="1676" y="-535.3" font-family="Times,serif" font-size="14.00" fill="#000000">+ send_message(&amp;self, message: Box&lt;SendableMessage&gt;)</text>
<text text-anchor="middle" x="1676" y="-520.3" font-family="Times,serif" font-size="14.00" fill="#000000">&#45; new(channel: Sender&lt;Box&lt;SendableMessage&gt;&gt;) &#45;&gt; Self</text>
</g>
<!-- ndSendableMessage&#45;&gt;ndServerSender -->
<g id="edge14" class="edge">
<title>ndSendableMessage&#45;&gt;ndServerSender</title>
<path fill="none" stroke="#000000" d="M1676,-889.4771C1676,-830.8535 1676,-701.4661 1676,-624.0304"/>
<polygon fill="#000000" stroke="#000000" points="1676.0001,-623.602 1672,-617.6021 1676,-611.602 1680,-617.602 1676.0001,-623.602"/>
</g>
<!-- ndServerState -->
<g id="node13" class="node">
<title>ndServerState</title>
<polygon fill="none" stroke="#000000" points="2540.5,-42 2540.5,-118 2869.5,-118 2869.5,-42 2540.5,-42"/>
<text text-anchor="middle" x="2705" y="-102.8" font-family="Times,serif" font-size="14.00" fill="#000000">&lt;&lt;&lt;Structure&gt;&gt;&gt;</text>
<text text-anchor="middle" x="2705" y="-87.8" font-family="Times,serif" font-size="14.00" fill="#000000">ServerState</text>
<polyline fill="none" stroke="#000000" points="2540.5,-80 2869.5,-80 "/>
<text text-anchor="middle" x="2705" y="-64.8" font-family="Times,serif" font-size="14.00" fill="#000000">&#45; receiver: Mutex&lt;Receiver&lt;Box&lt;SendableMessage&gt;&gt;&gt;</text>
<text text-anchor="middle" x="2705" y="-49.8" font-family="Times,serif" font-size="14.00" fill="#000000">&#45; robot_controller: Mutex&lt;RobotView&gt;</text>
</g>
<!-- ndSendableMessage&#45;&gt;ndServerState -->
<g id="edge15" class="edge">
<title>ndSendableMessage&#45;&gt;ndServerState</title>
<path fill="none" stroke="#000000" d="M1708.5372,-889.4853C1723.1415,-877.7163 1741.2827,-865.5348 1760,-859 1846.4165,-828.8292 2507.5931,-874.8834 2583,-823 2739.4457,-715.3581 2714.4175,-616.9393 2753,-431 2774.2203,-328.734 2773.3577,-298.4412 2753,-196 2748.4868,-173.2891 2739.4527,-149.4501 2730.4274,-129.3307"/>
<polygon fill="#000000" stroke="#000000" points="2730.3425,-129.1475 2724.1903,-125.3858 2725.2964,-118.26 2731.4486,-122.0217 2730.3425,-129.1475"/>
</g>
<!-- ndServerSender&#45;&gt;ndTestEnvironment -->
<g id="edge16" class="edge">
<title>ndServerSender&#45;&gt;ndTestEnvironment</title>
<path fill="none" stroke="#000000" d="M1693.3967,-512.3096C1706.9038,-473.7287 1725.7394,-419.9283 1740.4108,-378.0221"/>
<polygon fill="#000000" stroke="#000000" points="1740.4652,-377.8663 1738.6726,-370.8816 1744.4305,-366.5404 1746.2232,-373.5251 1740.4652,-377.8663"/>
</g>
<!-- ndRobotController -->
<g id="node18" class="node">
<title>ndRobotController</title>
<polygon fill="none" stroke="#000000" points="1428,-.5 1428,-159.5 2442,-159.5 2442,-.5 1428,-.5"/>
<text text-anchor="middle" x="1935" y="-144.3" font-family="Times,serif" font-size="14.00" fill="#000000">&lt;&lt;&lt;Structure&gt;&gt;&gt;</text>
<text text-anchor="middle" x="1935" y="-129.3" font-family="Times,serif" font-size="14.00" fill="#000000">RobotController</text>
<polyline fill="none" stroke="#000000" points="1428,-121.5 2442,-121.5 "/>
<text text-anchor="middle" x="1935" y="-106.3" font-family="Times,serif" font-size="14.00" fill="#000000">&#45; driver_station_view: ServerSender</text>
<text text-anchor="middle" x="1935" y="-91.3" font-family="Times,serif" font-size="14.00" fill="#000000">&#45; command_receiver: Receiver&lt;RobotControllerCommand&gt;</text>
<text text-anchor="middle" x="1935" y="-76.3" font-family="Times,serif" font-size="14.00" fill="#000000">&#45; drive_train: DriveTrain</text>
<text text-anchor="middle" x="1935" y="-61.3" font-family="Times,serif" font-size="14.00" fill="#000000">&#45; life_status: Arc&lt;RwLock&lt;RobotLifeStatus&gt;&gt;</text>
<polyline fill="none" stroke="#000000" points="1428,-53.5 2442,-53.5 "/>
<text text-anchor="middle" x="1935" y="-38.3" font-family="Times,serif" font-size="14.00" fill="#000000">+ new(driver_station_view: ServerSender, command_receiver: Receiver&lt;RobotControllerCommand&gt;, drive_train: DriveTrain, life_status: Arc&lt;RwLock&lt;RobotLifeStatus&gt;&gt;) &#45;&gt; Self</text>
<text text-anchor="middle" x="1935" y="-23.3" font-family="Times,serif" font-size="14.00" fill="#000000">&#45; handle_message(&amp;mut self, message: RobotControllerCommand)</text>
<text text-anchor="middle" x="1935" y="-8.3" font-family="Times,serif" font-size="14.00" fill="#000000">&#45; process_states(&amp;mut self)</text>
</g>
<!-- ndServerSender&#45;&gt;ndRobotController -->
<g id="edge17" class="edge">
<title>ndServerSender&#45;&gt;ndRobotController</title>
<path fill="none" stroke="#000000" stroke-dasharray="5,2" d="M1645.8438,-512.3218C1604.389,-436.9133 1542.2056,-292.1807 1610,-196 1617.4991,-185.361 1631.8161,-174.9915 1650.4204,-165.1067"/>
<polygon fill="#000000" stroke="#000000" points="1650.4719,-165.0807 1654.0217,-158.8038 1661.1811,-159.6663 1657.6313,-165.9432 1650.4719,-165.0807"/>
</g>
<!-- ndDrive -->
<g id="node14" class="node">
<title>ndDrive</title>
<polygon fill="none" stroke="#000000" points="1879,-901 1879,-939 1995,-939 1995,-901 1879,-901"/>
<text text-anchor="middle" x="1937" y="-923.8" font-family="Times,serif" font-size="14.00" fill="#000000">&lt;&lt;&lt;Structure&gt;&gt;&gt;</text>
<text text-anchor="middle" x="1937" y="-908.8" font-family="Times,serif" font-size="14.00" fill="#000000">Drive</text>
</g>
<!-- ndRunnable -->
<g id="node15" class="node">
<title>ndRunnable</title>
<polygon fill="none" stroke="#000000" points="1963,-283 1963,-344 2055,-344 2055,-283 1963,-283"/>
<text text-anchor="middle" x="2009" y="-328.8" font-family="Times,serif" font-size="14.00" fill="#000000">&lt;&lt;&lt;Trait&gt;&gt;&gt;</text>
<text text-anchor="middle" x="2009" y="-313.8" font-family="Times,serif" font-size="14.00" fill="#000000">Runnable</text>
<polyline fill="none" stroke="#000000" points="1963,-306 2055,-306 "/>
<text text-anchor="middle" x="2009" y="-290.8" font-family="Times,serif" font-size="14.00" fill="#000000"> </text>
</g>
<!-- ndRunnable&#45;&gt;ndRobotController -->
<g id="edge18" class="edge">
<title>ndRunnable&#45;&gt;ndRobotController</title>
<path fill="none" stroke="#000000" stroke-dasharray="5,2" d="M1999.3258,-282.974C1990.1678,-254.0768 1975.9636,-209.2566 1963.2299,-169.0767"/>
<polygon fill="none" stroke="#000000" points="1966.5567,-167.9886 1960.1991,-159.5133 1959.8838,-170.1034 1966.5567,-167.9886"/>
</g>
<!-- ndMotorID -->
<g id="node16" class="node">
<title>ndMotorID</title>
<polygon fill="none" stroke="#000000" points="447.5,-859.5 447.5,-980.5 584.5,-980.5 584.5,-859.5 447.5,-859.5"/>
<text text-anchor="middle" x="516" y="-965.3" font-family="Times,serif" font-size="14.00" fill="#000000">&lt;&lt;&lt;Enumeration&gt;&gt;&gt;</text>
<text text-anchor="middle" x="516" y="-950.3" font-family="Times,serif" font-size="14.00" fill="#000000">MotorID</text>
<polyline fill="none" stroke="#000000" points="447.5,-942.5 584.5,-942.5 "/>
<text text-anchor="middle" x="516" y="-927.3" font-family="Times,serif" font-size="14.00" fill="#000000">DriveTrainFrontLeft</text>
<text text-anchor="middle" x="516" y="-912.3" font-family="Times,serif" font-size="14.00" fill="#000000">DriveTrainFrontRight</text>
<text text-anchor="middle" x="516" y="-897.3" font-family="Times,serif" font-size="14.00" fill="#000000">DriveTrainRearLeft</text>
<text text-anchor="middle" x="516" y="-882.3" font-family="Times,serif" font-size="14.00" fill="#000000">DriveTrainRearRight</text>
<text text-anchor="middle" x="516" y="-867.3" font-family="Times,serif" font-size="14.00" fill="#000000">Null</text>
</g>
<!-- ndMotorID&#45;&gt;ndPwmMotor -->
<g id="edge19" class="edge">
<title>ndMotorID&#45;&gt;ndPwmMotor</title>
<path fill="none" stroke="#000000" stroke-dasharray="5,2" d="M447.4759,-869.9805C429.6135,-855.6514 410.9243,-839.4362 395,-823 341.5651,-767.8475 289.7793,-697.9481 252.8703,-644.3696"/>
<polygon fill="#000000" stroke="#000000" points="252.7021,-644.1238 246.0119,-641.4326 245.923,-634.2221 252.6131,-636.9133 252.7021,-644.1238"/>
</g>
<!-- ndMotorID&#45;&gt;ndMotorState -->
<g id="edge20" class="edge">
<title>ndMotorID&#45;&gt;ndMotorState</title>
<path fill="none" stroke="#000000" stroke-dasharray="5,2" d="M584.5589,-882.2227C613.6492,-866.1933 648.5356,-846.9702 682.0746,-828.4895"/>
<polygon fill="#000000" stroke="#000000" points="682.3974,-828.3117 685.722,-821.9127 692.9075,-822.5204 689.5829,-828.9194 682.3974,-828.3117"/>
</g>
<!-- ndDriveTrain&#45;&gt;ndRobotController -->
<g id="edge21" class="edge">
<title>ndDriveTrain&#45;&gt;ndRobotController</title>
<path fill="none" stroke="#000000" stroke-dasharray="5,2" d="M1563.0166,-200.8435C1567.7081,-199.2118 1572.3716,-197.5963 1577,-196 1608.216,-185.2337 1641.0601,-174.1971 1673.6727,-163.4167"/>
<polygon fill="#000000" stroke="#000000" points="1673.7996,-163.3749 1678.2443,-157.6964 1685.1955,-159.6151 1680.7508,-165.2936 1673.7996,-163.3749"/>
</g>
<!-- ndRobotLifeStatus -->
<g id="node19" class="node">
<title>ndRobotLifeStatus</title>
<polygon fill="none" stroke="#000000" points="1866.5,-524 1866.5,-600 2003.5,-600 2003.5,-524 1866.5,-524"/>
<text text-anchor="middle" x="1935" y="-584.8" font-family="Times,serif" font-size="14.00" fill="#000000">&lt;&lt;&lt;Enumeration&gt;&gt;&gt;</text>
<text text-anchor="middle" x="1935" y="-569.8" font-family="Times,serif" font-size="14.00" fill="#000000">RobotLifeStatus</text>
<polyline fill="none" stroke="#000000" points="1866.5,-562 2003.5,-562 "/>
<text text-anchor="middle" x="1935" y="-546.8" font-family="Times,serif" font-size="14.00" fill="#000000">Alive</text>
<text text-anchor="middle" x="1935" y="-531.8" font-family="Times,serif" font-size="14.00" fill="#000000">Dead</text>
</g>
<!-- ndRobotLifeStatus&#45;&gt;ndTestEnvironment -->
<g id="edge22" class="edge">
<title>ndRobotLifeStatus&#45;&gt;ndTestEnvironment</title>
<path fill="none" stroke="#000000" d="M1908.6897,-523.9877C1881.5987,-484.8475 1838.9143,-423.1785 1806.736,-376.6884"/>
<polygon fill="#000000" stroke="#000000" points="1806.6623,-376.5818 1799.9585,-373.9248 1799.8328,-366.7148 1806.5365,-369.3718 1806.6623,-376.5818"/>
</g>
<!-- ndRobotLifeStatus&#45;&gt;ndDriveTrain -->
<g id="edge23" class="edge">
<title>ndRobotLifeStatus&#45;&gt;ndDriveTrain</title>
<path fill="none" stroke="#000000" d="M1913.1992,-523.6149C1899.6748,-503.4412 1880.4135,-480.221 1857,-467 1760.3994,-412.4521 1717.95,-456.5725 1610,-431 1598.4216,-428.2572 1586.6816,-425.3027 1574.8628,-422.1812"/>
<polygon fill="#000000" stroke="#000000" points="1574.6112,-422.1138 1567.7799,-424.4232 1563.0207,-419.0056 1569.852,-416.6962 1574.6112,-422.1138"/>
</g>
<!-- ndRobotLifeStatus&#45;&gt;ndRobotController -->
<g id="edge24" class="edge">
<title>ndRobotLifeStatus&#45;&gt;ndRobotController</title>
<path fill="none" stroke="#000000" d="M1935,-523.7754C1935,-448.2761 1935,-278.1445 1935,-171.8347"/>
<polygon fill="#000000" stroke="#000000" points="1935.0001,-171.517 1931,-165.5171 1935,-159.517 1939,-165.517 1935.0001,-171.517"/>
</g>
<!-- ndRobotView -->
<g id="node21" class="node">
<title>ndRobotView</title>
<polygon fill="none" stroke="#000000" points="2073,-204 2073,-423 2719,-423 2719,-204 2073,-204"/>
<text text-anchor="middle" x="2396" y="-407.8" font-family="Times,serif" font-size="14.00" fill="#000000">&lt;&lt;&lt;Structure&gt;&gt;&gt;</text>
<text text-anchor="middle" x="2396" y="-392.8" font-family="Times,serif" font-size="14.00" fill="#000000">RobotView</text>
<polyline fill="none" stroke="#000000" points="2073,-385 2719,-385 "/>
<text text-anchor="middle" x="2396" y="-369.8" font-family="Times,serif" font-size="14.00" fill="#000000">&#45; channel: Sender&lt;RobotControllerCommand&gt;</text>
<text text-anchor="middle" x="2396" y="-354.8" font-family="Times,serif" font-size="14.00" fill="#000000">&#45; robot_life_status: Arc&lt;RwLock&lt;RobotLifeStatus&gt;&gt;</text>
<polyline fill="none" stroke="#000000" points="2073,-347 2719,-347 "/>
<text text-anchor="middle" x="2396" y="-331.8" font-family="Times,serif" font-size="14.00" fill="#000000">+ new(channel: Sender&lt;RobotControllerCommand&gt;, robot_life_status: Arc&lt;RwLock&lt;RobotLifeStatus&gt;&gt;) &#45;&gt; Self</text>
<text text-anchor="middle" x="2396" y="-316.8" font-family="Times,serif" font-size="14.00" fill="#000000">+ revive(&amp;self) &#45;&gt; Result&lt;(), ()&gt;</text>
<text text-anchor="middle" x="2396" y="-301.8" font-family="Times,serif" font-size="14.00" fill="#000000">+ kill(&amp;self) &#45;&gt; Result&lt;(), ()&gt;</text>
<text text-anchor="middle" x="2396" y="-286.8" font-family="Times,serif" font-size="14.00" fill="#000000">+ drive(&amp;self, left: f32, right: f32) &#45;&gt; Result&lt;(), ()&gt;</text>
<text text-anchor="middle" x="2396" y="-271.8" font-family="Times,serif" font-size="14.00" fill="#000000">+ brake(&amp;self)</text>
<text text-anchor="middle" x="2396" y="-256.8" font-family="Times,serif" font-size="14.00" fill="#000000">+ enable_drive_train(&amp;self)</text>
<text text-anchor="middle" x="2396" y="-241.8" font-family="Times,serif" font-size="14.00" fill="#000000">+ disable_drive_train(&amp;self)</text>
<text text-anchor="middle" x="2396" y="-226.8" font-family="Times,serif" font-size="14.00" fill="#000000">&#45; send_command(&amp;self, command: RobotControllerCommand)</text>
<text text-anchor="middle" x="2396" y="-211.8" font-family="Times,serif" font-size="14.00" fill="#000000">&#45; change_life_status(&amp;self, status: RobotLifeStatus) &#45;&gt; Result&lt;(), ()&gt;</text>
</g>
<!-- ndRobotLifeStatus&#45;&gt;ndRobotView -->
<g id="edge25" class="edge">
<title>ndRobotLifeStatus&#45;&gt;ndRobotView</title>
<path fill="none" stroke="#000000" stroke-dasharray="5,2" d="M2003.5186,-525.0654C2051.1562,-499.3865 2117.4586,-463.6465 2182.0232,-428.8433"/>
<polygon fill="#000000" stroke="#000000" points="2182.2233,-428.7354 2185.6069,-422.3674 2192.7864,-423.0414 2189.4029,-429.4094 2182.2233,-428.7354"/>
</g>
<!-- ndRobotControllerCommand -->
<g id="node20" class="node">
<title>ndRobotControllerCommand</title>
<polygon fill="none" stroke="#000000" points="2299.5,-509 2299.5,-615 2492.5,-615 2492.5,-509 2299.5,-509"/>
<text text-anchor="middle" x="2396" y="-599.8" font-family="Times,serif" font-size="14.00" fill="#000000">&lt;&lt;&lt;Enumeration&gt;&gt;&gt;</text>
<text text-anchor="middle" x="2396" y="-584.8" font-family="Times,serif" font-size="14.00" fill="#000000">RobotControllerCommand</text>
<polyline fill="none" stroke="#000000" points="2299.5,-577 2492.5,-577 "/>
<text text-anchor="middle" x="2396" y="-561.8" font-family="Times,serif" font-size="14.00" fill="#000000">Drive(DriveCommandMessage)</text>
<text text-anchor="middle" x="2396" y="-546.8" font-family="Times,serif" font-size="14.00" fill="#000000">Brake</text>
<text text-anchor="middle" x="2396" y="-531.8" font-family="Times,serif" font-size="14.00" fill="#000000">Enable</text>
<text text-anchor="middle" x="2396" y="-516.8" font-family="Times,serif" font-size="14.00" fill="#000000">Disable</text>
</g>
<!-- ndRobotControllerCommand&#45;&gt;ndTestEnvironment -->
<g id="edge26" class="edge">
<title>ndRobotControllerCommand&#45;&gt;ndTestEnvironment</title>
<path fill="none" stroke="#000000" d="M2299.4269,-541.1519C2208.0966,-519.6439 2068.3786,-482.0537 1954,-431 1918.2315,-415.0344 1881.0762,-393.4693 1849.149,-373.172"/>
<polygon fill="#000000" stroke="#000000" points="1849.0709,-373.1218 1841.8608,-373.2437 1838.9751,-366.6352 1846.1852,-366.5132 1849.0709,-373.1218"/>
</g>
<!-- ndRobotControllerCommand&#45;&gt;ndRobotController -->
<g id="edge27" class="edge">
<title>ndRobotControllerCommand&#45;&gt;ndRobotController</title>
<path fill="none" stroke="#000000" stroke-dasharray="5,2" d="M2492.6024,-536.898C2580.4504,-511.8858 2700.4617,-471.4706 2728,-431 2757.3784,-387.8252 2762.1499,-235.5088 2728,-196 2722.3248,-189.4342 2600.5621,-170.359 2454.0839,-149.5254"/>
<polygon fill="#000000" stroke="#000000" points="2454.0118,-149.5153 2447.5093,-152.6325 2442.1309,-147.8292 2448.6334,-144.7119 2454.0118,-149.5153"/>
</g>
<!-- ndRobotControllerCommand&#45;&gt;ndRobotView -->
<g id="edge28" class="edge">
<title>ndRobotControllerCommand&#45;&gt;ndRobotView</title>
<path fill="none" stroke="#000000" stroke-dasharray="5,2" d="M2396,-508.9953C2396,-487.3378 2396,-461.3183 2396,-435.433"/>
<polygon fill="#000000" stroke="#000000" points="2396.0001,-435.1625 2392,-429.1626 2396,-423.1625 2400,-429.1625 2396.0001,-435.1625"/>
</g>
<!-- ndRobotView&#45;&gt;ndServerState -->
<g id="edge29" class="edge">
<title>ndRobotView&#45;&gt;ndServerState</title>
<path fill="none" stroke="#000000" d="M2541,-203.9288C2577.6282,-176.2502 2614.9711,-148.0315 2644.7524,-125.5269"/>
<polygon fill="#000000" stroke="#000000" points="2644.9763,-125.3577 2647.3517,-118.5491 2654.5502,-118.123 2652.1748,-124.9317 2644.9763,-125.3577"/>
</g>
<!-- ndDriveCommandMessage -->
<g id="node22" class="node">
<title>ndDriveCommandMessage</title>
<polygon fill="none" stroke="#000000" points="2218,-693.5 2218,-822.5 2574,-822.5 2574,-693.5 2218,-693.5"/>
<text text-anchor="middle" x="2396" y="-807.3" font-family="Times,serif" font-size="14.00" fill="#000000">&lt;&lt;&lt;Structure&gt;&gt;&gt;</text>
<text text-anchor="middle" x="2396" y="-792.3" font-family="Times,serif" font-size="14.00" fill="#000000">DriveCommandMessage</text>
<polyline fill="none" stroke="#000000" points="2218,-784.5 2574,-784.5 "/>
<text text-anchor="middle" x="2396" y="-769.3" font-family="Times,serif" font-size="14.00" fill="#000000">&#45; left_speed: f32</text>
<text text-anchor="middle" x="2396" y="-754.3" font-family="Times,serif" font-size="14.00" fill="#000000">&#45; right_speed: f32</text>
<polyline fill="none" stroke="#000000" points="2218,-746.5 2574,-746.5 "/>
<text text-anchor="middle" x="2396" y="-731.3" font-family="Times,serif" font-size="14.00" fill="#000000">+ create(left_speed: f32, right_speed: f32) &#45;&gt; Result&lt;Self, ()&gt;</text>
<text text-anchor="middle" x="2396" y="-716.3" font-family="Times,serif" font-size="14.00" fill="#000000">+ get_left_speed(&amp;self) &#45;&gt; f32</text>
<text text-anchor="middle" x="2396" y="-701.3" font-family="Times,serif" font-size="14.00" fill="#000000">+ get_right_speed(&amp;self) &#45;&gt; f32</text>
</g>
<!-- ndDriveCommandMessage&#45;&gt;ndRobotControllerCommand -->
<g id="edge30" class="edge">
<title>ndDriveCommandMessage&#45;&gt;ndRobotControllerCommand</title>
<path fill="none" stroke="#000000" d="M2396,-693.2791C2396,-672.1202 2396,-648.6127 2396,-627.4038"/>
<polygon fill="#000000" stroke="#000000" points="2396.0001,-627.2171 2392,-621.2172 2396,-615.2171 2400,-621.2171 2396.0001,-627.2171"/>
</g>
</g>
</svg>
