<?xml version="1.0" encoding="UTF-8" standalone="no"?>
<!DOCTYPE svg PUBLIC "-//W3C//DTD SVG 1.1//EN"
 "http://www.w3.org/Graphics/SVG/1.1/DTD/svg11.dtd">
<!-- Generated by graphviz version 2.40.1 (20161225.0304)
 -->
<!-- Title: ml Pages: 1 -->
<svg width="2688pt" height="944pt"
 viewBox="0.00 0.00 2688.00 944.00" xmlns="http://www.w3.org/2000/svg" xmlns:xlink="http://www.w3.org/1999/xlink">
<g id="graph0" class="graph" transform="scale(1 1) rotate(0) translate(4 940)">
<title>ml</title>
<polygon fill="#ffffff" stroke="transparent" points="-4,4 -4,-940 2684,-940 2684,4 -4,4"/>
<!-- ndPwmMotor -->
<g id="node1" class="node">
<title>ndPwmMotor</title>
<polygon fill="none" stroke="#000000" points="0,-460 0,-589 398,-589 398,-460 0,-460"/>
<text text-anchor="middle" x="199" y="-573.8" font-family="Times,serif" font-size="14.00" fill="#000000">&lt;&lt;&lt;Structure&gt;&gt;&gt;</text>
<text text-anchor="middle" x="199" y="-558.8" font-family="Times,serif" font-size="14.00" fill="#000000">PwmMotor</text>
<polyline fill="none" stroke="#000000" points="0,-551 398,-551 "/>
<text text-anchor="middle" x="199" y="-535.8" font-family="Times,serif" font-size="14.00" fill="#000000">&#45; is_inverted: bool</text>
<text text-anchor="middle" x="199" y="-520.8" font-family="Times,serif" font-size="14.00" fill="#000000">&#45; id: MotorID</text>
<text text-anchor="middle" x="199" y="-505.8" font-family="Times,serif" font-size="14.00" fill="#000000">&#45; pwm: Pwm</text>
<text text-anchor="middle" x="199" y="-490.8" font-family="Times,serif" font-size="14.00" fill="#000000">&#45; direction: Pin</text>
<polyline fill="none" stroke="#000000" points="0,-483 398,-483 "/>
<text text-anchor="middle" x="199" y="-467.8" font-family="Times,serif" font-size="14.00" fill="#000000">+ create(pwm: Pwm, direction: Pin, id: MotorID) &#45;&gt; Result&lt;Self, ()&gt;</text>
</g>
<!-- ndTestMotorGroup -->
<g id="node2" class="node">
<title>ndTestMotorGroup</title>
<polygon fill="none" stroke="#000000" points="739,-230.5 739,-321.5 943,-321.5 943,-230.5 739,-230.5"/>
<text text-anchor="middle" x="841" y="-306.3" font-family="Times,serif" font-size="14.00" fill="#000000">&lt;&lt;&lt;Structure&gt;&gt;&gt;</text>
<text text-anchor="middle" x="841" y="-291.3" font-family="Times,serif" font-size="14.00" fill="#000000">TestMotorGroup</text>
<polyline fill="none" stroke="#000000" points="739,-283.5 943,-283.5 "/>
<text text-anchor="middle" x="841" y="-268.3" font-family="Times,serif" font-size="14.00" fill="#000000">+ inverted: Arc&lt;RwLock&lt;bool&gt;&gt;</text>
<text text-anchor="middle" x="841" y="-253.3" font-family="Times,serif" font-size="14.00" fill="#000000">+ speed: Arc&lt;RwLock&lt;f32&gt;&gt;</text>
<text text-anchor="middle" x="841" y="-238.3" font-family="Times,serif" font-size="14.00" fill="#000000">+ motor_group: MotorGroup</text>
</g>
<!-- ndMotorGroup -->
<g id="node3" class="node">
<title>ndMotorGroup</title>
<polygon fill="none" stroke="#000000" points="637.5,-422.5 637.5,-626.5 1076.5,-626.5 1076.5,-422.5 637.5,-422.5"/>
<text text-anchor="middle" x="857" y="-611.3" font-family="Times,serif" font-size="14.00" fill="#000000">&lt;&lt;&lt;Structure&gt;&gt;&gt;</text>
<text text-anchor="middle" x="857" y="-596.3" font-family="Times,serif" font-size="14.00" fill="#000000">MotorGroup</text>
<polyline fill="none" stroke="#000000" points="637.5,-588.5 1076.5,-588.5 "/>
<text text-anchor="middle" x="857" y="-573.3" font-family="Times,serif" font-size="14.00" fill="#000000">&#45; is_inverted: bool</text>
<text text-anchor="middle" x="857" y="-558.3" font-family="Times,serif" font-size="14.00" fill="#000000">&#45; motors: Vec&lt;Box&lt;MotorController&gt;&gt;</text>
<text text-anchor="middle" x="857" y="-543.3" font-family="Times,serif" font-size="14.00" fill="#000000">&#45; old_speed: f32</text>
<polyline fill="none" stroke="#000000" points="637.5,-535.5 1076.5,-535.5 "/>
<text text-anchor="middle" x="857" y="-520.3" font-family="Times,serif" font-size="14.00" fill="#000000">+ new(motors: Vec&lt;Box&lt;MotorController&gt;&gt;) &#45;&gt; Self</text>
<text text-anchor="middle" x="857" y="-505.3" font-family="Times,serif" font-size="14.00" fill="#000000">+ set_speed(&amp;mut self, new_speed: f32) &#45;&gt; Result&lt;(), Vec&lt;MotorFailure&gt;&gt;</text>
<text text-anchor="middle" x="857" y="-490.3" font-family="Times,serif" font-size="14.00" fill="#000000">+ stop(&amp;mut self) &#45;&gt; Result&lt;(), Vec&lt;MotorFailure&gt;&gt;</text>
<text text-anchor="middle" x="857" y="-475.3" font-family="Times,serif" font-size="14.00" fill="#000000">+ invert(&amp;mut self) &#45;&gt; Result&lt;(), Vec&lt;MotorFailure&gt;&gt;</text>
<text text-anchor="middle" x="857" y="-460.3" font-family="Times,serif" font-size="14.00" fill="#000000">+ is_inverted(&amp;self) &#45;&gt; bool</text>
<text text-anchor="middle" x="857" y="-445.3" font-family="Times,serif" font-size="14.00" fill="#000000">+ maintain_last(&amp;mut self) &#45;&gt; Result&lt;(), Vec&lt;MotorFailure&gt;&gt;</text>
<text text-anchor="middle" x="857" y="-430.3" font-family="Times,serif" font-size="14.00" fill="#000000">&#45; run_operation(&amp;mut self, operation: T) &#45;&gt; Result&lt;(), Vec&lt;MotorFailure&gt;&gt;</text>
</g>
<!-- ndMotorGroup&#45;&gt;ndTestMotorGroup -->
<g id="edge1" class="edge">
<title>ndMotorGroup&#45;&gt;ndTestMotorGroup</title>
<path fill="none" stroke="#000000" d="M850.4229,-422.3498C848.4734,-392.0719 846.4075,-359.9848 844.7084,-333.5958"/>
<polygon fill="#000000" stroke="#000000" points="844.7018,-333.4918 840.3245,-327.7612 843.9306,-321.5166 848.3079,-327.2472 844.7018,-333.4918"/>
</g>
<!-- ndDriveTrain -->
<g id="node16" class="node">
<title>ndDriveTrain</title>
<polygon fill="none" stroke="#000000" points="961,-166.5 961,-385.5 1575,-385.5 1575,-166.5 961,-166.5"/>
<text text-anchor="middle" x="1268" y="-370.3" font-family="Times,serif" font-size="14.00" fill="#000000">&lt;&lt;&lt;Structure&gt;&gt;&gt;</text>
<text text-anchor="middle" x="1268" y="-355.3" font-family="Times,serif" font-size="14.00" fill="#000000">DriveTrain</text>
<polyline fill="none" stroke="#000000" points="961,-347.5 1575,-347.5 "/>
<text text-anchor="middle" x="1268" y="-332.3" font-family="Times,serif" font-size="14.00" fill="#000000">&#45; is_enabled: bool</text>
<text text-anchor="middle" x="1268" y="-317.3" font-family="Times,serif" font-size="14.00" fill="#000000">&#45; left: MotorGroup</text>
<text text-anchor="middle" x="1268" y="-302.3" font-family="Times,serif" font-size="14.00" fill="#000000">&#45; right: MotorGroup</text>
<text text-anchor="middle" x="1268" y="-287.3" font-family="Times,serif" font-size="14.00" fill="#000000">&#45; robot_status: Arc&lt;RwLock&lt;RobotLifeStatus&gt;&gt;</text>
<polyline fill="none" stroke="#000000" points="961,-279.5 1575,-279.5 "/>
<text text-anchor="middle" x="1268" y="-264.3" font-family="Times,serif" font-size="14.00" fill="#000000">+ new(left: MotorGroup, right: MotorGroup, robot_status: Arc&lt;RwLock&lt;RobotLifeStatus&gt;&gt;) &#45;&gt; DriveTrain</text>
<text text-anchor="middle" x="1268" y="-249.3" font-family="Times,serif" font-size="14.00" fill="#000000">+ run_cycle(&amp;mut self) &#45;&gt; Result&lt;(), Vec&lt;MotorFailure&gt;&gt;</text>
<text text-anchor="middle" x="1268" y="-234.3" font-family="Times,serif" font-size="14.00" fill="#000000">+ drive(&amp;mut self, left_speed: f32, right_speed: f32) &#45;&gt; Result&lt;(), Vec&lt;MotorFailure&gt;&gt;</text>
<text text-anchor="middle" x="1268" y="-219.3" font-family="Times,serif" font-size="14.00" fill="#000000">+ brake(&amp;mut self) &#45;&gt; Result&lt;(), Vec&lt;MotorFailure&gt;&gt;</text>
<text text-anchor="middle" x="1268" y="-204.3" font-family="Times,serif" font-size="14.00" fill="#000000">+ enable(&amp;mut self)</text>
<text text-anchor="middle" x="1268" y="-189.3" font-family="Times,serif" font-size="14.00" fill="#000000">+ disable(&amp;mut self) &#45;&gt; Result&lt;(), Vec&lt;MotorFailure&gt;&gt;</text>
<text text-anchor="middle" x="1268" y="-174.3" font-family="Times,serif" font-size="14.00" fill="#000000">&#45; maintain_last(&amp;mut self) &#45;&gt; Result&lt;(), Vec&lt;MotorFailure&gt;&gt;</text>
</g>
<!-- ndMotorGroup&#45;&gt;ndDriveTrain -->
<g id="edge2" class="edge">
<title>ndMotorGroup&#45;&gt;ndDriveTrain</title>
<path fill="none" stroke="#000000" stroke-dasharray="5,2" d="M1025.9487,-422.3498C1042.5419,-412.3171 1059.4637,-402.0858 1076.2624,-391.929"/>
<polygon fill="#000000" stroke="#000000" points="1076.433,-391.8258 1079.4978,-385.2984 1086.7019,-385.617 1083.6371,-392.1444 1076.433,-391.8258"/>
</g>
<!-- ndTestMotor -->
<g id="node4" class="node">
<title>ndTestMotor</title>
<polygon fill="none" stroke="#000000" points="1094.5,-475 1094.5,-574 1571.5,-574 1571.5,-475 1094.5,-475"/>
<text text-anchor="middle" x="1333" y="-558.8" font-family="Times,serif" font-size="14.00" fill="#000000">&lt;&lt;&lt;Structure&gt;&gt;&gt;</text>
<text text-anchor="middle" x="1333" y="-543.8" font-family="Times,serif" font-size="14.00" fill="#000000">TestMotor</text>
<polyline fill="none" stroke="#000000" points="1094.5,-536 1571.5,-536 "/>
<text text-anchor="middle" x="1333" y="-520.8" font-family="Times,serif" font-size="14.00" fill="#000000">&#45; inverted: Arc&lt;RwLock&lt;bool&gt;&gt;</text>
<text text-anchor="middle" x="1333" y="-505.8" font-family="Times,serif" font-size="14.00" fill="#000000">&#45; speed: Arc&lt;RwLock&lt;f32&gt;&gt;</text>
<polyline fill="none" stroke="#000000" points="1094.5,-498 1571.5,-498 "/>
<text text-anchor="middle" x="1333" y="-482.8" font-family="Times,serif" font-size="14.00" fill="#000000">+ new(inverted: Arc&lt;RwLock&lt;bool&gt;&gt;, speed: Arc&lt;RwLock&lt;f32&gt;&gt;) &#45;&gt; TestMotor</text>
</g>
<!-- ndPrintMotor -->
<g id="node5" class="node">
<title>ndPrintMotor</title>
<polygon fill="none" stroke="#000000" points="416.5,-467.5 416.5,-581.5 619.5,-581.5 619.5,-467.5 416.5,-467.5"/>
<text text-anchor="middle" x="518" y="-566.3" font-family="Times,serif" font-size="14.00" fill="#000000">&lt;&lt;&lt;Structure&gt;&gt;&gt;</text>
<text text-anchor="middle" x="518" y="-551.3" font-family="Times,serif" font-size="14.00" fill="#000000">PrintMotor</text>
<polyline fill="none" stroke="#000000" points="416.5,-543.5 619.5,-543.5 "/>
<text text-anchor="middle" x="518" y="-528.3" font-family="Times,serif" font-size="14.00" fill="#000000">&#45; name: String</text>
<text text-anchor="middle" x="518" y="-513.3" font-family="Times,serif" font-size="14.00" fill="#000000">&#45; inverted: bool</text>
<text text-anchor="middle" x="518" y="-498.3" font-family="Times,serif" font-size="14.00" fill="#000000">&#45; last: f32</text>
<polyline fill="none" stroke="#000000" points="416.5,-490.5 619.5,-490.5 "/>
<text text-anchor="middle" x="518" y="-475.3" font-family="Times,serif" font-size="14.00" fill="#000000">+ new(name: &amp;str) &#45;&gt; PrintMotor</text>
</g>
<!-- ndMotorFailureKind -->
<g id="node6" class="node">
<title>ndMotorFailureKind</title>
<polygon fill="none" stroke="#000000" points="794.5,-852 794.5,-913 931.5,-913 931.5,-852 794.5,-852"/>
<text text-anchor="middle" x="863" y="-897.8" font-family="Times,serif" font-size="14.00" fill="#000000">&lt;&lt;&lt;Enumeration&gt;&gt;&gt;</text>
<text text-anchor="middle" x="863" y="-882.8" font-family="Times,serif" font-size="14.00" fill="#000000">MotorFailureKind</text>
<polyline fill="none" stroke="#000000" points="794.5,-875 931.5,-875 "/>
<text text-anchor="middle" x="863" y="-859.8" font-family="Times,serif" font-size="14.00" fill="#000000">Unknown</text>
</g>
<!-- ndMotorFailure -->
<g id="node8" class="node">
<title>ndMotorFailure</title>
<polygon fill="none" stroke="#000000" points="698,-663.5 698,-792.5 1028,-792.5 1028,-663.5 698,-663.5"/>
<text text-anchor="middle" x="863" y="-777.3" font-family="Times,serif" font-size="14.00" fill="#000000">&lt;&lt;&lt;Structure&gt;&gt;&gt;</text>
<text text-anchor="middle" x="863" y="-762.3" font-family="Times,serif" font-size="14.00" fill="#000000">MotorFailure</text>
<polyline fill="none" stroke="#000000" points="698,-754.5 1028,-754.5 "/>
<text text-anchor="middle" x="863" y="-739.3" font-family="Times,serif" font-size="14.00" fill="#000000">&#45; motor: MotorID</text>
<text text-anchor="middle" x="863" y="-724.3" font-family="Times,serif" font-size="14.00" fill="#000000">&#45; kind: MotorFailureKind</text>
<polyline fill="none" stroke="#000000" points="698,-716.5 1028,-716.5 "/>
<text text-anchor="middle" x="863" y="-701.3" font-family="Times,serif" font-size="14.00" fill="#000000">+ new(motor: MotorID, kind: MotorFailureKind) &#45;&gt; Self</text>
<text text-anchor="middle" x="863" y="-686.3" font-family="Times,serif" font-size="14.00" fill="#000000">+ get_motor(&amp;self) &#45;&gt; MotorID</text>
<text text-anchor="middle" x="863" y="-671.3" font-family="Times,serif" font-size="14.00" fill="#000000">+ get_kind(&amp;self) &#45;&gt; MotorFailureKind</text>
</g>
<!-- ndMotorFailureKind&#45;&gt;ndMotorFailure -->
<g id="edge3" class="edge">
<title>ndMotorFailureKind&#45;&gt;ndMotorFailure</title>
<path fill="none" stroke="#000000" stroke-dasharray="5,2" d="M863,-851.9758C863,-838.3181 863,-821.5391 863,-804.789"/>
<polygon fill="#000000" stroke="#000000" points="863.0001,-804.6424 859,-798.6425 863,-792.6424 867,-798.6424 863.0001,-804.6424"/>
</g>
<!-- ndMotorController -->
<g id="node7" class="node">
<title>ndMotorController</title>
<polygon fill="none" stroke="#000000" points="356.5,-675 356.5,-781 679.5,-781 679.5,-675 356.5,-675"/>
<text text-anchor="middle" x="518" y="-765.8" font-family="Times,serif" font-size="14.00" fill="#000000">&lt;&lt;&lt;Trait&gt;&gt;&gt;</text>
<text text-anchor="middle" x="518" y="-750.8" font-family="Times,serif" font-size="14.00" fill="#000000">MotorController</text>
<polyline fill="none" stroke="#000000" points="356.5,-743 679.5,-743 "/>
<text text-anchor="middle" x="518" y="-727.8" font-family="Times,serif" font-size="14.00" fill="#000000">set_speed(&amp;mut Self, f32) &#45;&gt; Result&lt;(), MotorFailure&gt;</text>
<text text-anchor="middle" x="518" y="-712.8" font-family="Times,serif" font-size="14.00" fill="#000000">stop(&amp;mut Self) &#45;&gt; Result&lt;(), MotorFailure&gt;</text>
<text text-anchor="middle" x="518" y="-697.8" font-family="Times,serif" font-size="14.00" fill="#000000">invert(&amp;mut Self) &#45;&gt; Result&lt;(), MotorFailure&gt;</text>
<text text-anchor="middle" x="518" y="-682.8" font-family="Times,serif" font-size="14.00" fill="#000000">is_inverted(&amp;Self) &#45;&gt; Result&lt;bool, MotorFailure&gt;</text>
</g>
<!-- ndMotorController&#45;&gt;ndPwmMotor -->
<g id="edge4" class="edge">
<title>ndMotorController&#45;&gt;ndPwmMotor</title>
<path fill="none" stroke="#000000" stroke-dasharray="5,2" d="M434.6032,-674.7986C396.1763,-650.2849 350.0519,-620.8607 308.8407,-594.5708"/>
<polygon fill="none" stroke="#000000" points="310.7102,-591.6119 300.3972,-589.1844 306.9454,-597.5133 310.7102,-591.6119"/>
</g>
<!-- ndMotorController&#45;&gt;ndMotorGroup -->
<g id="edge5" class="edge">
<title>ndMotorController&#45;&gt;ndMotorGroup</title>
<path fill="none" stroke="#000000" d="M606.6255,-674.7986C628.254,-661.8151 652.1772,-647.4541 676.404,-632.9109"/>
<polygon fill="#000000" stroke="#000000" points="676.5112,-632.8466 679.5967,-626.3289 686.7997,-626.6704 683.7142,-633.188 676.5112,-632.8466"/>
</g>
<!-- ndMotorController&#45;&gt;ndTestMotor -->
<g id="edge6" class="edge">
<title>ndMotorController&#45;&gt;ndTestMotor</title>
<path fill="none" stroke="#000000" stroke-dasharray="5,2" d="M646.6261,-674.8732C660.761,-670.3096 675.0745,-666.2159 689,-663 861.1939,-623.2347 913.394,-669.23 1085,-627 1131.782,-615.4876 1181.2367,-596.5503 1223.5711,-578.0654"/>
<polygon fill="none" stroke="#000000" points="1225.0345,-581.2453 1232.7711,-574.0068 1222.2091,-574.8408 1225.0345,-581.2453"/>
</g>
<!-- ndMotorController&#45;&gt;ndPrintMotor -->
<g id="edge7" class="edge">
<title>ndMotorController&#45;&gt;ndPrintMotor</title>
<path fill="none" stroke="#000000" stroke-dasharray="5,2" d="M518,-674.7986C518,-649.4236 518,-618.7871 518,-591.8117"/>
<polygon fill="none" stroke="#000000" points="521.5001,-591.671 518,-581.671 514.5001,-591.671 521.5001,-591.671"/>
</g>
<!-- ndMotorFailure&#45;&gt;ndPwmMotor -->
<g id="edge8" class="edge">
<title>ndMotorFailure&#45;&gt;ndPwmMotor</title>
<path fill="none" stroke="#000000" d="M697.9754,-665.5648C694.6319,-664.6705 691.3043,-663.814 688,-663 565.7451,-632.8841 527.5566,-663.3226 407,-627 378.6889,-618.4701 349.5017,-606.3976 322.2715,-593.5174"/>
<polygon fill="#000000" stroke="#000000" points="313.116,-589.1223 324.0786,-589.3932 317.6235,-591.2862 322.1311,-593.45 322.1311,-593.45 322.1311,-593.45 317.6235,-591.2862 320.1836,-597.5068 313.116,-589.1223 313.116,-589.1223"/>
</g>
<!-- ndMotorFailure&#45;&gt;ndMotorGroup -->
<g id="edge9" class="edge">
<title>ndMotorFailure&#45;&gt;ndMotorGroup</title>
<path fill="none" stroke="#000000" d="M861.0933,-663.3317C860.8415,-654.7913 860.5778,-645.847 860.3108,-636.7902"/>
<polygon fill="#000000" stroke="#000000" points="860.0083,-626.5324 864.8012,-636.3954 860.1557,-631.5302 860.3031,-636.528 860.3031,-636.528 860.3031,-636.528 860.1557,-631.5302 855.8051,-636.6607 860.0083,-626.5324 860.0083,-626.5324"/>
</g>
<!-- ndMotorFailure&#45;&gt;ndTestMotor -->
<g id="edge10" class="edge">
<title>ndMotorFailure&#45;&gt;ndTestMotor</title>
<path fill="none" stroke="#000000" d="M1012.0337,-663.4716C1075.5845,-635.9554 1148.8639,-604.227 1209.3452,-578.0399"/>
<polygon fill="#000000" stroke="#000000" points="1218.5554,-574.0521 1211.1667,-582.155 1213.967,-576.0388 1209.3786,-578.0255 1209.3786,-578.0255 1209.3786,-578.0255 1213.967,-576.0388 1207.5906,-573.8959 1218.5554,-574.0521 1218.5554,-574.0521"/>
</g>
<!-- ndMotorFailure&#45;&gt;ndPrintMotor -->
<g id="edge11" class="edge">
<title>ndMotorFailure&#45;&gt;ndPrintMotor</title>
<path fill="none" stroke="#000000" d="M697.746,-665.607C673.6376,-654.0634 649.665,-641.1329 628,-627 611.2444,-616.0696 594.6623,-602.4971 579.6517,-588.8441"/>
<polygon fill="#000000" stroke="#000000" points="571.9527,-581.7107 582.3465,-585.2064 575.6204,-585.109 579.2881,-588.5073 579.2881,-588.5073 579.2881,-588.5073 575.6204,-585.109 576.2296,-591.8082 571.9527,-581.7107 571.9527,-581.7107"/>
</g>
<!-- ndMotorFailure&#45;&gt;ndDriveTrain -->
<g id="edge12" class="edge">
<title>ndMotorFailure&#45;&gt;ndDriveTrain</title>
<path fill="none" stroke="#000000" d="M1028.1214,-716.0456C1228.5246,-699.8271 1544.2859,-668.0976 1580,-627 1639.7633,-558.2281 1628.9022,-498.8753 1580,-422 1573.4173,-411.6518 1565.887,-402.0246 1557.6032,-393.0694"/>
<polygon fill="#000000" stroke="#000000" points="1550.4718,-385.7039 1560.6608,-389.7581 1553.9498,-389.2961 1557.4278,-392.8883 1557.4278,-392.8883 1557.4278,-392.8883 1553.9498,-389.2961 1554.1949,-396.0185 1550.4718,-385.7039 1550.4718,-385.7039"/>
</g>
<!-- ndSensor -->
<g id="node9" class="node">
<title>ndSensor</title>
<polygon fill="none" stroke="#000000" points="2454,-852 2454,-913 2546,-913 2546,-852 2454,-852"/>
<text text-anchor="middle" x="2500" y="-897.8" font-family="Times,serif" font-size="14.00" fill="#000000">&lt;&lt;&lt;Trait&gt;&gt;&gt;</text>
<text text-anchor="middle" x="2500" y="-882.8" font-family="Times,serif" font-size="14.00" fill="#000000">Sensor</text>
<polyline fill="none" stroke="#000000" points="2454,-875 2546,-875 "/>
<text text-anchor="middle" x="2500" y="-859.8" font-family="Times,serif" font-size="14.00" fill="#000000"> </text>
</g>
<!-- ndSendableMessage -->
<g id="node10" class="node">
<title>ndSendableMessage</title>
<polygon fill="none" stroke="#000000" points="2286,-852 2286,-913 2436,-913 2436,-852 2286,-852"/>
<text text-anchor="middle" x="2361" y="-897.8" font-family="Times,serif" font-size="14.00" fill="#000000">&lt;&lt;&lt;Trait&gt;&gt;&gt;</text>
<text text-anchor="middle" x="2361" y="-882.8" font-family="Times,serif" font-size="14.00" fill="#000000">SendableMessage</text>
<polyline fill="none" stroke="#000000" points="2286,-875 2436,-875 "/>
<text text-anchor="middle" x="2361" y="-859.8" font-family="Times,serif" font-size="14.00" fill="#000000">encode(&amp;Self) &#45;&gt; String</text>
</g>
<!-- ndSendableMessage&#45;&gt;ndMotorFailure -->
<g id="edge13" class="edge">
<title>ndSendableMessage&#45;&gt;ndMotorFailure</title>
<path fill="none" stroke="#000000" stroke-dasharray="5,2" d="M2285.9446,-874.759C2057.3601,-851.1833 1365.4849,-779.825 1038.1843,-746.0681"/>
<polygon fill="none" stroke="#000000" points="1038.4363,-742.5756 1028.13,-745.0311 1037.7181,-749.5387 1038.4363,-742.5756"/>
</g>
<!-- ndServerSender -->
<g id="node11" class="node">
<title>ndServerSender</title>
<polygon fill="none" stroke="#000000" points="2189,-678.5 2189,-777.5 2533,-777.5 2533,-678.5 2189,-678.5"/>
<text text-anchor="middle" x="2361" y="-762.3" font-family="Times,serif" font-size="14.00" fill="#000000">&lt;&lt;&lt;Structure&gt;&gt;&gt;</text>
<text text-anchor="middle" x="2361" y="-747.3" font-family="Times,serif" font-size="14.00" fill="#000000">ServerSender</text>
<polyline fill="none" stroke="#000000" points="2189,-739.5 2533,-739.5 "/>
<text text-anchor="middle" x="2361" y="-724.3" font-family="Times,serif" font-size="14.00" fill="#000000">&#45; channel: Sender&lt;Box&lt;SendableMessage&gt;&gt;</text>
<polyline fill="none" stroke="#000000" points="2189,-716.5 2533,-716.5 "/>
<text text-anchor="middle" x="2361" y="-701.3" font-family="Times,serif" font-size="14.00" fill="#000000">+ send_message(&amp;self, message: Box&lt;SendableMessage&gt;)</text>
<text text-anchor="middle" x="2361" y="-686.3" font-family="Times,serif" font-size="14.00" fill="#000000">&#45; new(channel: Sender&lt;Box&lt;SendableMessage&gt;&gt;) &#45;&gt; Self</text>
</g>
<!-- ndSendableMessage&#45;&gt;ndServerSender -->
<g id="edge14" class="edge">
<title>ndSendableMessage&#45;&gt;ndServerSender</title>
<path fill="none" stroke="#000000" d="M2361,-851.9758C2361,-834.1762 2361,-811.0752 2361,-789.6459"/>
<polygon fill="#000000" stroke="#000000" points="2361.0001,-789.6171 2357,-783.6171 2361,-777.6171 2365,-783.617 2361.0001,-789.6171"/>
</g>
<!-- ndServerState -->
<g id="node12" class="node">
<title>ndServerState</title>
<polygon fill="none" stroke="#000000" points="2282.5,-27 2282.5,-103 2611.5,-103 2611.5,-27 2282.5,-27"/>
<text text-anchor="middle" x="2447" y="-87.8" font-family="Times,serif" font-size="14.00" fill="#000000">&lt;&lt;&lt;Structure&gt;&gt;&gt;</text>
<text text-anchor="middle" x="2447" y="-72.8" font-family="Times,serif" font-size="14.00" fill="#000000">ServerState</text>
<polyline fill="none" stroke="#000000" points="2282.5,-65 2611.5,-65 "/>
<text text-anchor="middle" x="2447" y="-49.8" font-family="Times,serif" font-size="14.00" fill="#000000">&#45; receiver: Mutex&lt;Receiver&lt;Box&lt;SendableMessage&gt;&gt;&gt;</text>
<text text-anchor="middle" x="2447" y="-34.8" font-family="Times,serif" font-size="14.00" fill="#000000">&#45; robot_controller: Mutex&lt;RobotView&gt;</text>
</g>
<!-- ndSendableMessage&#45;&gt;ndServerState -->
<g id="edge15" class="edge">
<title>ndSendableMessage&#45;&gt;ndServerState</title>
<path fill="none" stroke="#000000" d="M2405.3144,-851.8115C2417.8356,-843.827 2431.6845,-835.6178 2445,-829 2486.179,-808.534 2515.7434,-830.7513 2542,-793 2691.4169,-578.1708 2540.0793,-239.699 2474.2802,-114.0672"/>
<polygon fill="#000000" stroke="#000000" points="2474.1847,-113.8868 2467.8412,-110.4575 2468.5669,-103.283 2474.9104,-106.7123 2474.1847,-113.8868"/>
</g>
<!-- ndRobotController -->
<g id="node17" class="node">
<title>ndRobotController</title>
<polygon fill="none" stroke="#000000" points="1206,-.5 1206,-129.5 2220,-129.5 2220,-.5 1206,-.5"/>
<text text-anchor="middle" x="1713" y="-114.3" font-family="Times,serif" font-size="14.00" fill="#000000">&lt;&lt;&lt;Structure&gt;&gt;&gt;</text>
<text text-anchor="middle" x="1713" y="-99.3" font-family="Times,serif" font-size="14.00" fill="#000000">RobotController</text>
<polyline fill="none" stroke="#000000" points="1206,-91.5 2220,-91.5 "/>
<text text-anchor="middle" x="1713" y="-76.3" font-family="Times,serif" font-size="14.00" fill="#000000">&#45; driver_station_view: ServerSender</text>
<text text-anchor="middle" x="1713" y="-61.3" font-family="Times,serif" font-size="14.00" fill="#000000">&#45; command_receiver: Receiver&lt;RobotControllerCommand&gt;</text>
<text text-anchor="middle" x="1713" y="-46.3" font-family="Times,serif" font-size="14.00" fill="#000000">&#45; drive_train: DriveTrain</text>
<text text-anchor="middle" x="1713" y="-31.3" font-family="Times,serif" font-size="14.00" fill="#000000">&#45; life_status: Arc&lt;RwLock&lt;RobotLifeStatus&gt;&gt;</text>
<polyline fill="none" stroke="#000000" points="1206,-23.5 2220,-23.5 "/>
<text text-anchor="middle" x="1713" y="-8.3" font-family="Times,serif" font-size="14.00" fill="#000000">+ new(driver_station_view: ServerSender, command_receiver: Receiver&lt;RobotControllerCommand&gt;, drive_train: DriveTrain, life_status: Arc&lt;RwLock&lt;RobotLifeStatus&gt;&gt;) &#45;&gt; Self</text>
</g>
<!-- ndServerSender&#45;&gt;ndRobotController -->
<g id="edge16" class="edge">
<title>ndServerSender&#45;&gt;ndRobotController</title>
<path fill="none" stroke="#000000" stroke-dasharray="5,2" d="M2387.8334,-678.3542C2441.9926,-570.6331 2548.7929,-313.317 2421,-166 2412.4927,-156.193 2333.9495,-142.0109 2232.0488,-127.3602"/>
<polygon fill="#000000" stroke="#000000" points="2232.0455,-127.3598 2225.5405,-130.472 2220.1658,-125.6644 2226.6708,-122.5522 2232.0455,-127.3598"/>
</g>
<!-- ndDrive -->
<g id="node13" class="node">
<title>ndDrive</title>
<polygon fill="none" stroke="#000000" points="2564,-863.5 2564,-901.5 2680,-901.5 2680,-863.5 2564,-863.5"/>
<text text-anchor="middle" x="2622" y="-886.3" font-family="Times,serif" font-size="14.00" fill="#000000">&lt;&lt;&lt;Structure&gt;&gt;&gt;</text>
<text text-anchor="middle" x="2622" y="-871.3" font-family="Times,serif" font-size="14.00" fill="#000000">Drive</text>
</g>
<!-- ndRunnable -->
<g id="node14" class="node">
<title>ndRunnable</title>
<polygon fill="none" stroke="#000000" points="1593,-245.5 1593,-306.5 1685,-306.5 1685,-245.5 1593,-245.5"/>
<text text-anchor="middle" x="1639" y="-291.3" font-family="Times,serif" font-size="14.00" fill="#000000">&lt;&lt;&lt;Trait&gt;&gt;&gt;</text>
<text text-anchor="middle" x="1639" y="-276.3" font-family="Times,serif" font-size="14.00" fill="#000000">Runnable</text>
<polyline fill="none" stroke="#000000" points="1593,-268.5 1685,-268.5 "/>
<text text-anchor="middle" x="1639" y="-253.3" font-family="Times,serif" font-size="14.00" fill="#000000"> </text>
</g>
<!-- ndRunnable&#45;&gt;ndRobotController -->
<g id="edge17" class="edge">
<title>ndRunnable&#45;&gt;ndRobotController</title>
<path fill="none" stroke="#000000" stroke-dasharray="5,2" d="M1649.7602,-245.3188C1659.4747,-217.6195 1674.1611,-175.7434 1686.9363,-139.3168"/>
<polygon fill="none" stroke="#000000" points="1690.3036,-140.2908 1690.3104,-129.696 1683.6981,-137.9741 1690.3036,-140.2908"/>
</g>
<!-- ndMotorID -->
<g id="node15" class="node">
<title>ndMotorID</title>
<polygon fill="none" stroke="#000000" points="449.5,-829.5 449.5,-935.5 586.5,-935.5 586.5,-829.5 449.5,-829.5"/>
<text text-anchor="middle" x="518" y="-920.3" font-family="Times,serif" font-size="14.00" fill="#000000">&lt;&lt;&lt;Enumeration&gt;&gt;&gt;</text>
<text text-anchor="middle" x="518" y="-905.3" font-family="Times,serif" font-size="14.00" fill="#000000">MotorID</text>
<polyline fill="none" stroke="#000000" points="449.5,-897.5 586.5,-897.5 "/>
<text text-anchor="middle" x="518" y="-882.3" font-family="Times,serif" font-size="14.00" fill="#000000">DriveTrainFrontLeft</text>
<text text-anchor="middle" x="518" y="-867.3" font-family="Times,serif" font-size="14.00" fill="#000000">DriveTrainFrontRight</text>
<text text-anchor="middle" x="518" y="-852.3" font-family="Times,serif" font-size="14.00" fill="#000000">DriveTrainRearLeft</text>
<text text-anchor="middle" x="518" y="-837.3" font-family="Times,serif" font-size="14.00" fill="#000000">DriveTrainRearRight</text>
</g>
<!-- ndMotorID&#45;&gt;ndPwmMotor -->
<g id="edge18" class="edge">
<title>ndMotorID&#45;&gt;ndPwmMotor</title>
<path fill="none" stroke="#000000" stroke-dasharray="5,2" d="M449.2476,-857.5571C415.4353,-842.7256 375.8574,-821.2411 347,-793 291.4538,-738.6401 251.1235,-658.9411 226.7223,-600.4931"/>
<polygon fill="#000000" stroke="#000000" points="226.6042,-600.2048 220.628,-596.1693 222.0546,-589.1007 228.0308,-593.1362 226.6042,-600.2048"/>
</g>
<!-- ndMotorID&#45;&gt;ndMotorFailure -->
<g id="edge19" class="edge">
<title>ndMotorID&#45;&gt;ndMotorFailure</title>
<path fill="none" stroke="#000000" stroke-dasharray="5,2" d="M586.5734,-851.791C621.4625,-836.1668 665.3944,-816.4929 707.9024,-797.4568"/>
<polygon fill="#000000" stroke="#000000" points="708.0119,-797.4078 711.853,-791.3048 718.9639,-792.5031 715.1228,-798.6061 708.0119,-797.4078"/>
</g>
<!-- ndDriveTrain&#45;&gt;ndRobotController -->
<g id="edge20" class="edge">
<title>ndDriveTrain&#45;&gt;ndRobotController</title>
<path fill="none" stroke="#000000" stroke-dasharray="5,2" d="M1498.9723,-166.4828C1521.7839,-155.6665 1544.4765,-144.9066 1566.0893,-134.6588"/>
<polygon fill="#000000" stroke="#000000" points="1566.1037,-134.652 1569.8114,-128.467 1576.9466,-129.5107 1573.2389,-135.6956 1566.1037,-134.652"/>
</g>
<!-- ndRobotLifeStatus -->
<g id="node18" class="node">
<title>ndRobotLifeStatus</title>
<polygon fill="none" stroke="#000000" points="1644.5,-486.5 1644.5,-562.5 1781.5,-562.5 1781.5,-486.5 1644.5,-486.5"/>
<text text-anchor="middle" x="1713" y="-547.3" font-family="Times,serif" font-size="14.00" fill="#000000">&lt;&lt;&lt;Enumeration&gt;&gt;&gt;</text>
<text text-anchor="middle" x="1713" y="-532.3" font-family="Times,serif" font-size="14.00" fill="#000000">RobotLifeStatus</text>
<polyline fill="none" stroke="#000000" points="1644.5,-524.5 1781.5,-524.5 "/>
<text text-anchor="middle" x="1713" y="-509.3" font-family="Times,serif" font-size="14.00" fill="#000000">Alive</text>
<text text-anchor="middle" x="1713" y="-494.3" font-family="Times,serif" font-size="14.00" fill="#000000">Dead</text>
</g>
<!-- ndRobotLifeStatus&#45;&gt;ndDriveTrain -->
<g id="edge21" class="edge">
<title>ndRobotLifeStatus&#45;&gt;ndDriveTrain</title>
<path fill="none" stroke="#000000" d="M1682.6601,-486.1843C1664.481,-465.1328 1639.9138,-439.7678 1614,-422 1598.4144,-411.3137 1581.9227,-401.1756 1564.9298,-391.5987"/>
<polygon fill="#000000" stroke="#000000" points="1564.7872,-391.5198 1557.6006,-392.1137 1554.2882,-385.7083 1561.4749,-385.1144 1564.7872,-391.5198"/>
</g>
<!-- ndRobotLifeStatus&#45;&gt;ndRobotController -->
<g id="edge22" class="edge">
<title>ndRobotLifeStatus&#45;&gt;ndRobotController</title>
<path fill="none" stroke="#000000" d="M1713,-486.1136C1713,-410.537 1713,-241.1811 1713,-141.7959"/>
<polygon fill="#000000" stroke="#000000" points="1713.0001,-141.7372 1709,-135.7373 1713,-129.7372 1717,-135.7372 1713.0001,-141.7372"/>
</g>
<!-- ndRobotView -->
<g id="node20" class="node">
<title>ndRobotView</title>
<polygon fill="none" stroke="#000000" points="1741,-166.5 1741,-385.5 2387,-385.5 2387,-166.5 1741,-166.5"/>
<text text-anchor="middle" x="2064" y="-370.3" font-family="Times,serif" font-size="14.00" fill="#000000">&lt;&lt;&lt;Structure&gt;&gt;&gt;</text>
<text text-anchor="middle" x="2064" y="-355.3" font-family="Times,serif" font-size="14.00" fill="#000000">RobotView</text>
<polyline fill="none" stroke="#000000" points="1741,-347.5 2387,-347.5 "/>
<text text-anchor="middle" x="2064" y="-332.3" font-family="Times,serif" font-size="14.00" fill="#000000">&#45; channel: Sender&lt;RobotControllerCommand&gt;</text>
<text text-anchor="middle" x="2064" y="-317.3" font-family="Times,serif" font-size="14.00" fill="#000000">&#45; robot_life_status: Arc&lt;RwLock&lt;RobotLifeStatus&gt;&gt;</text>
<polyline fill="none" stroke="#000000" points="1741,-309.5 2387,-309.5 "/>
<text text-anchor="middle" x="2064" y="-294.3" font-family="Times,serif" font-size="14.00" fill="#000000">+ new(channel: Sender&lt;RobotControllerCommand&gt;, robot_life_status: Arc&lt;RwLock&lt;RobotLifeStatus&gt;&gt;) &#45;&gt; Self</text>
<text text-anchor="middle" x="2064" y="-279.3" font-family="Times,serif" font-size="14.00" fill="#000000">+ revive(&amp;self) &#45;&gt; Result&lt;(), ()&gt;</text>
<text text-anchor="middle" x="2064" y="-264.3" font-family="Times,serif" font-size="14.00" fill="#000000">+ kill(&amp;self) &#45;&gt; Result&lt;(), ()&gt;</text>
<text text-anchor="middle" x="2064" y="-249.3" font-family="Times,serif" font-size="14.00" fill="#000000">+ drive(&amp;self, left: f32, right: f32) &#45;&gt; Result&lt;(), ()&gt;</text>
<text text-anchor="middle" x="2064" y="-234.3" font-family="Times,serif" font-size="14.00" fill="#000000">+ brake(&amp;self)</text>
<text text-anchor="middle" x="2064" y="-219.3" font-family="Times,serif" font-size="14.00" fill="#000000">+ enable_drive_train(&amp;self)</text>
<text text-anchor="middle" x="2064" y="-204.3" font-family="Times,serif" font-size="14.00" fill="#000000">+ disable_drive_train(&amp;self)</text>
<text text-anchor="middle" x="2064" y="-189.3" font-family="Times,serif" font-size="14.00" fill="#000000">&#45; send_command(&amp;self, command: RobotControllerCommand)</text>
<text text-anchor="middle" x="2064" y="-174.3" font-family="Times,serif" font-size="14.00" fill="#000000">&#45; change_life_status(&amp;self, status: RobotLifeStatus) &#45;&gt; Result&lt;(), ()&gt;</text>
</g>
<!-- ndRobotLifeStatus&#45;&gt;ndRobotView -->
<g id="edge23" class="edge">
<title>ndRobotLifeStatus&#45;&gt;ndRobotView</title>
<path fill="none" stroke="#000000" stroke-dasharray="5,2" d="M1766.6914,-486.4877C1802.3548,-461.2388 1851.2603,-426.6148 1899.1102,-392.7382"/>
<polygon fill="#000000" stroke="#000000" points="1899.1862,-392.6844 1901.7719,-385.9528 1908.9801,-385.7505 1906.3945,-392.4821 1899.1862,-392.6844"/>
</g>
<!-- ndRobotControllerCommand -->
<g id="node19" class="node">
<title>ndRobotControllerCommand</title>
<polygon fill="none" stroke="#000000" points="1967.5,-471.5 1967.5,-577.5 2160.5,-577.5 2160.5,-471.5 1967.5,-471.5"/>
<text text-anchor="middle" x="2064" y="-562.3" font-family="Times,serif" font-size="14.00" fill="#000000">&lt;&lt;&lt;Enumeration&gt;&gt;&gt;</text>
<text text-anchor="middle" x="2064" y="-547.3" font-family="Times,serif" font-size="14.00" fill="#000000">RobotControllerCommand</text>
<polyline fill="none" stroke="#000000" points="1967.5,-539.5 2160.5,-539.5 "/>
<text text-anchor="middle" x="2064" y="-524.3" font-family="Times,serif" font-size="14.00" fill="#000000">Drive(DriveCommandMessage)</text>
<text text-anchor="middle" x="2064" y="-509.3" font-family="Times,serif" font-size="14.00" fill="#000000">Brake</text>
<text text-anchor="middle" x="2064" y="-494.3" font-family="Times,serif" font-size="14.00" fill="#000000">Enable</text>
<text text-anchor="middle" x="2064" y="-479.3" font-family="Times,serif" font-size="14.00" fill="#000000">Disable</text>
</g>
<!-- ndRobotControllerCommand&#45;&gt;ndRobotController -->
<g id="edge24" class="edge">
<title>ndRobotControllerCommand&#45;&gt;ndRobotController</title>
<path fill="none" stroke="#000000" d="M2160.5154,-513.099C2238.6474,-498.2225 2343.9658,-464.0874 2396,-386 2423.11,-345.3162 2427.9412,-203.0119 2396,-166 2388.3412,-157.1254 2321.5713,-144.2417 2232.5361,-130.6284"/>
<polygon fill="#000000" stroke="#000000" points="2232.2768,-130.5892 2225.7451,-133.6448 2220.4123,-128.7907 2226.9441,-125.7351 2232.2768,-130.5892"/>
</g>
<!-- ndRobotControllerCommand&#45;&gt;ndRobotView -->
<g id="edge25" class="edge">
<title>ndRobotControllerCommand&#45;&gt;ndRobotView</title>
<path fill="none" stroke="#000000" stroke-dasharray="5,2" d="M2064,-471.4953C2064,-449.8378 2064,-423.8183 2064,-397.933"/>
<polygon fill="#000000" stroke="#000000" points="2064.0001,-397.6625 2060,-391.6626 2064,-385.6625 2068,-391.6625 2064.0001,-397.6625"/>
</g>
<!-- ndRobotView&#45;&gt;ndServerState -->
<g id="edge26" class="edge">
<title>ndRobotView&#45;&gt;ndServerState</title>
<path fill="none" stroke="#000000" d="M2262.7919,-166.4828C2299.7782,-146.1065 2336.4012,-125.9304 2367.1316,-109.0006"/>
<polygon fill="#000000" stroke="#000000" points="2367.2359,-108.9432 2370.561,-102.5444 2377.7465,-103.1527 2374.4213,-109.5515 2367.2359,-108.9432"/>
</g>
<!-- ndDriveCommandMessage -->
<g id="node21" class="node">
<title>ndDriveCommandMessage</title>
<polygon fill="none" stroke="#000000" points="1815,-678.5 1815,-777.5 2171,-777.5 2171,-678.5 1815,-678.5"/>
<text text-anchor="middle" x="1993" y="-762.3" font-family="Times,serif" font-size="14.00" fill="#000000">&lt;&lt;&lt;Structure&gt;&gt;&gt;</text>
<text text-anchor="middle" x="1993" y="-747.3" font-family="Times,serif" font-size="14.00" fill="#000000">DriveCommandMessage</text>
<polyline fill="none" stroke="#000000" points="1815,-739.5 2171,-739.5 "/>
<text text-anchor="middle" x="1993" y="-724.3" font-family="Times,serif" font-size="14.00" fill="#000000">&#45; left_speed: f32</text>
<text text-anchor="middle" x="1993" y="-709.3" font-family="Times,serif" font-size="14.00" fill="#000000">&#45; right_speed: f32</text>
<polyline fill="none" stroke="#000000" points="1815,-701.5 2171,-701.5 "/>
<text text-anchor="middle" x="1993" y="-686.3" font-family="Times,serif" font-size="14.00" fill="#000000">+ create(left_speed: f32, right_speed: f32) &#45;&gt; Result&lt;Self, ()&gt;</text>
</g>
<!-- ndDriveCommandMessage&#45;&gt;ndRobotControllerCommand -->
<g id="edge27" class="edge">
<title>ndDriveCommandMessage&#45;&gt;ndRobotControllerCommand</title>
<path fill="none" stroke="#000000" d="M2010.2778,-678.4785C2019.6216,-651.6972 2031.2762,-618.2927 2041.3399,-589.4484"/>
<polygon fill="#000000" stroke="#000000" points="2041.4456,-589.1453 2039.6454,-582.1625 2045.3987,-577.8151 2047.1989,-584.7979 2041.4456,-589.1453"/>
</g>
</g>
</svg>
