<?xml version="1.0" encoding="UTF-8" standalone="no"?>
<!DOCTYPE svg PUBLIC "-//W3C//DTD SVG 1.1//EN"
 "http://www.w3.org/Graphics/SVG/1.1/DTD/svg11.dtd">
<!-- Generated by graphviz version 2.40.1 (20161225.0304)
 -->
<!-- Title: ml Pages: 1 -->
<svg width="2619pt" height="944pt"
 viewBox="0.00 0.00 2618.50 944.00" xmlns="http://www.w3.org/2000/svg" xmlns:xlink="http://www.w3.org/1999/xlink">
<g id="graph0" class="graph" transform="scale(1 1) rotate(0) translate(4 940)">
<title>ml</title>
<polygon fill="#ffffff" stroke="transparent" points="-4,4 -4,-940 2614.5,-940 2614.5,4 -4,4"/>
<!-- ndMotorID -->
<g id="node1" class="node">
<title>ndMotorID</title>
<polygon fill="none" stroke="#000000" points="567.5,-829.5 567.5,-935.5 704.5,-935.5 704.5,-829.5 567.5,-829.5"/>
<text text-anchor="middle" x="636" y="-920.3" font-family="Times,serif" font-size="14.00" fill="#000000">&lt;&lt;&lt;Enumeration&gt;&gt;&gt;</text>
<text text-anchor="middle" x="636" y="-905.3" font-family="Times,serif" font-size="14.00" fill="#000000">MotorID</text>
<polyline fill="none" stroke="#000000" points="567.5,-897.5 704.5,-897.5 "/>
<text text-anchor="middle" x="636" y="-882.3" font-family="Times,serif" font-size="14.00" fill="#000000">DriveTrainFrontLeft</text>
<text text-anchor="middle" x="636" y="-867.3" font-family="Times,serif" font-size="14.00" fill="#000000">DriveTrainFrontRight</text>
<text text-anchor="middle" x="636" y="-852.3" font-family="Times,serif" font-size="14.00" fill="#000000">DriveTrainRearLeft</text>
<text text-anchor="middle" x="636" y="-837.3" font-family="Times,serif" font-size="14.00" fill="#000000">DriveTrainRearRight</text>
</g>
<!-- ndMotorFailure -->
<g id="node4" class="node">
<title>ndMotorFailure</title>
<polygon fill="none" stroke="#000000" points="816,-663.5 816,-792.5 1146,-792.5 1146,-663.5 816,-663.5"/>
<text text-anchor="middle" x="981" y="-777.3" font-family="Times,serif" font-size="14.00" fill="#000000">&lt;&lt;&lt;Structure&gt;&gt;&gt;</text>
<text text-anchor="middle" x="981" y="-762.3" font-family="Times,serif" font-size="14.00" fill="#000000">MotorFailure</text>
<polyline fill="none" stroke="#000000" points="816,-754.5 1146,-754.5 "/>
<text text-anchor="middle" x="981" y="-739.3" font-family="Times,serif" font-size="14.00" fill="#000000">&#45; motor: MotorID</text>
<text text-anchor="middle" x="981" y="-724.3" font-family="Times,serif" font-size="14.00" fill="#000000">&#45; kind: MotorFailureKind</text>
<polyline fill="none" stroke="#000000" points="816,-716.5 1146,-716.5 "/>
<text text-anchor="middle" x="981" y="-701.3" font-family="Times,serif" font-size="14.00" fill="#000000">+ new(motor: MotorID, kind: MotorFailureKind) &#45;&gt; Self</text>
<text text-anchor="middle" x="981" y="-686.3" font-family="Times,serif" font-size="14.00" fill="#000000">+ get_motor(&amp;self) &#45;&gt; MotorID</text>
<text text-anchor="middle" x="981" y="-671.3" font-family="Times,serif" font-size="14.00" fill="#000000">+ get_kind(&amp;self) &#45;&gt; MotorFailureKind</text>
</g>
<!-- ndMotorID&#45;&gt;ndMotorFailure -->
<g id="edge1" class="edge">
<title>ndMotorID&#45;&gt;ndMotorFailure</title>
<path fill="none" stroke="#000000" stroke-dasharray="5,2" d="M704.5734,-851.791C739.4625,-836.1668 783.3944,-816.4929 825.9024,-797.4568"/>
<polygon fill="#000000" stroke="#000000" points="826.0119,-797.4078 829.853,-791.3048 836.9639,-792.5031 833.1228,-798.6061 826.0119,-797.4078"/>
</g>
<!-- ndPwmMotor -->
<g id="node6" class="node">
<title>ndPwmMotor</title>
<polygon fill="none" stroke="#000000" points="0,-460 0,-589 398,-589 398,-460 0,-460"/>
<text text-anchor="middle" x="199" y="-573.8" font-family="Times,serif" font-size="14.00" fill="#000000">&lt;&lt;&lt;Structure&gt;&gt;&gt;</text>
<text text-anchor="middle" x="199" y="-558.8" font-family="Times,serif" font-size="14.00" fill="#000000">PwmMotor</text>
<polyline fill="none" stroke="#000000" points="0,-551 398,-551 "/>
<text text-anchor="middle" x="199" y="-535.8" font-family="Times,serif" font-size="14.00" fill="#000000">&#45; is_inverted: bool</text>
<text text-anchor="middle" x="199" y="-520.8" font-family="Times,serif" font-size="14.00" fill="#000000">&#45; id: MotorID</text>
<text text-anchor="middle" x="199" y="-505.8" font-family="Times,serif" font-size="14.00" fill="#000000">&#45; pwm: Pwm</text>
<text text-anchor="middle" x="199" y="-490.8" font-family="Times,serif" font-size="14.00" fill="#000000">&#45; direction: Pin</text>
<polyline fill="none" stroke="#000000" points="0,-483 398,-483 "/>
<text text-anchor="middle" x="199" y="-467.8" font-family="Times,serif" font-size="14.00" fill="#000000">+ create(pwm: Pwm, direction: Pin, id: MotorID) &#45;&gt; Result&lt;Self, ()&gt;</text>
</g>
<!-- ndMotorID&#45;&gt;ndPwmMotor -->
<g id="edge2" class="edge">
<title>ndMotorID&#45;&gt;ndPwmMotor</title>
<path fill="none" stroke="#000000" stroke-dasharray="5,2" d="M567.3975,-852.5951C534.9642,-836.9869 496.536,-816.2908 465,-793 387.5927,-735.8311 311.5784,-656.0469 260.7644,-598.3201"/>
<polygon fill="#000000" stroke="#000000" points="260.7314,-598.2823 253.77,-596.401 252.8291,-589.2515 259.7905,-591.1329 260.7314,-598.2823"/>
</g>
<!-- ndMotorFailureKind -->
<g id="node2" class="node">
<title>ndMotorFailureKind</title>
<polygon fill="none" stroke="#000000" points="912.5,-852 912.5,-913 1049.5,-913 1049.5,-852 912.5,-852"/>
<text text-anchor="middle" x="981" y="-897.8" font-family="Times,serif" font-size="14.00" fill="#000000">&lt;&lt;&lt;Enumeration&gt;&gt;&gt;</text>
<text text-anchor="middle" x="981" y="-882.8" font-family="Times,serif" font-size="14.00" fill="#000000">MotorFailureKind</text>
<polyline fill="none" stroke="#000000" points="912.5,-875 1049.5,-875 "/>
<text text-anchor="middle" x="981" y="-859.8" font-family="Times,serif" font-size="14.00" fill="#000000">Unknown</text>
</g>
<!-- ndMotorFailureKind&#45;&gt;ndMotorFailure -->
<g id="edge3" class="edge">
<title>ndMotorFailureKind&#45;&gt;ndMotorFailure</title>
<path fill="none" stroke="#000000" stroke-dasharray="5,2" d="M981,-851.9758C981,-838.3181 981,-821.5391 981,-804.789"/>
<polygon fill="#000000" stroke="#000000" points="981.0001,-804.6424 977,-798.6425 981,-792.6424 985,-798.6424 981.0001,-804.6424"/>
</g>
<!-- ndMotorController -->
<g id="node3" class="node">
<title>ndMotorController</title>
<polygon fill="none" stroke="#000000" points="474.5,-675 474.5,-781 797.5,-781 797.5,-675 474.5,-675"/>
<text text-anchor="middle" x="636" y="-765.8" font-family="Times,serif" font-size="14.00" fill="#000000">&lt;&lt;&lt;Trait&gt;&gt;&gt;</text>
<text text-anchor="middle" x="636" y="-750.8" font-family="Times,serif" font-size="14.00" fill="#000000">MotorController</text>
<polyline fill="none" stroke="#000000" points="474.5,-743 797.5,-743 "/>
<text text-anchor="middle" x="636" y="-727.8" font-family="Times,serif" font-size="14.00" fill="#000000">set_speed(&amp;mut Self, f32) &#45;&gt; Result&lt;(), MotorFailure&gt;</text>
<text text-anchor="middle" x="636" y="-712.8" font-family="Times,serif" font-size="14.00" fill="#000000">stop(&amp;mut Self) &#45;&gt; Result&lt;(), MotorFailure&gt;</text>
<text text-anchor="middle" x="636" y="-697.8" font-family="Times,serif" font-size="14.00" fill="#000000">invert(&amp;mut Self) &#45;&gt; Result&lt;(), MotorFailure&gt;</text>
<text text-anchor="middle" x="636" y="-682.8" font-family="Times,serif" font-size="14.00" fill="#000000">is_inverted(&amp;Self) &#45;&gt; Result&lt;bool, MotorFailure&gt;</text>
</g>
<!-- ndTestMotor -->
<g id="node5" class="node">
<title>ndTestMotor</title>
<polygon fill="none" stroke="#000000" points="1094.5,-475 1094.5,-574 1571.5,-574 1571.5,-475 1094.5,-475"/>
<text text-anchor="middle" x="1333" y="-558.8" font-family="Times,serif" font-size="14.00" fill="#000000">&lt;&lt;&lt;Structure&gt;&gt;&gt;</text>
<text text-anchor="middle" x="1333" y="-543.8" font-family="Times,serif" font-size="14.00" fill="#000000">TestMotor</text>
<polyline fill="none" stroke="#000000" points="1094.5,-536 1571.5,-536 "/>
<text text-anchor="middle" x="1333" y="-520.8" font-family="Times,serif" font-size="14.00" fill="#000000">&#45; inverted: Arc&lt;RwLock&lt;bool&gt;&gt;</text>
<text text-anchor="middle" x="1333" y="-505.8" font-family="Times,serif" font-size="14.00" fill="#000000">&#45; speed: Arc&lt;RwLock&lt;f32&gt;&gt;</text>
<polyline fill="none" stroke="#000000" points="1094.5,-498 1571.5,-498 "/>
<text text-anchor="middle" x="1333" y="-482.8" font-family="Times,serif" font-size="14.00" fill="#000000">+ new(inverted: Arc&lt;RwLock&lt;bool&gt;&gt;, speed: Arc&lt;RwLock&lt;f32&gt;&gt;) &#45;&gt; TestMotor</text>
</g>
<!-- ndMotorController&#45;&gt;ndTestMotor -->
<g id="edge4" class="edge">
<title>ndMotorController&#45;&gt;ndTestMotor</title>
<path fill="none" stroke="#000000" stroke-dasharray="5,2" d="M766.1677,-674.9475C779.8172,-670.4626 793.6004,-666.3646 807,-663 927.836,-632.658 964.6114,-659.0713 1085,-627 1130.7241,-614.8192 1179.204,-596.1692 1221.0556,-578.1007"/>
<polygon fill="none" stroke="#000000" points="1222.6643,-581.2176 1230.4336,-574.0142 1219.8679,-574.8004 1222.6643,-581.2176"/>
</g>
<!-- ndMotorController&#45;&gt;ndPwmMotor -->
<g id="edge5" class="edge">
<title>ndMotorController&#45;&gt;ndPwmMotor</title>
<path fill="none" stroke="#000000" stroke-dasharray="5,2" d="M513.1557,-674.967C478.6777,-659.7718 441.2568,-642.9863 407,-627 384.2949,-616.4044 360.3357,-604.9024 337.0742,-593.5609"/>
<polygon fill="none" stroke="#000000" points="338.3737,-590.3004 327.8523,-589.0554 335.3008,-596.5899 338.3737,-590.3004"/>
</g>
<!-- ndMotorGroup -->
<g id="node7" class="node">
<title>ndMotorGroup</title>
<polygon fill="none" stroke="#000000" points="416.5,-422.5 416.5,-626.5 855.5,-626.5 855.5,-422.5 416.5,-422.5"/>
<text text-anchor="middle" x="636" y="-611.3" font-family="Times,serif" font-size="14.00" fill="#000000">&lt;&lt;&lt;Structure&gt;&gt;&gt;</text>
<text text-anchor="middle" x="636" y="-596.3" font-family="Times,serif" font-size="14.00" fill="#000000">MotorGroup</text>
<polyline fill="none" stroke="#000000" points="416.5,-588.5 855.5,-588.5 "/>
<text text-anchor="middle" x="636" y="-573.3" font-family="Times,serif" font-size="14.00" fill="#000000">&#45; is_inverted: bool</text>
<text text-anchor="middle" x="636" y="-558.3" font-family="Times,serif" font-size="14.00" fill="#000000">&#45; motors: Vec&lt;Box&lt;MotorController&gt;&gt;</text>
<text text-anchor="middle" x="636" y="-543.3" font-family="Times,serif" font-size="14.00" fill="#000000">&#45; old_speed: f32</text>
<polyline fill="none" stroke="#000000" points="416.5,-535.5 855.5,-535.5 "/>
<text text-anchor="middle" x="636" y="-520.3" font-family="Times,serif" font-size="14.00" fill="#000000">+ new(motors: Vec&lt;Box&lt;MotorController&gt;&gt;) &#45;&gt; Self</text>
<text text-anchor="middle" x="636" y="-505.3" font-family="Times,serif" font-size="14.00" fill="#000000">+ set_speed(&amp;mut self, new_speed: f32) &#45;&gt; Result&lt;(), Vec&lt;MotorFailure&gt;&gt;</text>
<text text-anchor="middle" x="636" y="-490.3" font-family="Times,serif" font-size="14.00" fill="#000000">+ stop(&amp;mut self) &#45;&gt; Result&lt;(), Vec&lt;MotorFailure&gt;&gt;</text>
<text text-anchor="middle" x="636" y="-475.3" font-family="Times,serif" font-size="14.00" fill="#000000">+ invert(&amp;mut self) &#45;&gt; Result&lt;(), Vec&lt;MotorFailure&gt;&gt;</text>
<text text-anchor="middle" x="636" y="-460.3" font-family="Times,serif" font-size="14.00" fill="#000000">+ is_inverted(&amp;self) &#45;&gt; bool</text>
<text text-anchor="middle" x="636" y="-445.3" font-family="Times,serif" font-size="14.00" fill="#000000">+ maintain_last(&amp;mut self) &#45;&gt; Result&lt;(), Vec&lt;MotorFailure&gt;&gt;</text>
<text text-anchor="middle" x="636" y="-430.3" font-family="Times,serif" font-size="14.00" fill="#000000">&#45; run_operation(&amp;mut self, operation: T) &#45;&gt; Result&lt;(), Vec&lt;MotorFailure&gt;&gt;</text>
</g>
<!-- ndMotorController&#45;&gt;ndMotorGroup -->
<g id="edge6" class="edge">
<title>ndMotorController&#45;&gt;ndMotorGroup</title>
<path fill="none" stroke="#000000" d="M636,-674.7986C636,-663.5539 636,-651.2761 636,-638.7414"/>
<polygon fill="#000000" stroke="#000000" points="636.0001,-638.6704 632,-632.6704 636,-626.6704 640,-632.6703 636.0001,-638.6704"/>
</g>
<!-- ndPrintMotor -->
<g id="node9" class="node">
<title>ndPrintMotor</title>
<polygon fill="none" stroke="#000000" points="873.5,-467.5 873.5,-581.5 1076.5,-581.5 1076.5,-467.5 873.5,-467.5"/>
<text text-anchor="middle" x="975" y="-566.3" font-family="Times,serif" font-size="14.00" fill="#000000">&lt;&lt;&lt;Structure&gt;&gt;&gt;</text>
<text text-anchor="middle" x="975" y="-551.3" font-family="Times,serif" font-size="14.00" fill="#000000">PrintMotor</text>
<polyline fill="none" stroke="#000000" points="873.5,-543.5 1076.5,-543.5 "/>
<text text-anchor="middle" x="975" y="-528.3" font-family="Times,serif" font-size="14.00" fill="#000000">&#45; name: String</text>
<text text-anchor="middle" x="975" y="-513.3" font-family="Times,serif" font-size="14.00" fill="#000000">&#45; inverted: bool</text>
<text text-anchor="middle" x="975" y="-498.3" font-family="Times,serif" font-size="14.00" fill="#000000">&#45; last: f32</text>
<polyline fill="none" stroke="#000000" points="873.5,-490.5 1076.5,-490.5 "/>
<text text-anchor="middle" x="975" y="-475.3" font-family="Times,serif" font-size="14.00" fill="#000000">+ new(name: &amp;str) &#45;&gt; PrintMotor</text>
</g>
<!-- ndMotorController&#45;&gt;ndPrintMotor -->
<g id="edge7" class="edge">
<title>ndMotorController&#45;&gt;ndPrintMotor</title>
<path fill="none" stroke="#000000" stroke-dasharray="5,2" d="M775.4622,-674.9415C805.6468,-661.0952 836.6824,-644.9486 864,-627 880.8011,-615.9611 897.4911,-602.345 912.6306,-588.6843"/>
<polygon fill="none" stroke="#000000" points="915.401,-590.892 920.3986,-581.5499 910.666,-585.7364 915.401,-590.892"/>
</g>
<!-- ndMotorFailure&#45;&gt;ndTestMotor -->
<g id="edge8" class="edge">
<title>ndMotorFailure&#45;&gt;ndTestMotor</title>
<path fill="none" stroke="#000000" d="M1092.8586,-663.3317C1139.6632,-636.2728 1193.4789,-605.1607 1238.2866,-579.2562"/>
<polygon fill="#000000" stroke="#000000" points="1247.1233,-574.1475 1240.7182,-583.0484 1242.7946,-576.65 1238.4659,-579.1526 1238.4659,-579.1526 1238.4659,-579.1526 1242.7946,-576.65 1236.2136,-575.2567 1247.1233,-574.1475 1247.1233,-574.1475"/>
</g>
<!-- ndMotorFailure&#45;&gt;ndPwmMotor -->
<g id="edge9" class="edge">
<title>ndMotorFailure&#45;&gt;ndPwmMotor</title>
<path fill="none" stroke="#000000" d="M815.5365,-665.2737C812.3419,-664.4756 809.1609,-663.7162 806,-663 632.3477,-623.6555 578.4154,-675.1651 407,-627 377.9249,-618.8303 348.0283,-606.6466 320.2886,-593.503"/>
<polygon fill="#000000" stroke="#000000" points="310.9682,-589.0132 321.9303,-589.299 315.4728,-591.1831 319.9774,-593.3531 319.9774,-593.3531 319.9774,-593.3531 315.4728,-591.1831 318.0244,-597.4072 310.9682,-589.0132 310.9682,-589.0132"/>
</g>
<!-- ndMotorFailure&#45;&gt;ndMotorGroup -->
<g id="edge10" class="edge">
<title>ndMotorFailure&#45;&gt;ndMotorGroup</title>
<path fill="none" stroke="#000000" d="M871.3658,-663.3317C854.2402,-653.2301 836.1569,-642.5636 817.9328,-631.814"/>
<polygon fill="#000000" stroke="#000000" points="808.9787,-626.5324 819.8782,-627.737 813.2853,-629.0727 817.592,-631.613 817.592,-631.613 817.592,-631.613 813.2853,-629.0727 815.3057,-635.4889 808.9787,-626.5324 808.9787,-626.5324"/>
</g>
<!-- ndMotorFailure&#45;&gt;ndPrintMotor -->
<g id="edge11" class="edge">
<title>ndMotorFailure&#45;&gt;ndPrintMotor</title>
<path fill="none" stroke="#000000" d="M979.0933,-663.3317C978.4208,-640.5212 977.6633,-614.8303 976.9845,-591.8069"/>
<polygon fill="#000000" stroke="#000000" points="976.6888,-581.779 981.4817,-591.642 976.8362,-586.7768 976.9836,-591.7747 976.9836,-591.7747 976.9836,-591.7747 976.8362,-586.7768 972.4856,-591.9073 976.6888,-581.779 976.6888,-581.779"/>
</g>
<!-- ndDriveTrain -->
<g id="node15" class="node">
<title>ndDriveTrain</title>
<polygon fill="none" stroke="#000000" points="996,-166.5 996,-385.5 1610,-385.5 1610,-166.5 996,-166.5"/>
<text text-anchor="middle" x="1303" y="-370.3" font-family="Times,serif" font-size="14.00" fill="#000000">&lt;&lt;&lt;Structure&gt;&gt;&gt;</text>
<text text-anchor="middle" x="1303" y="-355.3" font-family="Times,serif" font-size="14.00" fill="#000000">DriveTrain</text>
<polyline fill="none" stroke="#000000" points="996,-347.5 1610,-347.5 "/>
<text text-anchor="middle" x="1303" y="-332.3" font-family="Times,serif" font-size="14.00" fill="#000000">&#45; is_enabled: bool</text>
<text text-anchor="middle" x="1303" y="-317.3" font-family="Times,serif" font-size="14.00" fill="#000000">&#45; left: MotorGroup</text>
<text text-anchor="middle" x="1303" y="-302.3" font-family="Times,serif" font-size="14.00" fill="#000000">&#45; right: MotorGroup</text>
<text text-anchor="middle" x="1303" y="-287.3" font-family="Times,serif" font-size="14.00" fill="#000000">&#45; robot_status: Arc&lt;RwLock&lt;RobotLifeStatus&gt;&gt;</text>
<polyline fill="none" stroke="#000000" points="996,-279.5 1610,-279.5 "/>
<text text-anchor="middle" x="1303" y="-264.3" font-family="Times,serif" font-size="14.00" fill="#000000">+ new(left: MotorGroup, right: MotorGroup, robot_status: Arc&lt;RwLock&lt;RobotLifeStatus&gt;&gt;) &#45;&gt; DriveTrain</text>
<text text-anchor="middle" x="1303" y="-249.3" font-family="Times,serif" font-size="14.00" fill="#000000">+ run_cycle(&amp;mut self) &#45;&gt; Result&lt;(), Vec&lt;MotorFailure&gt;&gt;</text>
<text text-anchor="middle" x="1303" y="-234.3" font-family="Times,serif" font-size="14.00" fill="#000000">+ drive(&amp;mut self, left_speed: f32, right_speed: f32) &#45;&gt; Result&lt;(), Vec&lt;MotorFailure&gt;&gt;</text>
<text text-anchor="middle" x="1303" y="-219.3" font-family="Times,serif" font-size="14.00" fill="#000000">+ brake(&amp;mut self) &#45;&gt; Result&lt;(), Vec&lt;MotorFailure&gt;&gt;</text>
<text text-anchor="middle" x="1303" y="-204.3" font-family="Times,serif" font-size="14.00" fill="#000000">+ enable(&amp;mut self)</text>
<text text-anchor="middle" x="1303" y="-189.3" font-family="Times,serif" font-size="14.00" fill="#000000">+ disable(&amp;mut self) &#45;&gt; Result&lt;(), Vec&lt;MotorFailure&gt;&gt;</text>
<text text-anchor="middle" x="1303" y="-174.3" font-family="Times,serif" font-size="14.00" fill="#000000">&#45; maintain_last(&amp;mut self) &#45;&gt; Result&lt;(), Vec&lt;MotorFailure&gt;&gt;</text>
</g>
<!-- ndMotorFailure&#45;&gt;ndDriveTrain -->
<g id="edge12" class="edge">
<title>ndMotorFailure&#45;&gt;ndDriveTrain</title>
<path fill="none" stroke="#000000" d="M1146.1979,-705.4688C1318.5762,-681.1608 1565.8817,-643.6981 1580,-627 1638.8261,-557.4246 1627.0669,-500.0124 1580,-422 1573.7473,-411.6362 1566.4868,-401.9708 1558.4412,-392.9606"/>
<polygon fill="#000000" stroke="#000000" points="1551.503,-385.5453 1561.6212,-389.773 1554.9191,-389.1964 1558.3353,-392.8474 1558.3353,-392.8474 1558.3353,-392.8474 1554.9191,-389.1964 1555.0493,-395.9219 1551.503,-385.5453 1551.503,-385.5453"/>
</g>
<!-- ndTestMotorGroup -->
<g id="node8" class="node">
<title>ndTestMotorGroup</title>
<polygon fill="none" stroke="#000000" points="534,-230.5 534,-321.5 738,-321.5 738,-230.5 534,-230.5"/>
<text text-anchor="middle" x="636" y="-306.3" font-family="Times,serif" font-size="14.00" fill="#000000">&lt;&lt;&lt;Structure&gt;&gt;&gt;</text>
<text text-anchor="middle" x="636" y="-291.3" font-family="Times,serif" font-size="14.00" fill="#000000">TestMotorGroup</text>
<polyline fill="none" stroke="#000000" points="534,-283.5 738,-283.5 "/>
<text text-anchor="middle" x="636" y="-268.3" font-family="Times,serif" font-size="14.00" fill="#000000">+ inverted: Arc&lt;RwLock&lt;bool&gt;&gt;</text>
<text text-anchor="middle" x="636" y="-253.3" font-family="Times,serif" font-size="14.00" fill="#000000">+ speed: Arc&lt;RwLock&lt;f32&gt;&gt;</text>
<text text-anchor="middle" x="636" y="-238.3" font-family="Times,serif" font-size="14.00" fill="#000000">+ motor_group: MotorGroup</text>
</g>
<!-- ndMotorGroup&#45;&gt;ndTestMotorGroup -->
<g id="edge13" class="edge">
<title>ndMotorGroup&#45;&gt;ndTestMotorGroup</title>
<path fill="none" stroke="#000000" d="M636,-422.3498C636,-392.0719 636,-359.9848 636,-333.5958"/>
<polygon fill="#000000" stroke="#000000" points="636.0001,-333.5166 632,-327.5166 636,-321.5166 640,-327.5166 636.0001,-333.5166"/>
</g>
<!-- ndMotorGroup&#45;&gt;ndDriveTrain -->
<g id="edge14" class="edge">
<title>ndMotorGroup&#45;&gt;ndDriveTrain</title>
<path fill="none" stroke="#000000" stroke-dasharray="5,2" d="M855.7709,-425.2365C858.5268,-424.1435 861.2707,-423.0642 864,-422 902.6469,-406.9312 943.567,-392.0004 984.2704,-377.7652"/>
<polygon fill="#000000" stroke="#000000" points="984.4108,-377.7163 988.7612,-371.9653 995.743,-373.769 991.3927,-379.5201 984.4108,-377.7163"/>
</g>
<!-- ndSensor -->
<g id="node10" class="node">
<title>ndSensor</title>
<polygon fill="none" stroke="#000000" points="1731,-852 1731,-913 1823,-913 1823,-852 1731,-852"/>
<text text-anchor="middle" x="1777" y="-897.8" font-family="Times,serif" font-size="14.00" fill="#000000">&lt;&lt;&lt;Trait&gt;&gt;&gt;</text>
<text text-anchor="middle" x="1777" y="-882.8" font-family="Times,serif" font-size="14.00" fill="#000000">Sensor</text>
<polyline fill="none" stroke="#000000" points="1731,-875 1823,-875 "/>
<text text-anchor="middle" x="1777" y="-859.8" font-family="Times,serif" font-size="14.00" fill="#000000"> </text>
</g>
<!-- ndRobotLifeStatus -->
<g id="node11" class="node">
<title>ndRobotLifeStatus</title>
<polygon fill="none" stroke="#000000" points="1666.5,-486.5 1666.5,-562.5 1803.5,-562.5 1803.5,-486.5 1666.5,-486.5"/>
<text text-anchor="middle" x="1735" y="-547.3" font-family="Times,serif" font-size="14.00" fill="#000000">&lt;&lt;&lt;Enumeration&gt;&gt;&gt;</text>
<text text-anchor="middle" x="1735" y="-532.3" font-family="Times,serif" font-size="14.00" fill="#000000">RobotLifeStatus</text>
<polyline fill="none" stroke="#000000" points="1666.5,-524.5 1803.5,-524.5 "/>
<text text-anchor="middle" x="1735" y="-509.3" font-family="Times,serif" font-size="14.00" fill="#000000">Alive</text>
<text text-anchor="middle" x="1735" y="-494.3" font-family="Times,serif" font-size="14.00" fill="#000000">Dead</text>
</g>
<!-- ndRobotView -->
<g id="node13" class="node">
<title>ndRobotView</title>
<polygon fill="none" stroke="#000000" points="1814,-166.5 1814,-385.5 2460,-385.5 2460,-166.5 1814,-166.5"/>
<text text-anchor="middle" x="2137" y="-370.3" font-family="Times,serif" font-size="14.00" fill="#000000">&lt;&lt;&lt;Structure&gt;&gt;&gt;</text>
<text text-anchor="middle" x="2137" y="-355.3" font-family="Times,serif" font-size="14.00" fill="#000000">RobotView</text>
<polyline fill="none" stroke="#000000" points="1814,-347.5 2460,-347.5 "/>
<text text-anchor="middle" x="2137" y="-332.3" font-family="Times,serif" font-size="14.00" fill="#000000">&#45; channel: Sender&lt;RobotControllerCommand&gt;</text>
<text text-anchor="middle" x="2137" y="-317.3" font-family="Times,serif" font-size="14.00" fill="#000000">&#45; robot_life_status: Arc&lt;RwLock&lt;RobotLifeStatus&gt;&gt;</text>
<polyline fill="none" stroke="#000000" points="1814,-309.5 2460,-309.5 "/>
<text text-anchor="middle" x="2137" y="-294.3" font-family="Times,serif" font-size="14.00" fill="#000000">+ new(channel: Sender&lt;RobotControllerCommand&gt;, robot_life_status: Arc&lt;RwLock&lt;RobotLifeStatus&gt;&gt;) &#45;&gt; Self</text>
<text text-anchor="middle" x="2137" y="-279.3" font-family="Times,serif" font-size="14.00" fill="#000000">+ revive(&amp;self) &#45;&gt; Result&lt;(), ()&gt;</text>
<text text-anchor="middle" x="2137" y="-264.3" font-family="Times,serif" font-size="14.00" fill="#000000">+ kill(&amp;self) &#45;&gt; Result&lt;(), ()&gt;</text>
<text text-anchor="middle" x="2137" y="-249.3" font-family="Times,serif" font-size="14.00" fill="#000000">+ drive(&amp;self, left: f32, right: f32) &#45;&gt; Result&lt;(), ()&gt;</text>
<text text-anchor="middle" x="2137" y="-234.3" font-family="Times,serif" font-size="14.00" fill="#000000">+ brake(&amp;self)</text>
<text text-anchor="middle" x="2137" y="-219.3" font-family="Times,serif" font-size="14.00" fill="#000000">+ enable_drive_train(&amp;self)</text>
<text text-anchor="middle" x="2137" y="-204.3" font-family="Times,serif" font-size="14.00" fill="#000000">+ disable_drive_train(&amp;self)</text>
<text text-anchor="middle" x="2137" y="-189.3" font-family="Times,serif" font-size="14.00" fill="#000000">&#45; send_command(&amp;self, command: RobotControllerCommand)</text>
<text text-anchor="middle" x="2137" y="-174.3" font-family="Times,serif" font-size="14.00" fill="#000000">&#45; change_life_status(&amp;self, status: RobotLifeStatus) &#45;&gt; Result&lt;(), ()&gt;</text>
</g>
<!-- ndRobotLifeStatus&#45;&gt;ndRobotView -->
<g id="edge15" class="edge">
<title>ndRobotLifeStatus&#45;&gt;ndRobotView</title>
<path fill="none" stroke="#000000" stroke-dasharray="5,2" d="M1796.4927,-486.4877C1837.5938,-461.0807 1894.0516,-426.1808 1949.1814,-392.1018"/>
<polygon fill="#000000" stroke="#000000" points="1949.2486,-392.0603 1952.249,-385.503 1959.4559,-385.7505 1956.4555,-392.3078 1949.2486,-392.0603"/>
</g>
<!-- ndRobotLifeStatus&#45;&gt;ndDriveTrain -->
<g id="edge16" class="edge">
<title>ndRobotLifeStatus&#45;&gt;ndDriveTrain</title>
<path fill="none" stroke="#000000" d="M1695.3924,-486.3037C1672.7205,-465.6686 1643.0728,-440.6702 1614,-422 1597.6867,-411.5238 1580.5023,-401.3542 1562.931,-391.5823"/>
<polygon fill="#000000" stroke="#000000" points="1562.4634,-391.3256 1555.2789,-391.9441 1551.9447,-385.5501 1559.1292,-384.9316 1562.4634,-391.3256"/>
</g>
<!-- ndRobotController -->
<g id="node16" class="node">
<title>ndRobotController</title>
<polygon fill="none" stroke="#000000" points="1169,-.5 1169,-129.5 2183,-129.5 2183,-.5 1169,-.5"/>
<text text-anchor="middle" x="1676" y="-114.3" font-family="Times,serif" font-size="14.00" fill="#000000">&lt;&lt;&lt;Structure&gt;&gt;&gt;</text>
<text text-anchor="middle" x="1676" y="-99.3" font-family="Times,serif" font-size="14.00" fill="#000000">RobotController</text>
<polyline fill="none" stroke="#000000" points="1169,-91.5 2183,-91.5 "/>
<text text-anchor="middle" x="1676" y="-76.3" font-family="Times,serif" font-size="14.00" fill="#000000">&#45; driver_station_view: CommsView</text>
<text text-anchor="middle" x="1676" y="-61.3" font-family="Times,serif" font-size="14.00" fill="#000000">&#45; command_receiver: Receiver&lt;RobotControllerCommand&gt;</text>
<text text-anchor="middle" x="1676" y="-46.3" font-family="Times,serif" font-size="14.00" fill="#000000">&#45; drive_train: DriveTrain</text>
<text text-anchor="middle" x="1676" y="-31.3" font-family="Times,serif" font-size="14.00" fill="#000000">&#45; life_status: Arc&lt;RwLock&lt;RobotLifeStatus&gt;&gt;</text>
<polyline fill="none" stroke="#000000" points="1169,-23.5 2183,-23.5 "/>
<text text-anchor="middle" x="1676" y="-8.3" font-family="Times,serif" font-size="14.00" fill="#000000">+ new(driver_station_view: CommsView, command_receiver: Receiver&lt;RobotControllerCommand&gt;, drive_train: DriveTrain, life_status: Arc&lt;RwLock&lt;RobotLifeStatus&gt;&gt;) &#45;&gt; Self</text>
</g>
<!-- ndRobotLifeStatus&#45;&gt;ndRobotController -->
<g id="edge17" class="edge">
<title>ndRobotLifeStatus&#45;&gt;ndRobotController</title>
<path fill="none" stroke="#000000" d="M1721.4587,-486.231C1712.3395,-458.7171 1700.9328,-420.5331 1695,-386 1680.8138,-303.4263 1676.7308,-207.3481 1675.7806,-141.9778"/>
<polygon fill="#000000" stroke="#000000" points="1675.7778,-141.7323 1671.7062,-135.7807 1675.6341,-129.7332 1679.7056,-135.6849 1675.7778,-141.7323"/>
</g>
<!-- ndRobotControllerCommand -->
<g id="node12" class="node">
<title>ndRobotControllerCommand</title>
<polygon fill="none" stroke="#000000" points="2131.5,-471.5 2131.5,-577.5 2324.5,-577.5 2324.5,-471.5 2131.5,-471.5"/>
<text text-anchor="middle" x="2228" y="-562.3" font-family="Times,serif" font-size="14.00" fill="#000000">&lt;&lt;&lt;Enumeration&gt;&gt;&gt;</text>
<text text-anchor="middle" x="2228" y="-547.3" font-family="Times,serif" font-size="14.00" fill="#000000">RobotControllerCommand</text>
<polyline fill="none" stroke="#000000" points="2131.5,-539.5 2324.5,-539.5 "/>
<text text-anchor="middle" x="2228" y="-524.3" font-family="Times,serif" font-size="14.00" fill="#000000">Drive(DriveCommandMessage)</text>
<text text-anchor="middle" x="2228" y="-509.3" font-family="Times,serif" font-size="14.00" fill="#000000">Brake</text>
<text text-anchor="middle" x="2228" y="-494.3" font-family="Times,serif" font-size="14.00" fill="#000000">Enable</text>
<text text-anchor="middle" x="2228" y="-479.3" font-family="Times,serif" font-size="14.00" fill="#000000">Disable</text>
</g>
<!-- ndRobotControllerCommand&#45;&gt;ndRobotView -->
<g id="edge18" class="edge">
<title>ndRobotControllerCommand&#45;&gt;ndRobotView</title>
<path fill="none" stroke="#000000" stroke-dasharray="5,2" d="M2208.5898,-471.4953C2200.5871,-449.6418 2190.9581,-423.347 2181.3942,-397.2303"/>
<polygon fill="#000000" stroke="#000000" points="2181.2846,-396.9308 2175.4653,-392.6721 2177.1581,-385.6625 2182.9774,-389.9212 2181.2846,-396.9308"/>
</g>
<!-- ndRobotControllerCommand&#45;&gt;ndRobotController -->
<g id="edge19" class="edge">
<title>ndRobotControllerCommand&#45;&gt;ndRobotController</title>
<path fill="none" stroke="#000000" d="M2324.6813,-495.5958C2377.3407,-474.3583 2437.941,-439.6719 2469,-386 2517.9735,-301.3709 2533.6242,-239.3771 2469,-166 2463.2786,-159.5037 2341.5057,-142.7234 2195.0323,-124.6644"/>
<polygon fill="#000000" stroke="#000000" points="2194.99,-124.6593 2188.5466,-127.897 2183.0797,-123.1946 2189.5231,-119.9568 2194.99,-124.6593"/>
</g>
<!-- ndCommsState -->
<g id="node19" class="node">
<title>ndCommsState</title>
<polygon fill="none" stroke="#000000" points="2281.5,-27 2281.5,-103 2610.5,-103 2610.5,-27 2281.5,-27"/>
<text text-anchor="middle" x="2446" y="-87.8" font-family="Times,serif" font-size="14.00" fill="#000000">&lt;&lt;&lt;Structure&gt;&gt;&gt;</text>
<text text-anchor="middle" x="2446" y="-72.8" font-family="Times,serif" font-size="14.00" fill="#000000">CommsState</text>
<polyline fill="none" stroke="#000000" points="2281.5,-65 2610.5,-65 "/>
<text text-anchor="middle" x="2446" y="-49.8" font-family="Times,serif" font-size="14.00" fill="#000000">&#45; receiver: Mutex&lt;Receiver&lt;Box&lt;SendableMessage&gt;&gt;&gt;</text>
<text text-anchor="middle" x="2446" y="-34.8" font-family="Times,serif" font-size="14.00" fill="#000000">&#45; robot_controller: Mutex&lt;RobotView&gt;</text>
</g>
<!-- ndRobotView&#45;&gt;ndCommsState -->
<g id="edge20" class="edge">
<title>ndRobotView&#45;&gt;ndCommsState</title>
<path fill="none" stroke="#000000" d="M2297.383,-166.4828C2326.5716,-146.5514 2355.4798,-126.8115 2379.9323,-110.1142"/>
<polygon fill="#000000" stroke="#000000" points="2380.217,-109.9198 2382.9164,-103.2329 2390.127,-103.1527 2387.4277,-109.8396 2380.217,-109.9198"/>
</g>
<!-- ndDriveCommandMessage -->
<g id="node14" class="node">
<title>ndDriveCommandMessage</title>
<polygon fill="none" stroke="#000000" points="2050,-678.5 2050,-777.5 2406,-777.5 2406,-678.5 2050,-678.5"/>
<text text-anchor="middle" x="2228" y="-762.3" font-family="Times,serif" font-size="14.00" fill="#000000">&lt;&lt;&lt;Structure&gt;&gt;&gt;</text>
<text text-anchor="middle" x="2228" y="-747.3" font-family="Times,serif" font-size="14.00" fill="#000000">DriveCommandMessage</text>
<polyline fill="none" stroke="#000000" points="2050,-739.5 2406,-739.5 "/>
<text text-anchor="middle" x="2228" y="-724.3" font-family="Times,serif" font-size="14.00" fill="#000000">&#45; left_speed: f32</text>
<text text-anchor="middle" x="2228" y="-709.3" font-family="Times,serif" font-size="14.00" fill="#000000">&#45; right_speed: f32</text>
<polyline fill="none" stroke="#000000" points="2050,-701.5 2406,-701.5 "/>
<text text-anchor="middle" x="2228" y="-686.3" font-family="Times,serif" font-size="14.00" fill="#000000">+ create(left_speed: f32, right_speed: f32) &#45;&gt; Result&lt;Self, ()&gt;</text>
</g>
<!-- ndDriveCommandMessage&#45;&gt;ndRobotControllerCommand -->
<g id="edge21" class="edge">
<title>ndDriveCommandMessage&#45;&gt;ndRobotControllerCommand</title>
<path fill="none" stroke="#000000" d="M2228,-678.4785C2228,-651.8162 2228,-618.5895 2228,-589.8333"/>
<polygon fill="#000000" stroke="#000000" points="2228.0001,-589.8151 2224,-583.8151 2228,-577.8151 2232,-583.815 2228.0001,-589.8151"/>
</g>
<!-- ndDriveTrain&#45;&gt;ndRobotController -->
<g id="edge22" class="edge">
<title>ndDriveTrain&#45;&gt;ndRobotController</title>
<path fill="none" stroke="#000000" stroke-dasharray="5,2" d="M1496.6015,-166.4828C1515.111,-156.0122 1533.5272,-145.5945 1551.1192,-135.643"/>
<polygon fill="#000000" stroke="#000000" points="1551.5151,-135.4191 1554.7679,-128.9834 1561.9598,-129.5107 1558.7069,-135.9465 1551.5151,-135.4191"/>
</g>
<!-- ndSendableMessage -->
<g id="node17" class="node">
<title>ndSendableMessage</title>
<polygon fill="none" stroke="#000000" points="1563,-852 1563,-913 1713,-913 1713,-852 1563,-852"/>
<text text-anchor="middle" x="1638" y="-897.8" font-family="Times,serif" font-size="14.00" fill="#000000">&lt;&lt;&lt;Trait&gt;&gt;&gt;</text>
<text text-anchor="middle" x="1638" y="-882.8" font-family="Times,serif" font-size="14.00" fill="#000000">SendableMessage</text>
<polyline fill="none" stroke="#000000" points="1563,-875 1713,-875 "/>
<text text-anchor="middle" x="1638" y="-859.8" font-family="Times,serif" font-size="14.00" fill="#000000">encode(&amp;Self) &#45;&gt; String</text>
</g>
<!-- ndSendableMessage&#45;&gt;ndMotorFailure -->
<g id="edge23" class="edge">
<title>ndSendableMessage&#45;&gt;ndMotorFailure</title>
<path fill="none" stroke="#000000" stroke-dasharray="5,2" d="M1562.9538,-864.8522C1464.4944,-841.6984 1288.6618,-800.3497 1155.9598,-769.1435"/>
<polygon fill="none" stroke="#000000" points="1156.6158,-765.7024 1146.0801,-766.8202 1155.0133,-772.5165 1156.6158,-765.7024"/>
</g>
<!-- ndCommsView -->
<g id="node18" class="node">
<title>ndCommsView</title>
<polygon fill="none" stroke="#000000" points="1466,-678.5 1466,-777.5 1810,-777.5 1810,-678.5 1466,-678.5"/>
<text text-anchor="middle" x="1638" y="-762.3" font-family="Times,serif" font-size="14.00" fill="#000000">&lt;&lt;&lt;Structure&gt;&gt;&gt;</text>
<text text-anchor="middle" x="1638" y="-747.3" font-family="Times,serif" font-size="14.00" fill="#000000">CommsView</text>
<polyline fill="none" stroke="#000000" points="1466,-739.5 1810,-739.5 "/>
<text text-anchor="middle" x="1638" y="-724.3" font-family="Times,serif" font-size="14.00" fill="#000000">&#45; channel: Sender&lt;Box&lt;SendableMessage&gt;&gt;</text>
<polyline fill="none" stroke="#000000" points="1466,-716.5 1810,-716.5 "/>
<text text-anchor="middle" x="1638" y="-701.3" font-family="Times,serif" font-size="14.00" fill="#000000">+ send_message(&amp;self, message: Box&lt;SendableMessage&gt;)</text>
<text text-anchor="middle" x="1638" y="-686.3" font-family="Times,serif" font-size="14.00" fill="#000000">&#45; new(channel: Sender&lt;Box&lt;SendableMessage&gt;&gt;) &#45;&gt; Self</text>
</g>
<!-- ndSendableMessage&#45;&gt;ndCommsView -->
<g id="edge24" class="edge">
<title>ndSendableMessage&#45;&gt;ndCommsView</title>
<path fill="none" stroke="#000000" d="M1638,-851.9758C1638,-834.1762 1638,-811.0752 1638,-789.6459"/>
<polygon fill="#000000" stroke="#000000" points="1638.0001,-789.6171 1634,-783.6171 1638,-777.6171 1642,-783.617 1638.0001,-789.6171"/>
</g>
<!-- ndSendableMessage&#45;&gt;ndCommsState -->
<g id="edge25" class="edge">
<title>ndSendableMessage&#45;&gt;ndCommsState</title>
<path fill="none" stroke="#000000" d="M1676.8949,-851.8524C1690.4254,-842.8431 1706.1903,-834.0557 1722,-829 1795.4401,-805.515 2356.2123,-842.8899 2415,-793 2629.5989,-610.8818 2576.5314,-437.9539 2504,-166 2499.1736,-147.9035 2490.2469,-129.6802 2480.8188,-113.7909"/>
<polygon fill="#000000" stroke="#000000" points="2480.5741,-113.3957 2474.0143,-110.4008 2474.2558,-103.1937 2480.8156,-106.1886 2480.5741,-113.3957"/>
</g>
<!-- ndCommsView&#45;&gt;ndRobotController -->
<g id="edge26" class="edge">
<title>ndCommsView&#45;&gt;ndRobotController</title>
<path fill="none" stroke="#000000" stroke-dasharray="5,2" d="M1640.8406,-678.4384C1647.418,-563.6807 1663.7316,-279.0518 1671.6073,-141.6414"/>
<polygon fill="#000000" stroke="#000000" points="1671.6101,-141.5912 1667.96,-135.3721 1672.2968,-129.6109 1675.9469,-135.83 1671.6101,-141.5912"/>
</g>
<!-- ndRunnable -->
<g id="node20" class="node">
<title>ndRunnable</title>
<polygon fill="none" stroke="#000000" points="1704,-245.5 1704,-306.5 1796,-306.5 1796,-245.5 1704,-245.5"/>
<text text-anchor="middle" x="1750" y="-291.3" font-family="Times,serif" font-size="14.00" fill="#000000">&lt;&lt;&lt;Trait&gt;&gt;&gt;</text>
<text text-anchor="middle" x="1750" y="-276.3" font-family="Times,serif" font-size="14.00" fill="#000000">Runnable</text>
<polyline fill="none" stroke="#000000" points="1704,-268.5 1796,-268.5 "/>
<text text-anchor="middle" x="1750" y="-253.3" font-family="Times,serif" font-size="14.00" fill="#000000"> </text>
</g>
<!-- ndRunnable&#45;&gt;ndRobotController -->
<g id="edge27" class="edge">
<title>ndRunnable&#45;&gt;ndRobotController</title>
<path fill="none" stroke="#000000" stroke-dasharray="5,2" d="M1739.2398,-245.3188C1729.5253,-217.6195 1714.8389,-175.7434 1702.0637,-139.3168"/>
<polygon fill="none" stroke="#000000" points="1705.3019,-137.9741 1698.6896,-129.696 1698.6964,-140.2908 1705.3019,-137.9741"/>
</g>
</g>
</svg>
