<?xml version="1.0" encoding="UTF-8" standalone="no"?>
<!DOCTYPE svg PUBLIC "-//W3C//DTD SVG 1.1//EN"
 "http://www.w3.org/Graphics/SVG/1.1/DTD/svg11.dtd">
<!-- Generated by graphviz version 2.40.1 (20161225.0304)
 -->
<!-- Title: ml Pages: 1 -->
<svg width="2613pt" height="1336pt"
 viewBox="0.00 0.00 2612.84 1336.00" xmlns="http://www.w3.org/2000/svg" xmlns:xlink="http://www.w3.org/1999/xlink">
<g id="graph0" class="graph" transform="scale(1 1) rotate(0) translate(4 1332)">
<title>ml</title>
<polygon fill="#ffffff" stroke="transparent" points="-4,4 -4,-1332 2608.836,-1332 2608.836,4 -4,4"/>
<!-- ndTestMotorGroup -->
<g id="node1" class="node">
<title>ndTestMotorGroup</title>
<polygon fill="none" stroke="#000000" points="2215.336,-615 2215.336,-706 2419.336,-706 2419.336,-615 2215.336,-615"/>
<text text-anchor="middle" x="2317.336" y="-690.8" font-family="Times,serif" font-size="14.00" fill="#000000">&lt;&lt;&lt;Structure&gt;&gt;&gt;</text>
<text text-anchor="middle" x="2317.336" y="-675.8" font-family="Times,serif" font-size="14.00" fill="#000000">TestMotorGroup</text>
<polyline fill="none" stroke="#000000" points="2215.336,-668 2419.336,-668 "/>
<text text-anchor="middle" x="2317.336" y="-652.8" font-family="Times,serif" font-size="14.00" fill="#000000">+ inverted: Arc&lt;RwLock&lt;bool&gt;&gt;</text>
<text text-anchor="middle" x="2317.336" y="-637.8" font-family="Times,serif" font-size="14.00" fill="#000000">+ speed: Arc&lt;RwLock&lt;f32&gt;&gt;</text>
<text text-anchor="middle" x="2317.336" y="-622.8" font-family="Times,serif" font-size="14.00" fill="#000000">+ motor_group: MotorGroup</text>
</g>
<!-- ndPwmMotor -->
<g id="node2" class="node">
<title>ndPwmMotor</title>
<polygon fill="none" stroke="#000000" points="1157.336,-844.5 1157.336,-973.5 1555.336,-973.5 1555.336,-844.5 1157.336,-844.5"/>
<text text-anchor="middle" x="1356.336" y="-958.3" font-family="Times,serif" font-size="14.00" fill="#000000">&lt;&lt;&lt;Structure&gt;&gt;&gt;</text>
<text text-anchor="middle" x="1356.336" y="-943.3" font-family="Times,serif" font-size="14.00" fill="#000000">PwmMotor</text>
<polyline fill="none" stroke="#000000" points="1157.336,-935.5 1555.336,-935.5 "/>
<text text-anchor="middle" x="1356.336" y="-920.3" font-family="Times,serif" font-size="14.00" fill="#000000">&#45; is_inverted: bool</text>
<text text-anchor="middle" x="1356.336" y="-905.3" font-family="Times,serif" font-size="14.00" fill="#000000">&#45; pwm: Pwm</text>
<text text-anchor="middle" x="1356.336" y="-890.3" font-family="Times,serif" font-size="14.00" fill="#000000">&#45; direction: Pin</text>
<text text-anchor="middle" x="1356.336" y="-875.3" font-family="Times,serif" font-size="14.00" fill="#000000">&#45; state: MotorState</text>
<polyline fill="none" stroke="#000000" points="1157.336,-867.5 1555.336,-867.5 "/>
<text text-anchor="middle" x="1356.336" y="-852.3" font-family="Times,serif" font-size="14.00" fill="#000000">+ create(pwm: Pwm, direction: Pin, id: MotorID) &#45;&gt; Result&lt;Self, ()&gt;</text>
</g>
<!-- ndMotorGroup -->
<g id="node3" class="node">
<title>ndMotorGroup</title>
<polygon fill="none" stroke="#000000" points="2289.836,-814.5 2289.836,-1003.5 2604.836,-1003.5 2604.836,-814.5 2289.836,-814.5"/>
<text text-anchor="middle" x="2447.336" y="-988.3" font-family="Times,serif" font-size="14.00" fill="#000000">&lt;&lt;&lt;Structure&gt;&gt;&gt;</text>
<text text-anchor="middle" x="2447.336" y="-973.3" font-family="Times,serif" font-size="14.00" fill="#000000">MotorGroup</text>
<polyline fill="none" stroke="#000000" points="2289.836,-965.5 2604.836,-965.5 "/>
<text text-anchor="middle" x="2447.336" y="-950.3" font-family="Times,serif" font-size="14.00" fill="#000000">&#45; motors: Vec&lt;Box&lt;MotorController&gt;&gt;</text>
<text text-anchor="middle" x="2447.336" y="-935.3" font-family="Times,serif" font-size="14.00" fill="#000000">&#45; old_speed: f32</text>
<polyline fill="none" stroke="#000000" points="2289.836,-927.5 2604.836,-927.5 "/>
<text text-anchor="middle" x="2447.336" y="-912.3" font-family="Times,serif" font-size="14.00" fill="#000000">+ new(motors: Vec&lt;Box&lt;MotorController&gt;&gt;) &#45;&gt; Self</text>
<text text-anchor="middle" x="2447.336" y="-897.3" font-family="Times,serif" font-size="14.00" fill="#000000">+ set_speed(&amp;mut self, new_speed: f32)</text>
<text text-anchor="middle" x="2447.336" y="-882.3" font-family="Times,serif" font-size="14.00" fill="#000000">+ stop(&amp;mut self)</text>
<text text-anchor="middle" x="2447.336" y="-867.3" font-family="Times,serif" font-size="14.00" fill="#000000">+ invert(&amp;mut self)</text>
<text text-anchor="middle" x="2447.336" y="-852.3" font-family="Times,serif" font-size="14.00" fill="#000000">+ maintain_last(&amp;mut self)</text>
<text text-anchor="middle" x="2447.336" y="-837.3" font-family="Times,serif" font-size="14.00" fill="#000000">+ get_states(&amp;self) &#45;&gt; Vec&lt;MotorState&gt;</text>
<text text-anchor="middle" x="2447.336" y="-822.3" font-family="Times,serif" font-size="14.00" fill="#000000">&#45; run_operation(&amp;mut self, operation: T)</text>
</g>
<!-- ndMotorGroup&#45;&gt;ndTestMotorGroup -->
<g id="edge1" class="edge">
<title>ndMotorGroup&#45;&gt;ndTestMotorGroup</title>
<path fill="none" stroke="#000000" d="M2397.8178,-814.3439C2380.6389,-781.5058 2361.9282,-745.7396 2346.8744,-716.9638"/>
<polygon fill="#000000" stroke="#000000" points="2346.8574,-716.931 2340.5318,-713.4688 2341.2948,-706.2981 2347.6204,-709.7604 2346.8574,-716.931"/>
</g>
<!-- ndDriveTrain -->
<g id="node10" class="node">
<title>ndDriveTrain</title>
<polygon fill="none" stroke="#000000" points="1233.336,-543.5 1233.336,-777.5 1847.336,-777.5 1847.336,-543.5 1233.336,-543.5"/>
<text text-anchor="middle" x="1540.336" y="-762.3" font-family="Times,serif" font-size="14.00" fill="#000000">&lt;&lt;&lt;Structure&gt;&gt;&gt;</text>
<text text-anchor="middle" x="1540.336" y="-747.3" font-family="Times,serif" font-size="14.00" fill="#000000">DriveTrain</text>
<polyline fill="none" stroke="#000000" points="1233.336,-739.5 1847.336,-739.5 "/>
<text text-anchor="middle" x="1540.336" y="-724.3" font-family="Times,serif" font-size="14.00" fill="#000000">&#45; is_enabled: bool</text>
<text text-anchor="middle" x="1540.336" y="-709.3" font-family="Times,serif" font-size="14.00" fill="#000000">&#45; left: MotorGroup</text>
<text text-anchor="middle" x="1540.336" y="-694.3" font-family="Times,serif" font-size="14.00" fill="#000000">&#45; right: MotorGroup</text>
<text text-anchor="middle" x="1540.336" y="-679.3" font-family="Times,serif" font-size="14.00" fill="#000000">&#45; robot_status: Arc&lt;RwLock&lt;RobotLifeStatus&gt;&gt;</text>
<polyline fill="none" stroke="#000000" points="1233.336,-671.5 1847.336,-671.5 "/>
<text text-anchor="middle" x="1540.336" y="-656.3" font-family="Times,serif" font-size="14.00" fill="#000000">+ new(left: MotorGroup, right: MotorGroup, robot_status: Arc&lt;RwLock&lt;RobotLifeStatus&gt;&gt;) &#45;&gt; DriveTrain</text>
<text text-anchor="middle" x="1540.336" y="-641.3" font-family="Times,serif" font-size="14.00" fill="#000000">+ run_cycle(&amp;mut self)</text>
<text text-anchor="middle" x="1540.336" y="-626.3" font-family="Times,serif" font-size="14.00" fill="#000000">+ drive(&amp;mut self, left_speed: f32, right_speed: f32)</text>
<text text-anchor="middle" x="1540.336" y="-611.3" font-family="Times,serif" font-size="14.00" fill="#000000">+ brake(&amp;mut self)</text>
<text text-anchor="middle" x="1540.336" y="-596.3" font-family="Times,serif" font-size="14.00" fill="#000000">+ enable(&amp;mut self)</text>
<text text-anchor="middle" x="1540.336" y="-581.3" font-family="Times,serif" font-size="14.00" fill="#000000">+ disable(&amp;mut self)</text>
<text text-anchor="middle" x="1540.336" y="-566.3" font-family="Times,serif" font-size="14.00" fill="#000000">+ get_motor_states(&amp;self) &#45;&gt; Vec&lt;MotorState&gt;</text>
<text text-anchor="middle" x="1540.336" y="-551.3" font-family="Times,serif" font-size="14.00" fill="#000000">&#45; maintain_last(&amp;mut self)</text>
</g>
<!-- ndMotorGroup&#45;&gt;ndDriveTrain -->
<g id="edge2" class="edge">
<title>ndMotorGroup&#45;&gt;ndDriveTrain</title>
<path fill="none" stroke="#000000" stroke-dasharray="5,2" d="M2289.7422,-817.2999C2286.9342,-816.1599 2284.1308,-815.0584 2281.336,-814 2147.1665,-763.1872 1992.6255,-727.7934 1859.5077,-703.9102"/>
<polygon fill="#000000" stroke="#000000" points="1859.3294,-703.8786 1852.7221,-706.7671 1847.5145,-701.779 1854.1218,-698.8905 1859.3294,-703.8786"/>
</g>
<!-- ndRobotBuilder -->
<g id="node21" class="node">
<title>ndRobotBuilder</title>
<polygon fill="none" stroke="#000000" points="1570.836,-.5 1570.836,-144.5 1971.836,-144.5 1971.836,-.5 1570.836,-.5"/>
<text text-anchor="middle" x="1771.336" y="-129.3" font-family="Times,serif" font-size="14.00" fill="#000000">&lt;&lt;&lt;Structure&gt;&gt;&gt;</text>
<text text-anchor="middle" x="1771.336" y="-114.3" font-family="Times,serif" font-size="14.00" fill="#000000">RobotBuilder</text>
<polyline fill="none" stroke="#000000" points="1570.836,-106.5 1971.836,-106.5 "/>
<text text-anchor="middle" x="1771.336" y="-91.3" font-family="Times,serif" font-size="14.00" fill="#000000">&#45; left_drive: MotorGroup</text>
<text text-anchor="middle" x="1771.336" y="-76.3" font-family="Times,serif" font-size="14.00" fill="#000000">&#45; right_drive: MotorGroup</text>
<polyline fill="none" stroke="#000000" points="1570.836,-68.5 1971.836,-68.5 "/>
<text text-anchor="middle" x="1771.336" y="-53.3" font-family="Times,serif" font-size="14.00" fill="#000000">+ use_drive_groups(&amp;mut self, left: MotorGroup, right: MotorGroup)</text>
<text text-anchor="middle" x="1771.336" y="-38.3" font-family="Times,serif" font-size="14.00" fill="#000000">+ use_real_drive(&amp;mut self)</text>
<text text-anchor="middle" x="1771.336" y="-23.3" font-family="Times,serif" font-size="14.00" fill="#000000">+ new() &#45;&gt; Self</text>
<text text-anchor="middle" x="1771.336" y="-8.3" font-family="Times,serif" font-size="14.00" fill="#000000">+ build(self) &#45;&gt; Robot</text>
</g>
<!-- ndMotorGroup&#45;&gt;ndRobotBuilder -->
<g id="edge3" class="edge">
<title>ndMotorGroup&#45;&gt;ndRobotBuilder</title>
<path fill="none" stroke="#000000" stroke-dasharray="5,2" d="M2463.9999,-814.2209C2472.8087,-736.5127 2473.8373,-626.1718 2428.336,-543 2326.0857,-356.0964 2113.9643,-225.3754 1958.2983,-149.9493"/>
<polygon fill="#000000" stroke="#000000" points="1958.0073,-149.8095 1950.867,-150.8175 1947.1903,-144.6141 1954.3306,-143.6061 1958.0073,-149.8095"/>
</g>
<!-- ndTestMotor -->
<g id="node4" class="node">
<title>ndTestMotor</title>
<polygon fill="none" stroke="#000000" points="1573.836,-844.5 1573.836,-973.5 2050.836,-973.5 2050.836,-844.5 1573.836,-844.5"/>
<text text-anchor="middle" x="1812.336" y="-958.3" font-family="Times,serif" font-size="14.00" fill="#000000">&lt;&lt;&lt;Structure&gt;&gt;&gt;</text>
<text text-anchor="middle" x="1812.336" y="-943.3" font-family="Times,serif" font-size="14.00" fill="#000000">TestMotor</text>
<polyline fill="none" stroke="#000000" points="1573.836,-935.5 2050.836,-935.5 "/>
<text text-anchor="middle" x="1812.336" y="-920.3" font-family="Times,serif" font-size="14.00" fill="#000000">&#45; inverted: Arc&lt;RwLock&lt;bool&gt;&gt;</text>
<text text-anchor="middle" x="1812.336" y="-905.3" font-family="Times,serif" font-size="14.00" fill="#000000">&#45; speed: Arc&lt;RwLock&lt;f32&gt;&gt;</text>
<text text-anchor="middle" x="1812.336" y="-890.3" font-family="Times,serif" font-size="14.00" fill="#000000">&#45; state: MotorState</text>
<polyline fill="none" stroke="#000000" points="1573.836,-882.5 2050.836,-882.5 "/>
<text text-anchor="middle" x="1812.336" y="-867.3" font-family="Times,serif" font-size="14.00" fill="#000000">+ new(inverted: Arc&lt;RwLock&lt;bool&gt;&gt;, speed: Arc&lt;RwLock&lt;f32&gt;&gt;) &#45;&gt; TestMotor</text>
<text text-anchor="middle" x="1812.336" y="-852.3" font-family="Times,serif" font-size="14.00" fill="#000000">&#45; set_motor_state(&amp;mut self, new_state: MotorState)</text>
</g>
<!-- ndPrintMotor -->
<g id="node5" class="node">
<title>ndPrintMotor</title>
<polygon fill="none" stroke="#000000" points="2068.836,-844.5 2068.836,-973.5 2271.836,-973.5 2271.836,-844.5 2068.836,-844.5"/>
<text text-anchor="middle" x="2170.336" y="-958.3" font-family="Times,serif" font-size="14.00" fill="#000000">&lt;&lt;&lt;Structure&gt;&gt;&gt;</text>
<text text-anchor="middle" x="2170.336" y="-943.3" font-family="Times,serif" font-size="14.00" fill="#000000">PrintMotor</text>
<polyline fill="none" stroke="#000000" points="2068.836,-935.5 2271.836,-935.5 "/>
<text text-anchor="middle" x="2170.336" y="-920.3" font-family="Times,serif" font-size="14.00" fill="#000000">&#45; name: String</text>
<text text-anchor="middle" x="2170.336" y="-905.3" font-family="Times,serif" font-size="14.00" fill="#000000">&#45; inverted: bool</text>
<text text-anchor="middle" x="2170.336" y="-890.3" font-family="Times,serif" font-size="14.00" fill="#000000">&#45; last: f32</text>
<text text-anchor="middle" x="2170.336" y="-875.3" font-family="Times,serif" font-size="14.00" fill="#000000">&#45; is_stopped: bool</text>
<polyline fill="none" stroke="#000000" points="2068.836,-867.5 2271.836,-867.5 "/>
<text text-anchor="middle" x="2170.336" y="-852.3" font-family="Times,serif" font-size="14.00" fill="#000000">+ new(name: &amp;str) &#45;&gt; PrintMotor</text>
</g>
<!-- ndMotorStateKind -->
<g id="node6" class="node">
<title>ndMotorStateKind</title>
<polygon fill="none" stroke="#000000" points="1475.836,-1221.5 1475.836,-1312.5 1612.836,-1312.5 1612.836,-1221.5 1475.836,-1221.5"/>
<text text-anchor="middle" x="1544.336" y="-1297.3" font-family="Times,serif" font-size="14.00" fill="#000000">&lt;&lt;&lt;Enumeration&gt;&gt;&gt;</text>
<text text-anchor="middle" x="1544.336" y="-1282.3" font-family="Times,serif" font-size="14.00" fill="#000000">MotorStateKind</text>
<polyline fill="none" stroke="#000000" points="1475.836,-1274.5 1612.836,-1274.5 "/>
<text text-anchor="middle" x="1544.336" y="-1259.3" font-family="Times,serif" font-size="14.00" fill="#000000">Unknown</text>
<text text-anchor="middle" x="1544.336" y="-1244.3" font-family="Times,serif" font-size="14.00" fill="#000000">Unexported</text>
<text text-anchor="middle" x="1544.336" y="-1229.3" font-family="Times,serif" font-size="14.00" fill="#000000">Ok</text>
</g>
<!-- ndMotorState -->
<g id="node8" class="node">
<title>ndMotorState</title>
<polygon fill="none" stroke="#000000" points="1384.836,-1040.5 1384.836,-1169.5 1703.836,-1169.5 1703.836,-1040.5 1384.836,-1040.5"/>
<text text-anchor="middle" x="1544.336" y="-1154.3" font-family="Times,serif" font-size="14.00" fill="#000000">&lt;&lt;&lt;Structure&gt;&gt;&gt;</text>
<text text-anchor="middle" x="1544.336" y="-1139.3" font-family="Times,serif" font-size="14.00" fill="#000000">MotorState</text>
<polyline fill="none" stroke="#000000" points="1384.836,-1131.5 1703.836,-1131.5 "/>
<text text-anchor="middle" x="1544.336" y="-1116.3" font-family="Times,serif" font-size="14.00" fill="#000000">&#45; motor: MotorID</text>
<text text-anchor="middle" x="1544.336" y="-1101.3" font-family="Times,serif" font-size="14.00" fill="#000000">&#45; kind: MotorStateKind</text>
<polyline fill="none" stroke="#000000" points="1384.836,-1093.5 1703.836,-1093.5 "/>
<text text-anchor="middle" x="1544.336" y="-1078.3" font-family="Times,serif" font-size="14.00" fill="#000000">+ new(motor: MotorID, kind: MotorStateKind) &#45;&gt; Self</text>
<text text-anchor="middle" x="1544.336" y="-1063.3" font-family="Times,serif" font-size="14.00" fill="#000000">+ get_motor(&amp;self) &#45;&gt; MotorID</text>
<text text-anchor="middle" x="1544.336" y="-1048.3" font-family="Times,serif" font-size="14.00" fill="#000000">+ get_kind(&amp;self) &#45;&gt; MotorStateKind</text>
</g>
<!-- ndMotorStateKind&#45;&gt;ndMotorState -->
<g id="edge4" class="edge">
<title>ndMotorStateKind&#45;&gt;ndMotorState</title>
<path fill="none" stroke="#000000" stroke-dasharray="5,2" d="M1544.336,-1221.4429C1544.336,-1209.1189 1544.336,-1195.4314 1544.336,-1181.897"/>
<polygon fill="#000000" stroke="#000000" points="1544.3361,-1181.554 1540.3361,-1175.5541 1544.336,-1169.554 1548.3361,-1175.554 1544.3361,-1181.554"/>
</g>
<!-- ndMotorController -->
<g id="node7" class="node">
<title>ndMotorController</title>
<polygon fill="none" stroke="#000000" points="1889.336,-1074.5 1889.336,-1135.5 2117.336,-1135.5 2117.336,-1074.5 1889.336,-1074.5"/>
<text text-anchor="middle" x="2003.336" y="-1120.3" font-family="Times,serif" font-size="14.00" fill="#000000">&lt;&lt;&lt;Trait&gt;&gt;&gt;</text>
<text text-anchor="middle" x="2003.336" y="-1105.3" font-family="Times,serif" font-size="14.00" fill="#000000">MotorController</text>
<polyline fill="none" stroke="#000000" points="1889.336,-1097.5 2117.336,-1097.5 "/>
<text text-anchor="middle" x="2003.336" y="-1082.3" font-family="Times,serif" font-size="14.00" fill="#000000">get_motor_state(&amp;Self) &#45;&gt; MotorState</text>
</g>
<!-- ndMotorController&#45;&gt;ndPwmMotor -->
<g id="edge5" class="edge">
<title>ndMotorController&#45;&gt;ndPwmMotor</title>
<path fill="none" stroke="#000000" stroke-dasharray="5,2" d="M1889.1528,-1079.2653C1764.6378,-1051.112 1580.8574,-1009.2581 1565.336,-1004 1542.8575,-996.3851 1519.5284,-987.1728 1496.9606,-977.5183"/>
<polygon fill="none" stroke="#000000" points="1498.248,-974.2618 1487.6802,-973.5056 1495.4699,-980.687 1498.248,-974.2618"/>
</g>
<!-- ndMotorController&#45;&gt;ndMotorGroup -->
<g id="edge6" class="edge">
<title>ndMotorController&#45;&gt;ndMotorGroup</title>
<path fill="none" stroke="#000000" d="M2099.8601,-1074.4795C2151.137,-1057.2058 2215.0795,-1033.9769 2278.5084,-1005.1961"/>
<polygon fill="#000000" stroke="#000000" points="2278.6035,-1005.1525 2282.3872,-999.0138 2289.509,-1000.1454 2285.7252,-1006.2841 2278.6035,-1005.1525"/>
</g>
<!-- ndMotorController&#45;&gt;ndTestMotor -->
<g id="edge7" class="edge">
<title>ndMotorController&#45;&gt;ndTestMotor</title>
<path fill="none" stroke="#000000" stroke-dasharray="5,2" d="M1973.4923,-1074.375C1949.2043,-1049.4512 1913.9348,-1013.2584 1882.5791,-981.0819"/>
<polygon fill="none" stroke="#000000" points="1885.0242,-978.576 1875.5384,-973.8569 1880.0109,-983.4615 1885.0242,-978.576"/>
</g>
<!-- ndMotorController&#45;&gt;ndPrintMotor -->
<g id="edge8" class="edge">
<title>ndMotorController&#45;&gt;ndPrintMotor</title>
<path fill="none" stroke="#000000" stroke-dasharray="5,2" d="M2029.4298,-1074.375C2050.5767,-1049.5559 2081.2446,-1013.5624 2108.5736,-981.4877"/>
<polygon fill="none" stroke="#000000" points="2111.2539,-983.7386 2115.0753,-973.8569 2105.9257,-979.1987 2111.2539,-983.7386"/>
</g>
<!-- ndMotorState&#45;&gt;ndPwmMotor -->
<g id="edge9" class="edge">
<title>ndMotorState&#45;&gt;ndPwmMotor</title>
<path fill="none" stroke="#000000" d="M1482.2568,-1040.2791C1464.5292,-1021.7972 1445.0829,-1001.5233 1426.8885,-982.5547"/>
<polygon fill="#000000" stroke="#000000" points="1426.6568,-982.3132 1419.6167,-980.752 1418.3501,-973.653 1425.3902,-975.2142 1426.6568,-982.3132"/>
</g>
<!-- ndMotorState&#45;&gt;ndMotorGroup -->
<g id="edge10" class="edge">
<title>ndMotorState&#45;&gt;ndMotorGroup</title>
<path fill="none" stroke="#000000" d="M1704.0074,-1070.6734C1759.6096,-1059.6356 1822.5347,-1048.164 1880.336,-1040 2054.3154,-1015.4268 2108.6777,-1056.1561 2279.8544,-1004.2772"/>
<polygon fill="#000000" stroke="#000000" points="2289.4228,-1001.3187 2281.1984,-1008.5719 2284.6459,-1002.7957 2279.8691,-1004.2727 2279.8691,-1004.2727 2279.8691,-1004.2727 2284.6459,-1002.7957 2278.5397,-999.9736 2289.4228,-1001.3187 2289.4228,-1001.3187"/>
</g>
<!-- ndMotorState&#45;&gt;ndTestMotor -->
<g id="edge11" class="edge">
<title>ndMotorState&#45;&gt;ndTestMotor</title>
<path fill="none" stroke="#000000" stroke-dasharray="5,2" d="M1632.832,-1040.2791C1658.9036,-1021.2118 1687.5831,-1000.2372 1714.2203,-980.7563"/>
<polygon fill="#000000" stroke="#000000" points="1714.2469,-980.7368 1716.7287,-973.9662 1723.933,-973.653 1721.4513,-980.4236 1714.2469,-980.7368"/>
</g>
<!-- ndMotorState&#45;&gt;ndPrintMotor -->
<g id="edge12" class="edge">
<title>ndMotorState&#45;&gt;ndPrintMotor</title>
<path fill="none" stroke="#000000" d="M1703.9201,-1074.0117C1854.7136,-1044.6935 2058.2711,-1005.0047 2060.336,-1004 2073.5177,-997.5866 2086.3813,-989.1917 2098.3925,-980.045"/>
<polygon fill="#000000" stroke="#000000" points="2106.5653,-973.6077 2101.494,-983.3305 2102.6374,-976.7016 2098.7095,-979.7954 2098.7095,-979.7954 2098.7095,-979.7954 2102.6374,-976.7016 2095.925,-976.2603 2106.5653,-973.6077 2106.5653,-973.6077"/>
</g>
<!-- ndMotorState&#45;&gt;ndDriveTrain -->
<g id="edge13" class="edge">
<title>ndMotorState&#45;&gt;ndDriveTrain</title>
<path fill="none" stroke="#000000" d="M1384.653,-1084.3865C1288.051,-1068.2703 1177.9644,-1042.1336 1148.336,-1004 1096.526,-937.3173 1100.7399,-883.7529 1148.336,-814 1151.8741,-808.8149 1181.7505,-795.3558 1223.5724,-778.4376"/>
<polygon fill="#000000" stroke="#000000" points="1232.9657,-774.6595 1225.3673,-782.5661 1228.3269,-776.5253 1223.688,-778.3911 1223.688,-778.3911 1223.688,-778.3911 1228.3269,-776.5253 1222.0088,-774.2162 1232.9657,-774.6595 1232.9657,-774.6595"/>
</g>
<!-- ndSensor -->
<g id="node9" class="node">
<title>ndSensor</title>
<polygon fill="none" stroke="#000000" points="1631.336,-1236.5 1631.336,-1297.5 1723.336,-1297.5 1723.336,-1236.5 1631.336,-1236.5"/>
<text text-anchor="middle" x="1677.336" y="-1282.3" font-family="Times,serif" font-size="14.00" fill="#000000">&lt;&lt;&lt;Trait&gt;&gt;&gt;</text>
<text text-anchor="middle" x="1677.336" y="-1267.3" font-family="Times,serif" font-size="14.00" fill="#000000">Sensor</text>
<polyline fill="none" stroke="#000000" points="1631.336,-1259.5 1723.336,-1259.5 "/>
<text text-anchor="middle" x="1677.336" y="-1244.3" font-family="Times,serif" font-size="14.00" fill="#000000"> </text>
</g>
<!-- ndRobotController -->
<g id="node11" class="node">
<title>ndRobotController</title>
<polygon fill="none" stroke="#000000" points="632.336,-347.5 632.336,-506.5 1632.336,-506.5 1632.336,-347.5 632.336,-347.5"/>
<text text-anchor="middle" x="1132.336" y="-491.3" font-family="Times,serif" font-size="14.00" fill="#000000">&lt;&lt;&lt;Structure&gt;&gt;&gt;</text>
<text text-anchor="middle" x="1132.336" y="-476.3" font-family="Times,serif" font-size="14.00" fill="#000000">RobotController</text>
<polyline fill="none" stroke="#000000" points="632.336,-468.5 1632.336,-468.5 "/>
<text text-anchor="middle" x="1132.336" y="-453.3" font-family="Times,serif" font-size="14.00" fill="#000000">&#45; driver_station_view: ServerSender</text>
<text text-anchor="middle" x="1132.336" y="-438.3" font-family="Times,serif" font-size="14.00" fill="#000000">&#45; command_receiver: Receiver&lt;MechatronicsCommand&gt;</text>
<text text-anchor="middle" x="1132.336" y="-423.3" font-family="Times,serif" font-size="14.00" fill="#000000">&#45; drive_train: DriveTrain</text>
<text text-anchor="middle" x="1132.336" y="-408.3" font-family="Times,serif" font-size="14.00" fill="#000000">&#45; life_status: Arc&lt;RwLock&lt;RobotLifeStatus&gt;&gt;</text>
<polyline fill="none" stroke="#000000" points="632.336,-400.5 1632.336,-400.5 "/>
<text text-anchor="middle" x="1132.336" y="-385.3" font-family="Times,serif" font-size="14.00" fill="#000000">+ new(driver_station_view: ServerSender, command_receiver: Receiver&lt;MechatronicsCommand&gt;, drive_train: DriveTrain, life_status: Arc&lt;RwLock&lt;RobotLifeStatus&gt;&gt;) &#45;&gt; Self</text>
<text text-anchor="middle" x="1132.336" y="-370.3" font-family="Times,serif" font-size="14.00" fill="#000000">&#45; handle_message(&amp;mut self, message: MechatronicsCommand)</text>
<text text-anchor="middle" x="1132.336" y="-355.3" font-family="Times,serif" font-size="14.00" fill="#000000">&#45; process_states(&amp;mut self)</text>
</g>
<!-- ndDriveTrain&#45;&gt;ndRobotController -->
<g id="edge14" class="edge">
<title>ndDriveTrain&#45;&gt;ndRobotController</title>
<path fill="none" stroke="#000000" stroke-dasharray="5,2" d="M1335.7384,-543.408C1317.7086,-533.0895 1299.6851,-522.7745 1282.2312,-512.7856"/>
<polygon fill="#000000" stroke="#000000" points="1281.8573,-512.5716 1274.6629,-513.063 1271.4423,-506.611 1278.6366,-506.1197 1281.8573,-512.5716"/>
</g>
<!-- ndRobot -->
<g id="node22" class="node">
<title>ndRobot</title>
<polygon fill="none" stroke="#000000" points="1520.336,-181.5 1520.336,-310.5 1836.336,-310.5 1836.336,-181.5 1520.336,-181.5"/>
<text text-anchor="middle" x="1678.336" y="-295.3" font-family="Times,serif" font-size="14.00" fill="#000000">&lt;&lt;&lt;Structure&gt;&gt;&gt;</text>
<text text-anchor="middle" x="1678.336" y="-280.3" font-family="Times,serif" font-size="14.00" fill="#000000">Robot</text>
<polyline fill="none" stroke="#000000" points="1520.336,-272.5 1836.336,-272.5 "/>
<text text-anchor="middle" x="1678.336" y="-257.3" font-family="Times,serif" font-size="14.00" fill="#000000">&#45; controller: RobotController</text>
<text text-anchor="middle" x="1678.336" y="-242.3" font-family="Times,serif" font-size="14.00" fill="#000000">&#45; bfr: Rocket</text>
<polyline fill="none" stroke="#000000" points="1520.336,-234.5 1836.336,-234.5 "/>
<text text-anchor="middle" x="1678.336" y="-219.3" font-family="Times,serif" font-size="14.00" fill="#000000">&#45; new(controller: RobotController, bfr: Rocket) &#45;&gt; Self</text>
<text text-anchor="middle" x="1678.336" y="-204.3" font-family="Times,serif" font-size="14.00" fill="#000000">+ launch(self)</text>
<text text-anchor="middle" x="1678.336" y="-189.3" font-family="Times,serif" font-size="14.00" fill="#000000">+ launch_tester(self) &#45;&gt; Client</text>
</g>
<!-- ndRobotController&#45;&gt;ndRobot -->
<g id="edge15" class="edge">
<title>ndRobotController&#45;&gt;ndRobot</title>
<path fill="none" stroke="#000000" stroke-dasharray="5,2" d="M1372.2168,-347.4791C1418.2122,-332.2315 1465.4804,-316.562 1508.6948,-302.2364"/>
<polygon fill="#000000" stroke="#000000" points="1508.7885,-302.2054 1513.2251,-296.5206 1520.179,-298.4294 1515.7424,-304.1142 1508.7885,-302.2054"/>
</g>
<!-- ndRobotLifeStatus -->
<g id="node12" class="node">
<title>ndRobotLifeStatus</title>
<polygon fill="none" stroke="#000000" points="963.836,-871 963.836,-947 1100.836,-947 1100.836,-871 963.836,-871"/>
<text text-anchor="middle" x="1032.336" y="-931.8" font-family="Times,serif" font-size="14.00" fill="#000000">&lt;&lt;&lt;Enumeration&gt;&gt;&gt;</text>
<text text-anchor="middle" x="1032.336" y="-916.8" font-family="Times,serif" font-size="14.00" fill="#000000">RobotLifeStatus</text>
<polyline fill="none" stroke="#000000" points="963.836,-909 1100.836,-909 "/>
<text text-anchor="middle" x="1032.336" y="-893.8" font-family="Times,serif" font-size="14.00" fill="#000000">Alive</text>
<text text-anchor="middle" x="1032.336" y="-878.8" font-family="Times,serif" font-size="14.00" fill="#000000">Dead</text>
</g>
<!-- ndRobotLifeStatus&#45;&gt;ndDriveTrain -->
<g id="edge16" class="edge">
<title>ndRobotLifeStatus&#45;&gt;ndDriveTrain</title>
<path fill="none" stroke="#000000" d="M1058.0909,-870.7789C1072.8525,-851.4071 1092.8899,-828.8946 1115.336,-814 1154.8575,-787.7748 1173.496,-793.7979 1221.6265,-778.7291"/>
<polygon fill="#000000" stroke="#000000" points="1221.6869,-778.7091 1226.1195,-773.0212 1233.0747,-774.9252 1228.6422,-780.6131 1221.6869,-778.7091"/>
</g>
<!-- ndRobotLifeStatus&#45;&gt;ndRobotController -->
<g id="edge17" class="edge">
<title>ndRobotLifeStatus&#45;&gt;ndRobotController</title>
<path fill="none" stroke="#000000" d="M1044.9638,-870.9123C1053.2555,-844.9402 1063.9021,-809.6481 1071.336,-778 1082.6154,-729.9815 1103.5186,-605.5473 1117.6752,-518.5572"/>
<polygon fill="#000000" stroke="#000000" points="1117.7027,-518.3877 1114.7162,-511.8241 1119.6263,-506.5429 1122.6128,-513.1065 1117.7027,-518.3877"/>
</g>
<!-- ndMechatronicsMessageSender -->
<g id="node14" class="node">
<title>ndMechatronicsMessageSender</title>
<polygon fill="none" stroke="#000000" points="107.336,-551 107.336,-770 739.336,-770 739.336,-551 107.336,-551"/>
<text text-anchor="middle" x="423.336" y="-754.8" font-family="Times,serif" font-size="14.00" fill="#000000">&lt;&lt;&lt;Structure&gt;&gt;&gt;</text>
<text text-anchor="middle" x="423.336" y="-739.8" font-family="Times,serif" font-size="14.00" fill="#000000">MechatronicsMessageSender</text>
<polyline fill="none" stroke="#000000" points="107.336,-732 739.336,-732 "/>
<text text-anchor="middle" x="423.336" y="-716.8" font-family="Times,serif" font-size="14.00" fill="#000000">&#45; channel: Sender&lt;MechatronicsCommand&gt;</text>
<text text-anchor="middle" x="423.336" y="-701.8" font-family="Times,serif" font-size="14.00" fill="#000000">&#45; robot_life_status: Arc&lt;RwLock&lt;RobotLifeStatus&gt;&gt;</text>
<polyline fill="none" stroke="#000000" points="107.336,-694 739.336,-694 "/>
<text text-anchor="middle" x="423.336" y="-678.8" font-family="Times,serif" font-size="14.00" fill="#000000">+ new(channel: Sender&lt;MechatronicsCommand&gt;, robot_life_status: Arc&lt;RwLock&lt;RobotLifeStatus&gt;&gt;) &#45;&gt; Self</text>
<text text-anchor="middle" x="423.336" y="-663.8" font-family="Times,serif" font-size="14.00" fill="#000000">+ revive(&amp;self) &#45;&gt; Result&lt;(), ()&gt;</text>
<text text-anchor="middle" x="423.336" y="-648.8" font-family="Times,serif" font-size="14.00" fill="#000000">+ kill(&amp;self) &#45;&gt; Result&lt;(), ()&gt;</text>
<text text-anchor="middle" x="423.336" y="-633.8" font-family="Times,serif" font-size="14.00" fill="#000000">+ drive(&amp;self, left: f32, right: f32) &#45;&gt; Result&lt;(), ()&gt;</text>
<text text-anchor="middle" x="423.336" y="-618.8" font-family="Times,serif" font-size="14.00" fill="#000000">+ brake(&amp;self)</text>
<text text-anchor="middle" x="423.336" y="-603.8" font-family="Times,serif" font-size="14.00" fill="#000000">+ enable_drive_train(&amp;self)</text>
<text text-anchor="middle" x="423.336" y="-588.8" font-family="Times,serif" font-size="14.00" fill="#000000">+ disable_drive_train(&amp;self)</text>
<text text-anchor="middle" x="423.336" y="-573.8" font-family="Times,serif" font-size="14.00" fill="#000000">&#45; send_command(&amp;self, command: MechatronicsCommand)</text>
<text text-anchor="middle" x="423.336" y="-558.8" font-family="Times,serif" font-size="14.00" fill="#000000">&#45; change_life_status(&amp;self, status: RobotLifeStatus) &#45;&gt; Result&lt;(), ()&gt;</text>
</g>
<!-- ndRobotLifeStatus&#45;&gt;ndMechatronicsMessageSender -->
<g id="edge18" class="edge">
<title>ndRobotLifeStatus&#45;&gt;ndMechatronicsMessageSender</title>
<path fill="none" stroke="#000000" stroke-dasharray="5,2" d="M1010.3888,-870.87C996.8186,-850.7761 977.5603,-827.5508 954.336,-814 874.0587,-767.1602 838.1562,-801.8906 748.336,-778 742.7417,-776.512 737.1074,-774.9693 731.444,-773.378"/>
<polygon fill="#000000" stroke="#000000" points="731.3203,-773.3427 724.4522,-775.5402 719.7821,-770.0456 726.6502,-767.8481 731.3203,-773.3427"/>
</g>
<!-- ndTestEnvironment -->
<g id="node16" class="node">
<title>ndTestEnvironment</title>
<polygon fill="none" stroke="#000000" points="757.336,-607.5 757.336,-713.5 1029.336,-713.5 1029.336,-607.5 757.336,-607.5"/>
<text text-anchor="middle" x="893.336" y="-698.3" font-family="Times,serif" font-size="14.00" fill="#000000">&lt;&lt;&lt;Structure&gt;&gt;&gt;</text>
<text text-anchor="middle" x="893.336" y="-683.3" font-family="Times,serif" font-size="14.00" fill="#000000">TestEnvironment</text>
<polyline fill="none" stroke="#000000" points="757.336,-675.5 1029.336,-675.5 "/>
<text text-anchor="middle" x="893.336" y="-660.3" font-family="Times,serif" font-size="14.00" fill="#000000">&#45; receiver: Receiver&lt;MechatronicsCommand&gt;</text>
<text text-anchor="middle" x="893.336" y="-645.3" font-family="Times,serif" font-size="14.00" fill="#000000">&#45; sender: ServerSender</text>
<text text-anchor="middle" x="893.336" y="-630.3" font-family="Times,serif" font-size="14.00" fill="#000000">&#45; client: Client</text>
<text text-anchor="middle" x="893.336" y="-615.3" font-family="Times,serif" font-size="14.00" fill="#000000">&#45; status: Arc&lt;RwLock&lt;RobotLifeStatus&gt;&gt;</text>
</g>
<!-- ndRobotLifeStatus&#45;&gt;ndTestEnvironment -->
<g id="edge19" class="edge">
<title>ndRobotLifeStatus&#45;&gt;ndTestEnvironment</title>
<path fill="none" stroke="#000000" d="M1011.0736,-870.9877C989.2721,-832.0116 954.9744,-770.6952 929.0084,-724.274"/>
<polygon fill="#000000" stroke="#000000" points="928.9602,-724.1877 922.5401,-720.904 923.102,-713.7148 929.5221,-716.9985 928.9602,-724.1877"/>
</g>
<!-- ndMechatronicsCommand -->
<g id="node13" class="node">
<title>ndMechatronicsCommand</title>
<polygon fill="none" stroke="#000000" points="326.836,-856 326.836,-962 519.836,-962 519.836,-856 326.836,-856"/>
<text text-anchor="middle" x="423.336" y="-946.8" font-family="Times,serif" font-size="14.00" fill="#000000">&lt;&lt;&lt;Enumeration&gt;&gt;&gt;</text>
<text text-anchor="middle" x="423.336" y="-931.8" font-family="Times,serif" font-size="14.00" fill="#000000">MechatronicsCommand</text>
<polyline fill="none" stroke="#000000" points="326.836,-924 519.836,-924 "/>
<text text-anchor="middle" x="423.336" y="-908.8" font-family="Times,serif" font-size="14.00" fill="#000000">Drive(DriveCommandMessage)</text>
<text text-anchor="middle" x="423.336" y="-893.8" font-family="Times,serif" font-size="14.00" fill="#000000">Brake</text>
<text text-anchor="middle" x="423.336" y="-878.8" font-family="Times,serif" font-size="14.00" fill="#000000">Enable</text>
<text text-anchor="middle" x="423.336" y="-863.8" font-family="Times,serif" font-size="14.00" fill="#000000">Disable</text>
</g>
<!-- ndMechatronicsCommand&#45;&gt;ndRobotController -->
<g id="edge20" class="edge">
<title>ndMechatronicsCommand&#45;&gt;ndRobotController</title>
<path fill="none" stroke="#000000" stroke-dasharray="5,2" d="M326.6646,-898.7788C250.4889,-885.0709 148.969,-853.0004 98.336,-778 69.1161,-734.7177 63.4075,-581.8221 98.336,-543 123.7447,-514.7589 400.5772,-511.1752 438.336,-507 497.1038,-500.5017 558.6561,-493.5773 619.8014,-486.6247"/>
<polygon fill="#000000" stroke="#000000" points="620.1011,-486.5907 625.6103,-481.9379 632.0241,-485.2339 626.5148,-489.8866 620.1011,-486.5907"/>
</g>
<!-- ndMechatronicsCommand&#45;&gt;ndMechatronicsMessageSender -->
<g id="edge21" class="edge">
<title>ndMechatronicsCommand&#45;&gt;ndMechatronicsMessageSender</title>
<path fill="none" stroke="#000000" stroke-dasharray="5,2" d="M423.336,-855.9953C423.336,-834.3378 423.336,-808.3183 423.336,-782.433"/>
<polygon fill="#000000" stroke="#000000" points="423.3361,-782.1625 419.3361,-776.1626 423.336,-770.1625 427.3361,-776.1625 423.3361,-782.1625"/>
</g>
<!-- ndMechatronicsCommand&#45;&gt;ndTestEnvironment -->
<g id="edge22" class="edge">
<title>ndMechatronicsCommand&#45;&gt;ndTestEnvironment</title>
<path fill="none" stroke="#000000" d="M506.9922,-855.7564C533.5121,-840.596 563.4599,-825.1818 592.336,-814 658.6903,-788.3053 684.3857,-809.2004 748.336,-778 777.7715,-763.6389 806.5683,-742.2997 830.6416,-721.7319"/>
<polygon fill="#000000" stroke="#000000" points="830.9238,-721.4859 832.8178,-714.5279 839.969,-713.6001 838.075,-720.5581 830.9238,-721.4859"/>
</g>
<!-- ndServerState -->
<g id="node19" class="node">
<title>ndServerState</title>
<polygon fill="none" stroke="#000000" points="97.336,-389 97.336,-465 429.336,-465 429.336,-389 97.336,-389"/>
<text text-anchor="middle" x="263.336" y="-449.8" font-family="Times,serif" font-size="14.00" fill="#000000">&lt;&lt;&lt;Structure&gt;&gt;&gt;</text>
<text text-anchor="middle" x="263.336" y="-434.8" font-family="Times,serif" font-size="14.00" fill="#000000">ServerState</text>
<polyline fill="none" stroke="#000000" points="97.336,-427 429.336,-427 "/>
<text text-anchor="middle" x="263.336" y="-411.8" font-family="Times,serif" font-size="14.00" fill="#000000">&#45; receiver: Mutex&lt;Receiver&lt;Box&lt;SendableMessage&gt;&gt;&gt;</text>
<text text-anchor="middle" x="263.336" y="-396.8" font-family="Times,serif" font-size="14.00" fill="#000000">&#45; robot_controller: Mutex&lt;MechatronicsMessageSender&gt;</text>
</g>
<!-- ndMechatronicsMessageSender&#45;&gt;ndServerState -->
<g id="edge23" class="edge">
<title>ndMechatronicsMessageSender&#45;&gt;ndServerState</title>
<path fill="none" stroke="#000000" d="M348.2552,-550.9288C330.0312,-524.3333 311.4656,-497.2391 296.3602,-475.1947"/>
<polygon fill="#000000" stroke="#000000" points="296.242,-475.0221 289.5508,-472.3336 289.4589,-465.123 296.1501,-467.8115 296.242,-475.0221"/>
</g>
<!-- ndDriveCommandMessage -->
<g id="node15" class="node">
<title>ndDriveCommandMessage</title>
<polygon fill="none" stroke="#000000" points="245.336,-1040.5 245.336,-1169.5 601.336,-1169.5 601.336,-1040.5 245.336,-1040.5"/>
<text text-anchor="middle" x="423.336" y="-1154.3" font-family="Times,serif" font-size="14.00" fill="#000000">&lt;&lt;&lt;Structure&gt;&gt;&gt;</text>
<text text-anchor="middle" x="423.336" y="-1139.3" font-family="Times,serif" font-size="14.00" fill="#000000">DriveCommandMessage</text>
<polyline fill="none" stroke="#000000" points="245.336,-1131.5 601.336,-1131.5 "/>
<text text-anchor="middle" x="423.336" y="-1116.3" font-family="Times,serif" font-size="14.00" fill="#000000">&#45; left_speed: f32</text>
<text text-anchor="middle" x="423.336" y="-1101.3" font-family="Times,serif" font-size="14.00" fill="#000000">&#45; right_speed: f32</text>
<polyline fill="none" stroke="#000000" points="245.336,-1093.5 601.336,-1093.5 "/>
<text text-anchor="middle" x="423.336" y="-1078.3" font-family="Times,serif" font-size="14.00" fill="#000000">+ create(left_speed: f32, right_speed: f32) &#45;&gt; Result&lt;Self, ()&gt;</text>
<text text-anchor="middle" x="423.336" y="-1063.3" font-family="Times,serif" font-size="14.00" fill="#000000">+ get_left_speed(&amp;self) &#45;&gt; f32</text>
<text text-anchor="middle" x="423.336" y="-1048.3" font-family="Times,serif" font-size="14.00" fill="#000000">+ get_right_speed(&amp;self) &#45;&gt; f32</text>
</g>
<!-- ndDriveCommandMessage&#45;&gt;ndMechatronicsCommand -->
<g id="edge24" class="edge">
<title>ndDriveCommandMessage&#45;&gt;ndMechatronicsCommand</title>
<path fill="none" stroke="#000000" d="M423.336,-1040.2791C423.336,-1019.1202 423.336,-995.6127 423.336,-974.4038"/>
<polygon fill="#000000" stroke="#000000" points="423.3361,-974.2171 419.3361,-968.2172 423.336,-962.2171 427.3361,-968.2171 423.3361,-974.2171"/>
</g>
<!-- ndSendableMessage -->
<g id="node17" class="node">
<title>ndSendableMessage</title>
<polygon fill="none" stroke="#000000" points="698.336,-1236.5 698.336,-1297.5 848.336,-1297.5 848.336,-1236.5 698.336,-1236.5"/>
<text text-anchor="middle" x="773.336" y="-1282.3" font-family="Times,serif" font-size="14.00" fill="#000000">&lt;&lt;&lt;Trait&gt;&gt;&gt;</text>
<text text-anchor="middle" x="773.336" y="-1267.3" font-family="Times,serif" font-size="14.00" fill="#000000">SendableMessage</text>
<polyline fill="none" stroke="#000000" points="698.336,-1259.5 848.336,-1259.5 "/>
<text text-anchor="middle" x="773.336" y="-1244.3" font-family="Times,serif" font-size="14.00" fill="#000000">encode(&amp;Self) &#45;&gt; String</text>
</g>
<!-- ndSendableMessage&#45;&gt;ndMotorState -->
<g id="edge25" class="edge">
<title>ndSendableMessage&#45;&gt;ndMotorState</title>
<path fill="none" stroke="#000000" stroke-dasharray="5,2" d="M848.6666,-1251.1718C969.6591,-1225.7493 1210.3177,-1175.1828 1374.3199,-1140.7232"/>
<polygon fill="none" stroke="#000000" points="1375.452,-1144.0619 1384.5185,-1138.5803 1374.0125,-1137.2115 1375.452,-1144.0619"/>
</g>
<!-- ndServerSender -->
<g id="node18" class="node">
<title>ndServerSender</title>
<polygon fill="none" stroke="#000000" points="601.336,-859.5 601.336,-958.5 945.336,-958.5 945.336,-859.5 601.336,-859.5"/>
<text text-anchor="middle" x="773.336" y="-943.3" font-family="Times,serif" font-size="14.00" fill="#000000">&lt;&lt;&lt;Structure&gt;&gt;&gt;</text>
<text text-anchor="middle" x="773.336" y="-928.3" font-family="Times,serif" font-size="14.00" fill="#000000">ServerSender</text>
<polyline fill="none" stroke="#000000" points="601.336,-920.5 945.336,-920.5 "/>
<text text-anchor="middle" x="773.336" y="-905.3" font-family="Times,serif" font-size="14.00" fill="#000000">&#45; channel: Sender&lt;Box&lt;SendableMessage&gt;&gt;</text>
<polyline fill="none" stroke="#000000" points="601.336,-897.5 945.336,-897.5 "/>
<text text-anchor="middle" x="773.336" y="-882.3" font-family="Times,serif" font-size="14.00" fill="#000000">+ send_message(&amp;self, message: Box&lt;SendableMessage&gt;)</text>
<text text-anchor="middle" x="773.336" y="-867.3" font-family="Times,serif" font-size="14.00" fill="#000000">&#45; new(channel: Sender&lt;Box&lt;SendableMessage&gt;&gt;) &#45;&gt; Self</text>
</g>
<!-- ndSendableMessage&#45;&gt;ndServerSender -->
<g id="edge26" class="edge">
<title>ndSendableMessage&#45;&gt;ndServerSender</title>
<path fill="none" stroke="#000000" d="M773.336,-1236.4771C773.336,-1177.8535 773.336,-1048.4661 773.336,-971.0304"/>
<polygon fill="#000000" stroke="#000000" points="773.3361,-970.602 769.3361,-964.6021 773.336,-958.602 777.3361,-964.602 773.3361,-970.602"/>
</g>
<!-- ndSendableMessage&#45;&gt;ndServerState -->
<g id="edge27" class="edge">
<title>ndSendableMessage&#45;&gt;ndServerState</title>
<path fill="none" stroke="#000000" d="M698.1633,-1262.1509C567.6955,-1252.3427 306.5381,-1226.1298 236.336,-1170 11.187,-989.9828 -71.5976,-793.9046 70.336,-543 87.8125,-512.1058 117.1696,-488.5344 147.7816,-470.9776"/>
<polygon fill="#000000" stroke="#000000" points="148.1244,-470.7896 151.46,-464.3963 158.6444,-465.0163 155.3088,-471.4096 148.1244,-470.7896"/>
</g>
<!-- ndServerSender&#45;&gt;ndRobotController -->
<g id="edge28" class="edge">
<title>ndServerSender&#45;&gt;ndRobotController</title>
<path fill="none" stroke="#000000" stroke-dasharray="5,2" d="M865.2764,-859.3739C893.9114,-844.3606 925.7405,-828.12 955.336,-814 991.6266,-796.6858 1013.9849,-809.997 1038.336,-778 1102.2092,-694.0716 1038.9792,-643.3832 1071.336,-543 1074.0541,-534.5675 1077.3565,-526.0166 1081.0027,-517.5784"/>
<polygon fill="#000000" stroke="#000000" points="1081.0351,-517.5065 1079.8588,-510.392 1085.9737,-506.5698 1087.1499,-513.6844 1081.0351,-517.5065"/>
</g>
<!-- ndServerSender&#45;&gt;ndTestEnvironment -->
<g id="edge29" class="edge">
<title>ndServerSender&#45;&gt;ndTestEnvironment</title>
<path fill="none" stroke="#000000" d="M797.3314,-859.3096C816.0416,-820.5638 842.1643,-766.4682 862.4376,-724.4855"/>
<polygon fill="#000000" stroke="#000000" points="862.5047,-724.3464 861.5118,-717.204 867.723,-713.5404 868.7159,-720.6828 862.5047,-724.3464"/>
</g>
<!-- ndDrive -->
<g id="node20" class="node">
<title>ndDrive</title>
<polygon fill="none" stroke="#000000" points="1741.336,-1248 1741.336,-1286 1857.336,-1286 1857.336,-1248 1741.336,-1248"/>
<text text-anchor="middle" x="1799.336" y="-1270.8" font-family="Times,serif" font-size="14.00" fill="#000000">&lt;&lt;&lt;Structure&gt;&gt;&gt;</text>
<text text-anchor="middle" x="1799.336" y="-1255.8" font-family="Times,serif" font-size="14.00" fill="#000000">Drive</text>
</g>
<!-- ndRobot&#45;&gt;ndRobotBuilder -->
<g id="edge30" class="edge">
<title>ndRobot&#45;&gt;ndRobotBuilder</title>
<path fill="none" stroke="#000000" d="M1712.9658,-181.395C1717.8186,-172.3416 1722.8563,-162.9434 1727.8475,-153.6318"/>
<polygon fill="#000000" stroke="#000000" points="1732.6111,-144.7448 1731.8529,-155.6845 1730.2489,-149.1517 1727.8868,-153.5585 1727.8868,-153.5585 1727.8868,-153.5585 1730.2489,-149.1517 1723.9206,-151.4326 1732.6111,-144.7448 1732.6111,-144.7448"/>
</g>
<!-- ndRunnable -->
<g id="node23" class="node">
<title>ndRunnable</title>
<polygon fill="none" stroke="#000000" points="1123.336,-630 1123.336,-691 1215.336,-691 1215.336,-630 1123.336,-630"/>
<text text-anchor="middle" x="1169.336" y="-675.8" font-family="Times,serif" font-size="14.00" fill="#000000">&lt;&lt;&lt;Trait&gt;&gt;&gt;</text>
<text text-anchor="middle" x="1169.336" y="-660.8" font-family="Times,serif" font-size="14.00" fill="#000000">Runnable</text>
<polyline fill="none" stroke="#000000" points="1123.336,-653 1215.336,-653 "/>
<text text-anchor="middle" x="1169.336" y="-637.8" font-family="Times,serif" font-size="14.00" fill="#000000"> </text>
</g>
<!-- ndRunnable&#45;&gt;ndRobotController -->
<g id="edge31" class="edge">
<title>ndRunnable&#45;&gt;ndRobotController</title>
<path fill="none" stroke="#000000" stroke-dasharray="5,2" d="M1164.4989,-629.974C1159.9393,-601.1987 1152.8777,-556.6346 1146.5316,-516.5856"/>
<polygon fill="none" stroke="#000000" points="1149.9576,-515.8422 1144.9356,-506.5133 1143.0438,-516.9378 1149.9576,-515.8422"/>
</g>
<!-- ndMotorID -->
<g id="node24" class="node">
<title>ndMotorID</title>
<polygon fill="none" stroke="#000000" points="1303.836,-1206.5 1303.836,-1327.5 1440.836,-1327.5 1440.836,-1206.5 1303.836,-1206.5"/>
<text text-anchor="middle" x="1372.336" y="-1312.3" font-family="Times,serif" font-size="14.00" fill="#000000">&lt;&lt;&lt;Enumeration&gt;&gt;&gt;</text>
<text text-anchor="middle" x="1372.336" y="-1297.3" font-family="Times,serif" font-size="14.00" fill="#000000">MotorID</text>
<polyline fill="none" stroke="#000000" points="1303.836,-1289.5 1440.836,-1289.5 "/>
<text text-anchor="middle" x="1372.336" y="-1274.3" font-family="Times,serif" font-size="14.00" fill="#000000">DriveTrainFrontLeft</text>
<text text-anchor="middle" x="1372.336" y="-1259.3" font-family="Times,serif" font-size="14.00" fill="#000000">DriveTrainFrontRight</text>
<text text-anchor="middle" x="1372.336" y="-1244.3" font-family="Times,serif" font-size="14.00" fill="#000000">DriveTrainRearLeft</text>
<text text-anchor="middle" x="1372.336" y="-1229.3" font-family="Times,serif" font-size="14.00" fill="#000000">DriveTrainRearRight</text>
<text text-anchor="middle" x="1372.336" y="-1214.3" font-family="Times,serif" font-size="14.00" fill="#000000">Null</text>
</g>
<!-- ndMotorID&#45;&gt;ndPwmMotor -->
<g id="edge32" class="edge">
<title>ndMotorID&#45;&gt;ndPwmMotor</title>
<path fill="none" stroke="#000000" stroke-dasharray="5,2" d="M1369.6219,-1206.2702C1366.8798,-1144.9176 1362.6383,-1050.0122 1359.688,-983.9996"/>
<polygon fill="#000000" stroke="#000000" points="1359.226,-973.6626 1364.1681,-983.4517 1359.4493,-978.6576 1359.6726,-983.6527 1359.6726,-983.6527 1359.6726,-983.6527 1359.4493,-978.6576 1355.1771,-983.8536 1359.226,-973.6626 1359.226,-973.6626"/>
</g>
<!-- ndMotorID&#45;&gt;ndMotorState -->
<g id="edge33" class="edge">
<title>ndMotorID&#45;&gt;ndMotorState</title>
<path fill="none" stroke="#000000" stroke-dasharray="5,2" d="M1436.8718,-1206.2163C1446.6775,-1196.9807 1456.8809,-1187.3705 1466.9264,-1177.9091"/>
<polygon fill="#000000" stroke="#000000" points="1466.9642,-1177.8735 1468.5894,-1170.8479 1475.6996,-1169.6459 1474.0744,-1176.6715 1466.9642,-1177.8735"/>
</g>
</g>
</svg>
